<?xml version="1.0" standalone="no"?>
<!DOCTYPE svg PUBLIC "-//W3C//DTD SVG 20010904//EN"
 "http://www.w3.org/TR/2001/REC-SVG-20010904/DTD/svg10.dtd">
<svg version="1.0" xmlns="http://www.w3.org/2000/svg"
 width="300.000000pt" height="300.000000pt" viewBox="0 0 300.000000 300.000000"
 preserveAspectRatio="xMidYMid meet">
<metadata>
Created by potrace 1.10, written by Peter Selinger 2001-2011
</metadata>
<g transform="translate(0.000000,300.000000) scale(0.100000,-0.100000)"
fill="#0b6037" stroke="none">
<path d="M1621 2582 c-68 -94 -154 -237 -222 -372 l-58 -115 0 152 c-1 140
-15 292 -30 320 -4 8 -15 4 -34 -13 -29 -24 -29 -25 -18 -92 5 -37 13 -100 16
-141 8 -87 -5 -350 -15 -330 -4 8 -13 50 -19 94 -18 117 -32 175 -40 175 -4 0
-14 -12 -21 -27 -12 -27 -15 -20 -69 147 -50 152 -60 175 -77 172 -40 -6 -44
-10 -34 -39 5 -15 40 -125 78 -243 67 -208 87 -280 77 -280 -3 0 -30 51 -61
113 -31 61 -81 149 -111 194 -57 85 -178 233 -191 233 -4 0 -15 -12 -26 -26
l-18 -26 34 -36 c50 -54 109 -129 155 -197 49 -74 137 -235 128 -235 -4 0 -32
19 -63 43 -103 78 -239 149 -360 188 -63 20 -74 21 -82 9 -22 -35 -11 -47 68
-75 165 -58 352 -175 461 -289 l35 -36 -24 -24 c-23 -25 -154 -98 -200 -111
-46 -13 -160 -66 -223 -102 -301 -177 -389 -525 -204 -810 100 -156 227 -258
437 -353 63 -29 119 -56 125 -61 5 -5 94 -9 198 -9 172 0 191 2 216 20 16 10
64 29 107 41 247 67 442 241 506 453 18 58 20 83 14 160 -4 50 -8 104 -9 120
-2 26 3 30 58 51 33 13 91 26 128 30 l68 7 -6 -63 c-8 -83 -12 -92 -31 -85
-26 10 -33 -2 -21 -39 8 -29 7 -38 -6 -53 -10 -10 -17 -23 -17 -28 0 -5 -25
-31 -55 -57 -36 -31 -55 -56 -55 -70 0 -13 20 -44 48 -73 26 -27 64 -71 84
-96 23 -29 59 -57 93 -73 91 -45 111 -21 71 89 -24 64 -30 73 -48 68 -15 -4
-19 -1 -16 9 3 8 11 13 17 11 6 -1 12 6 12 15 3 39 6 59 14 83 8 25 8 25 -14
6 -15 -14 -25 -16 -32 -9 -20 20 -6 48 26 51 46 6 57 20 53 66 -3 31 2 51 20
80 34 56 60 136 74 233 10 72 10 88 -3 111 -19 34 -92 62 -180 69 l-67 6 -47
84 c-52 92 -61 147 -28 170 10 7 27 21 37 30 14 11 52 18 125 24 58 4 122 11
141 14 28 5 42 1 69 -19 42 -31 51 -32 85 -5 31 25 35 68 7 93 -17 16 -24 16
-55 5 -29 -10 -50 -10 -123 3 -60 11 -132 15 -228 13 -146 -3 -191 -13 -202
-42 -3 -10 -17 -33 -30 -50 -33 -45 -80 -46 -117 -2 -14 17 -26 37 -26 46 0 8
-6 12 -12 9 -7 -2 -31 -10 -52 -17 -22 -7 -66 -38 -99 -68 l-59 -55 -46 13
c-74 19 -158 60 -187 91 l-27 28 48 53 c97 104 300 233 427 271 31 9 36 15 31
32 -11 36 -19 38 -85 16 -131 -44 -281 -136 -391 -240 -40 -38 -74 -68 -75
-66 -7 6 51 147 103 251 66 130 105 197 192 323 35 52 61 99 59 106 -3 7 -15
16 -26 19 -16 4 -30 -8 -70 -61z m-420 -817 c-15 -55 -53 -98 -133 -151 -179
-116 -209 -138 -266 -197 -181 -189 -213 -472 -80 -702 16 -27 57 -79 91 -114
60 -62 61 -63 22 -41 -184 108 -315 254 -364 408 -20 61 -23 87 -19 174 5 138
39 212 142 313 88 86 149 122 319 192 154 63 199 88 246 137 41 42 57 35 42
-19z m158 -4 c17 -69 75 -145 166 -221 l78 -64 -6 -135 c-4 -75 -2 -142 3
-150 5 -10 1 -24 -15 -45 -12 -17 -26 -42 -30 -56 -4 -14 -28 -70 -52 -125
-25 -55 -58 -139 -74 -187 -36 -111 -48 -134 -97 -182 l-40 -38 -7 46 c-10 67
-35 63 -35 -6 -1 -84 -12 -56 -81 215 -12 47 -29 39 -23 -11 8 -52 45 -243 51
-259 3 -7 0 -13 -6 -13 -15 0 -97 143 -118 205 -9 27 -26 97 -37 154 -12 58
-27 106 -33 109 -17 5 -17 -38 1 -156 14 -93 58 -202 117 -291 34 -51 7 -34
-71 44 -51 50 -83 93 -116 157 -25 49 -49 86 -54 83 -11 -7 20 -116 48 -171
12 -23 45 -68 74 -100 l53 -58 -55 29 c-75 40 -190 156 -223 225 -84 174 -76
391 19 532 56 82 109 133 236 224 64 46 133 103 153 127 39 44 75 116 75 148
0 16 7 19 43 19 l43 0 13 -49z m181 -46 c36 -15 66 -28 68 -30 1 -1 -4 -15
-13 -31 -8 -16 -15 -35 -15 -42 0 -10 -5 -10 -22 -1 -35 19 -118 107 -118 125
0 19 6 18 100 -21z m296 -47 c3 -13 16 -36 26 -51 11 -16 18 -30 16 -32 -2 -2
-32 12 -66 31 l-63 36 33 18 c44 24 46 23 54 -2z m-14 -135 c43 -24 80 -49 83
-53 3 -4 -18 -24 -45 -44 l-51 -37 -63 53 c-68 57 -82 82 -66 122 8 23 12 25
37 15 15 -6 63 -31 105 -56z m-109 -167 l26 -33 -29 -28 -29 -28 -12 26 c-12
27 -5 97 10 97 5 0 20 -15 34 -34z m288 -277 c25 -141 -17 -262 -132 -383 -62
-66 -183 -148 -238 -163 -11 -3 21 36 73 89 79 80 97 104 124 170 36 87 49
166 42 250 l-5 58 55 29 c30 16 58 28 61 25 4 -2 13 -36 20 -75z m-204 -56
c11 -28 -14 -140 -45 -208 -45 -95 -170 -220 -202 -200 -18 11 -10 30 23 50
42 27 101 124 123 205 18 66 71 170 86 170 5 0 12 -8 15 -17z m423 -182 c-1
-17 -30 36 -30 53 1 16 5 12 15 -13 8 -18 15 -36 15 -40z m134 26 c21 -15 19
-58 -3 -65 -10 -3 -12 0 -8 11 3 9 1 18 -6 21 -9 3 -8 7 2 14 11 8 10 12 -5
21 -11 6 -14 11 -8 11 5 0 18 -6 28 -13z m-65 -160 c7 -10 41 -37 75 -59 47
-31 54 -39 31 -34 -43 11 -93 51 -163 133 -34 39 -66 75 -72 78 -5 3 -10 13
-10 22 0 14 104 -90 139 -140z m-819 -78 c0 -5 -16 -9 -35 -9 -41 0 -47 17 -7
22 31 4 42 1 42 -13z m-35 -38 c3 -5 -1 -15 -8 -23 -8 -7 -12 -19 -9 -27 3 -9
-2 -11 -17 -6 -17 5 -20 3 -14 -10 5 -16 3 -16 -28 0 -19 10 -36 19 -37 21 -2
1 13 14 35 28 40 26 68 32 78 17z m30 -107 c-36 -13 -37 -14 -7 -9 19 3 32 0
32 -7 0 -7 -16 -9 -46 -5 -25 2 -69 -1 -97 -9 -29 -8 -70 -14 -92 -14 -30 0
-36 -3 -25 -10 13 -8 12 -10 -2 -10 -10 0 -18 4 -18 8 0 18 26 32 60 32 19 0
67 9 105 20 39 10 84 19 100 18 29 0 28 -1 -10 -14z m-8 -40 c-3 -3 -12 -4
-19 -1 -8 3 -5 6 6 6 11 1 17 -2 13 -5z m-120 -11 c-4 -3 -10 -3 -14 0 -3 4 0
7 7 7 7 0 10 -3 7 -7z m-39 -10 c-10 -2 -26 -2 -35 0 -10 3 -2 5 17 5 19 0 27
-2 18 -5z"/>
<path d="M1913 2113 c-32 -16 -47 -42 -57 -98 -10 -51 1 -57 112 -57 56 0 106
3 112 7 5 3 10 26 10 50 0 89 -94 141 -177 98z"/>
<path d="M1870 1936 c0 -15 62 -97 85 -112 32 -21 57 -7 90 50 33 56 33 68 -1
56 -36 -14 -148 -12 -162 2 -7 7 -12 9 -12 4z"/>
</g>
</svg>
