<?xml version="1.0" encoding="UTF-8"?>
<svg id="Layer_1" data-name="Layer 1" xmlns="http://www.w3.org/2000/svg" viewBox="0 0 2000 2000">
  <defs>
    <style>
      .cls-1 {
        fill: #059948;
      }
    </style>
  </defs>
  <path class="cls-1" d="M837.4,1392.35c-7.07-178.53-170.28-112.62-170.28-112.62l45.5-134.26c5.87-11.32,9.93-23.4,12.13-35.79l.03-.16c6.14-34.87-2.42-72.14-26.84-101.62l-28.27-34.13,131.62-290.53-70.62-33.71-101.12,240.77,32.1-269.66-97.91-11.24v280.89l-27.29-237.56h-89.89l75.44,316.21-30.46,48.39c-30.33,48.19-24.14,110.32,13.93,151.55l-56.77,105.03s-164.79-92.03-211.87,109.15c259.13,6.32,261.8,6.42,261.82,6.42l75.74-179.52c7.58,2.7,16.19,3.8,21.2,3.85l-67.25,176.96s30.59,1.58,309.08,1.58ZM548.06,1123.01c-24.23,0-43.87-19.64-43.87-43.87s19.64-43.87,43.87-43.87c16.94,0,31.61,9.62,38.92,23.68-3.08-1.56-6.55-2.47-10.24-2.47-12.51,0-22.66,10.14-22.66,22.66s10.14,22.66,22.66,22.66c3.69,0,7.16-.9,10.24-2.47-7.31,14.06-21.98,23.68-38.92,23.68ZM657.64,1035.28c17.49,0,32.54,10.26,39.58,25.06-3.61-2.43-7.95-3.85-12.63-3.85-12.51,0-22.66,10.14-22.66,22.66s10.14,22.66,22.66,22.66c4.68,0,9.02-1.42,12.63-3.85-7.05,14.8-22.1,25.06-39.58,25.06-24.23,0-43.87-19.64-43.87-43.87s19.64-43.87,43.87-43.87Z"/>
  <path d="M467.77,1080.64l-17.79,1.51c-65.16,5.52-124.58-40.63-135.33-105.11l-1.49-8.94c14.69-.11,23.02-7.9,25.98-11.35,11.53-13.43,10.8-34.49-1.16-54.64l24.63-57.2-33.17-14.28-24.78,57.53-14-66.92-35.35,7.39,14.02,67.02c-18.23,15.41-18.37,42.58-7.49,60.87,4.08,6.86,9.39,11.87,15.25,14.91l1.92,11.55c6.73,40.39,28.25,76.47,60.59,101.59,28.66,22.26,63.56,34.16,99.54,34.16,4.61,0,9.25-.2,13.89-.59l19.36-1.65-4.63-35.85Z"/>
  <g>
    <path d="M1071.32,1043.9c.12,0,.18-.06.18-.18-.97-5.92-10.13-32.96-10.13-32.96-.97,5.8-9.21,27.05-10.17,32.96v.18h20.12Z"/>
    <path d="M898.4,1006.38c0-2.9-.7-5.56-2.08-7.97-1.39-2.42-3.35-4.32-5.89-5.71-2.54-1.39-5.68-2.08-9.43-2.08h-47.55v31.18c25.8.12,25.8.24,25.8.36h22.11c2.66,0,5.04-.42,7.16-1.27,2.11-.84,3.9-2,5.35-3.44,1.45-1.45,2.57-3.14,3.35-5.08.78-1.93,1.18-3.93,1.18-5.98Z"/>
    <path d="M731.54,872.37l88.84-196.1-97.21-46.4-67,159.52,21.61-181.51-128.57-14.75v45.1h-121.04l78.29,328.16-27.21,43.23c-31.68,50.33-27.76,115.12,8.71,161.14l-45.47,84.13c-24.52-10.52-78.82-28.1-129.89-5.56-43.95,19.4-74.2,63.29-89.91,130.45l-4.07,17.39,17.85.43c248.43,6.06,261.08,6.4,261.71,6.42l9.5.24,19.91,1.03c1.26.06,34.13,1.6,309.82,1.6h15.11l-.6-15.1c-1.87-47.27-14.4-82.95-37.3-106.43h966.78v-412.97H731.54ZM1161.58,938.41h81.2l25.56,75.22h.27c.06,0,.09-.06.09-.18v-75.04h69.78v135.94h-83.92l-22.84-65.25c0-.12-.03-.18-.09-.18h-.18c-.06,0-.09.06-.09.18v65.25h-69.78v-135.94ZM787.47,938.41h108.03c11.36,0,21.42,1.24,30.18,3.72,8.76,2.48,16.28,5.89,22.57,10.24,6.28,4.35,11.42,9.4,15.41,15.14,3.99,5.74,6.95,11.87,8.88,18.4,1.93,6.52,2.9,13.17,2.9,19.94,0,8.58-1.54,16.95-4.62,25.1-3.08,8.16-7.86,15.5-14.32,22.02-6.47,6.52-14.74,11.72-24.83,15.59-10.09,3.87-22.14,5.8-36.16,5.8h-108.03v-135.94ZM821.84,1377.83c-170.21-.04-242.66-.67-272.65-1.12l67.35-177.19-20.82-.22c-3.99-.04-10.85-1-16.48-3.01l-12.92-4.6-77.22,183.04-23.36-.58c-31.32-.77-92.13-2.26-210.21-5.14,14.17-47.85,37.21-79.12,68.63-93.05,53.88-23.92,116.84,10.31,117.44,10.65l12.85,7.18,68.71-127.11-7.04-7.63c-33.83-36.64-38.89-91.73-12.31-133.96l33.71-53.56-72.59-304.25h58.55l25.81,224.69,28.94-1.66v-264.62l67.25,7.72-30.38,255.18,27.8,7.34,95.23-226.73,44.04,21.02-129.49,285.83,34.06,41.12c20.72,25.02,29.37,57.76,23.7,89.98-1.96,11.06-5.57,21.71-10.72,31.64l-.51.98-55.95,165.14,29.26-11.71c.65-.25,65.68-25.74,109.04,2.37,22.75,14.75,36.27,42.39,40.28,82.26ZM856.94,1163.12c.66,1.54,1.59,2.89,2.81,4.04,1.21,1.16,2.67,2.09,4.37,2.8,1.7.72,3.6,1.27,5.69,1.65,2.09.39,4.34.58,6.77.58,5.83,0,10.6-1.4,14.69-3.55,3.26-1.72,4.13-2.64,5.94-5.73l70.13-.16c-1.21,8.14-3.88,18.46-8,25.61-4.13,7.15-9.85,13.48-17.16,18.98-7.32,5.5-16.39,9.82-27.23,12.95-10.84,3.13-23.62,4.7-38.37,4.7-8.69,0-16.72-.55-24.09-1.65-7.37-1.1-14.16-2.7-20.38-4.79-6.22-2.09-11.77-4.62-16.67-7.59-4.9-2.97-9.21-6.32-12.95-10.07-3.74-3.74-6.85-7.84-9.32-12.29-2.48-4.46-4.32-9.21-5.53-14.27-1.21-5.06-1.82-10.4-1.82-16.01,0-9.13,1.48-17.33,4.46-24.59,2.97-7.26,7.18-13.53,12.62-18.81s11.93-9.68,19.47-13.2c7.53-3.52,15.87-6.13,25-7.84,9.13-1.7,18.87-2.56,29.21-2.56,18.26,0,33.77,2.2,46.53,6.6,12.76,4.4,22.85,10.72,30.28,18.98,7.43,8.25,13.94,25.07,13.94,37.52l-70.13.16c-1.03-1.95-.55-.97-1.65-2.79-1.1-1.82-2.59-3.27-4.46-4.37-1.87-1.1-4.04-1.92-6.52-2.47-2.48-.55-5.14-.83-8-.83-3.96,0-7.48.52-10.56,1.57-3.08,1.05-5.53,2.59-7.34,4.62-1.82,2.04-2.72,4.59-2.72,7.67,0,1.87.33,3.58.99,5.12ZM1006.61,938.41h112.56c2.17,7.49,36.25,128.33,38.43,135.94h-80.84l-3.08-17.76h-24.65l-3.08,17.76h-77.4c2.18-7.61,36.01-128.45,38.06-135.94ZM1132.68,1220.04h-68.48v-40.26c0-.11-.03-.19-.08-.25-.06-.05-.14-.08-.25-.08h-22.61c-.11,0-.16.03-.16.08v40.51h-68.48v-123.76h68.48v48.43c0,.06.05.08.16.08h22.61c.11,0,.19-.03.25-.08.05-.05.08-.14.08-.25v-48.18h68.48v123.76ZM1207.75,1220.04h-68.48v-123.76h68.48v123.76ZM1343.56,1220.04h-95.54c-4.07-13.75-32.78-110.01-36.96-123.76h73.59c.66,4.29,11.55,72.61,12.21,76.9h.33c.55-3.63,11.66-73.26,12.21-76.9h71.28c-2.42,8.25-34.6,115.51-37.13,123.76ZM1523.75,1220.04h-139.76v-123.76h138.77v41.58h-71.94v9.41h69.47v23.27h-69.3c-.11,0-.16.03-.16.08v9.49h72.93v39.93ZM1516.01,1060.58c-8.07,6.06-18.07,10.82-30.01,14.28-11.94,3.46-26.04,5.18-42.29,5.18-9.58,0-18.43-.61-26.55-1.82-8.12-1.21-15.61-2.97-22.46-5.27-6.85-2.3-12.98-5.09-18.37-8.37-5.4-3.27-10.16-6.97-14.28-11.09-4.12-4.12-7.55-8.64-10.28-13.55-2.73-4.91-4.76-10.15-6.09-15.73-1.34-5.58-2-11.46-2-17.64,0-10.06,1.64-19.1,4.91-27.1,3.27-8,7.91-14.91,13.91-20.74,6-5.82,13.16-10.67,21.46-14.55,8.3-3.88,17.49-6.76,27.56-8.64,10.06-1.88,20.79-2.82,32.19-2.82,20.13,0,37.22,2.43,51.29,7.28,14.06,4.85,25.19,11.82,33.38,20.92,8.18,9.09,15.37,27.64,15.37,41.36l-77.3.18c-1.13-2.15-.61-1.07-1.82-3.07-1.21-2-2.85-3.61-4.91-4.82-2.06-1.21-4.46-2.12-7.18-2.73-2.73-.61-5.67-.91-8.82-.91-4.37,0-8.25.58-11.64,1.73-3.4,1.15-6.09,2.85-8.09,5.09-2,2.25-3,5.07-3,8.46,0,2.06.36,3.94,1.09,5.64.73,1.7,1.76,3.18,3.09,4.46,1.33,1.27,2.94,2.3,4.82,3.09,1.88.79,3.97,1.4,6.27,1.82,2.3.43,4.79.64,7.46.64,6.43,0,11.69-1.54,16.19-3.91,3.6-1.89,4.55-2.91,6.55-6.31l77.3-.18c-1.34,8.97-4.27,20.35-8.82,28.23-4.55,7.88-10.85,14.86-18.92,20.92ZM1695.94,1200.82c-4.46,5.34-10.67,9.79-18.65,13.37-7.98,3.58-17.22,6.27-27.72,8.09-10.51,1.82-21.81,2.72-33.91,2.72-13.42,0-25.63-.99-36.63-2.97-11-1.98-20.35-5.03-28.05-9.16-7.7-4.13-13.45-9.43-17.24-15.92-3.8-6.49-5.31-14.24-4.54-23.27l70.22.08c.16,1.32.56,2.84.98,3.39,1.58,2.06,3.55,3.85,6.52,4.95,2.97,1.1,6.27,1.65,9.9,1.65,2.2,0,4.21-.17,6.02-.5,1.82-.33,3.44-.83,4.87-1.48,1.43-.66,2.53-1.51,3.3-2.56.77-1.04,1.16-2.23,1.16-3.55,0-2.64-1.35-4.34-4.04-5.11-2.7-.77-6.63-1.16-11.8-1.16h-4.13c-16.28,0-29.81-.85-40.59-2.56-10.78-1.7-19.31-4.1-25.58-7.18-6.27-3.08-10.73-6.74-13.37-10.97-2.64-4.23-3.96-8.99-3.96-14.27,0-5.61,1.49-10.7,4.46-15.26,2.97-4.56,7.18-8.58,12.62-12.04,5.45-3.47,11.82-6.35,19.14-8.66,7.31-2.31,15.35-4.07,24.09-5.28,8.75-1.21,17.9-1.82,27.47-1.82,13.53,0,25.66,1.21,36.39,3.63,10.73,2.42,19.74,5.89,27.06,10.4,7.31,4.51,12.57,9.9,15.76,16.17,3.19,6.27,3.96,13.31,2.31,21.12l-67.3-.68c-.29-2.14-.33-2.81-1.01-4.02-1.19-2.11-3.38-3.52-6.19-4.46-2.81-.93-5.97-1.4-9.49-1.4-2.2,0-4.18.19-5.94.58-1.76.39-3.27.94-4.54,1.65-1.27.72-2.26,1.57-2.97,2.56-.72.99-1.07,2.04-1.07,3.14,0,1.32.44,2.39,1.32,3.22.88.82,2.23,1.4,4.04,1.73,1.82.33,4.21.49,7.18.49h4.13c16.5,0,30.31.72,41.42,2.15,11.11,1.43,19.97,3.66,26.57,6.68,6.6,3.03,11.33,6.88,14.19,11.55,2.86,4.68,4.29,10.21,4.29,16.58,0,6.93-2.23,13.06-6.68,18.4ZM1702.62,1074.35h-153.52v-135.94h152.43v45.68h-79.03v10.33h76.31v25.56h-76.13c-.12,0-.18.03-.18.09v10.42h80.11v43.86Z"/>
  </g>
</svg>