<?xml version="1.0" encoding="UTF-8"?>
<svg id="Layer_1" data-name="Layer 1" xmlns="http://www.w3.org/2000/svg" xmlns:xlink="http://www.w3.org/1999/xlink" viewBox="0 0 2000 2000">
  <defs>
    <style>
      .cls-1 {
        clip-path: url(#clippath-6);
      }

      .cls-2 {
        clip-path: url(#clippath-4);
      }

      .cls-3 {
        fill: #fff;
      }

      .cls-4 {
        fill: none;
      }

      .cls-5 {
        fill: #3fad3c;
      }

      .cls-6 {
        clip-path: url(#clippath-1);
      }

      .cls-7 {
        fill: #059948;
      }

      .cls-8 {
        clip-path: url(#clippath-5);
      }

      .cls-9 {
        clip-path: url(#clippath-3);
      }

      .cls-10 {
        clip-path: url(#clippath-2);
      }

      .cls-11 {
        clip-path: url(#clippath);
      }
    </style>
    <clipPath id="clippath">
      <rect class="cls-4" x="-2683.2" y="3136" width="2000" height="2000"/>
    </clipPath>
    <clipPath id="clippath-1">
      <rect class="cls-4" x="-2059.13" y="1642.17" width="2000" height="2000"/>
    </clipPath>
    <clipPath id="clippath-2">
      <rect class="cls-4" y="3136" width="2000" height="2000"/>
    </clipPath>
    <clipPath id="clippath-3">
      <rect class="cls-4" x="623.7" y="1642.17" width="2000" height="2000"/>
    </clipPath>
    <clipPath id="clippath-4">
      <rect class="cls-4" x="-1376.3" y="1642.17" width="2000" height="2000"/>
    </clipPath>
    <clipPath id="clippath-5">
      <rect class="cls-4" x="2683.2" y="3136" width="2000" height="2000"/>
    </clipPath>
    <clipPath id="clippath-6">
      <rect class="cls-4" x="2338.01" y="1642.17" width="2000" height="2000"/>
    </clipPath>
  </defs>
  <g>
    <path class="cls-7" d="M1059.21,1555c38.93-78.4,43.55-173.13,4.11-259.15l-44.35-96.72,485.82-592.03-142.85-122.07-384.16,495.57,242.04-605.48-220.11-86.91-174.56,651.48,84.34-567.93-208.48-55.86-21.54,780.27-100.72,93.31c-60.82,56.35-93.64,132.95-96.11,211.12,0,0-18.67,244.31,226.83,310.09,246.49,66.05,349.75-155.71,349.75-155.71Z"/>
    <path class="cls-3" d="M797.97,1755.68c-29.72,0-62.04-4.01-96.98-13.37-140.24-37.58-201.2-129.4-227.64-199.81-26.85-71.52-23.94-135.04-23.41-143.5,2.99-89.69,40.82-172.59,106.56-233.49l90.62-83.96,22.31-807.94,276.68,74.14-4.67,31.47,36.14-134.88,284.79,112.45-167.8,419.75,262.51-338.64,193.32,165.19-493.19,601.01,35.83,78.13c42.11,91.82,40.5,196.43-4.41,287.06-2.97,6.22-31.53,63.98-90.93,113.48-43.32,36.1-109.62,72.93-199.74,72.93ZM732.55,358.25l-20.78,752.59-110.8,102.66c-52.94,49.05-83.36,115.87-85.65,188.16l-.08,1.45c-.62,8.8-12.83,218.26,202.68,276,91.36,24.47,171.39,8.79,237.9-46.63,50.42-42.01,73.5-90.81,73.72-91.3l.36-.74c36.21-72.91,37.55-157.1,3.67-230.96l-52.87-115.31,478.44-583.03-92.39-78.95-363.14,468.45-56.23-32.18,229.84-574.97-155.43-61.37-165.07,616.05-63.96-13.27,80.06-539.07-140.27-37.59Z"/>
    <circle class="cls-3" cx="931.72" cy="1407.26" r="105.95"/>
    <circle class="cls-3" cx="676.07" cy="1338.76" r="105.95"/>
    <circle class="cls-7" cx="685.54" cy="1284.68" r="54.72"/>
    <circle class="cls-7" cx="937.16" cy="1352.1" r="54.72"/>
  </g>
  <g class="cls-11">
    <g class="cls-6">
      <path d="M507.77,1205.2l-27.32-4.84c-36.57-6.47-73.88,1.04-105.19,21.04-6.43,4.12-12.47,8.71-18.11,13.69l50.23-76.98,10.68-16.37-15.93-11.32-41.52-29.51-15.94-11.33,2.29-7.72,7.01-23.63-24.53-2.4-57.52-5.63-18.31-1.79-3.61,18.04-1.69,8.45-20.79,5.02-51.34,12.39-18.18,4.39,2.85,18.48,30.07,195.14-10.72,34.25-.57,1.82-.22,1.89c-1.71,14.56-.44,29.48,3.56,43.71l-2.58,1.51c-51.15,29.97-117.83,15.39-151.81-33.2l-7.88-11.27-.11-2.86,60.92-35.37-16.44-28.32-45.9,26.65-2.91-75.7-32.73,1.26,2.18,56.76-37.59-49.31-26.05,19.85,42.74,56.07c-32.96-7.39-66.19-14.9-69.61-15.82l-4.45,15.76-4.59,15.72c4.45,1.3,71.01,16.21,99.67,22.61l15.9,22.74c21.28,30.43,52.98,51.56,89.26,59.5,36.05,7.88,73.41,2.03,105.32-16.46,10.11,16.03,23.81,28.56,39.64,36.37l-13.22,50.88c-27.8-12.99-74.66-26.07-120.3,1.52-24.44,14.77-44.97,39.52-61.02,73.56l-10.19,21.61,22.96,6.61,204.69,58.93,19.87,5.72,5.39-19.96,53-196.2,97.33,29.55,19.23,5.84,6.07-19.15,27.05-85.38c27.64,13.17,75.22,27.08,121.55-.93,24.44-14.77,44.97-39.52,61.02-73.56l10.19-21.61-22.96-6.61-89.28-25.7-13.59-12.59,61.45,8.29,4.38-32.46-69.88-9.43c28.53-18.09,57.32-36.3,60.42-38.03l-8-14.29-7.87-14.36c-4.06,2.24-61.67,38.75-86.46,54.49ZM429.95,1233.71l-3.12,10.27-38.37,126.2-3.39-.89c.35-16.23-3.17-32.51-10.35-47.25-5.39-11.05-12.74-20.99-21.59-29.38,15.72-30.07,44.21-51.56,76.83-58.95ZM597.83,1373.65c-58.89,35.6-122.79-11.89-122.79-11.89l-34.68,109.47-114.23-34.68c-.35.22-.7.43-1.05.64-1,.6-2.01,1.19-3.03,1.74l-57.56,213.1c-8.72-2.51-48.78-14.04-204.69-58.93,15.66-33.19,34.14-53.34,53.15-64.83,58.9-35.6,122.79,11.89,122.79,11.89l24.52-94.34c-.61-.17-1.23-.34-1.84-.53l-3.43-1.07c-37.74-11.71-59.99-54.35-55.39-93.6l12.13-38.75-30.79-199.8,51.34-12.39,2.13,148.16,35.53-177.41,57.52,5.63-48.86,164.66,70.23-123.25,41.52,29.51-90.76,139.09,17.64,6.43c35.64,16.52,53.7,55.28,45.65,91.94l39.34,10.37,44.07-144.94c8.72,2.51,48.78,14.04,204.69,58.93-15.66,33.19-34.14,53.34-53.15,64.83Z"/>
    </g>
  </g>
  <g class="cls-10">
    <g class="cls-9">
      <g>
        <g>
          <path class="cls-5" d="M1999.46,2460.93l11.92-.78c35.52-2.31,64.22-11.63,85.31-27.71h0c45.52-34.7,43.96-90.03,40.31-115.62l111.41,7.69,9.9-121.84,222.65,25.03,22.43-234.22-11.92.78c-35.52,2.31-64.22,11.63-85.31,27.71-45.09,34.37-43.99,88.99-40.41,114.89l-73.38-8.96c.8-40.79-31.14-80.78-74.47-92.26l-.92-.24-39.1-2.84-180.59-105.5-43.07,61.27,60.43,24.85-93.07-16.76-21.78,76.26,95.47,8.36-64.2,9.19,17.26,69.85,159.72-32.77-.17,6.4.02.43c2.3,39.52,30.19,73.26,67.73,83.58l-2.55,21.51-151.22-12.21-22.4,233.9ZM2201.13,2063.57c9.24-8.61,22.24-10.6,33.25-6.24-3.1.49-6.1,1.88-8.57,4.18-6.61,6.16-6.98,16.51-.82,23.12,6.16,6.61,16.51,6.98,23.12.82,2.47-2.3,4.07-5.19,4.78-8.25,3.56,11.29.66,24.12-8.58,32.72-12.8,11.93-32.85,11.21-44.77-1.59-11.93-12.8-11.21-32.85,1.59-44.77ZM2143.23,2117.51c8.95-8.34,21.44-10.48,32.22-6.65-2.4.69-4.68,1.92-6.63,3.74-6.61,6.16-6.98,16.51-.82,23.12,6.16,6.61,16.51,6.98,23.12.82,1.95-1.82,3.34-4,4.2-6.34,3.06,11.03.04,23.33-8.91,31.67-12.8,11.93-32.85,11.21-44.77-1.59-11.93-12.8-11.21-32.85,1.59-44.77Z"/>
          <path class="cls-3" d="M1884.47,2339.19l10.47,12.59,10.36,12.68c2.75-2.24,30.26-22.35,57.55-42.25l-16.87,68.47,31.8,7.84,14.84-60.2,6.72,17.27-8.86,92.48-2.28,23.78,23.84-1.55c37.55-2.44,68.11-12.46,90.82-29.77,43.06-32.82,47.59-82.18,45.48-112.72l89.35,6.17,20.05,1.38,1.63-20.03,8.23-101.38,201.96,22.71,20.55,2.31,1.97-20.58,20.31-212.03,2.28-23.78-23.84,1.55c-37.55,2.44-68.11,12.46-90.82,29.77-42.42,32.34-47.44,80.72-45.57,111.35l-52.18-6.37c-1.46-17.6-8.09-34.94-19.29-50.23,28.91-22.9,48.07-55.51,53.97-91.93,5.93-36.66-2.09-73.9-22.59-104.86l-15.32-23.14c4.56-29.01,15.12-96.4,15.55-101.01l-16.31-1.5-16.29-1.64c-.4,3.51-5.61,37.18-10.83,70.56l-36.48-60.33-28.03,16.94,32.08,53.06-52-22.86-13.18,29.98,69.35,30.49-41.63,32.92,20.31,25.69,55.26-43.69,2.62,1.15,7.59,11.47c32.73,49.43,21.82,116.81-24.83,153.4l-2.35,1.84c-11.77-8.95-25.18-15.6-39.35-19.36l-1.84-.49-1.9-.14-35.79-2.59-170.48-99.59-16.14-9.43-10.75,15.3-30.37,43.21-12.3,17.5-8.49-1.53-18.11-3.26-5.05,17.69-15.87,55.57-6.77,23.7,24.55,2.15,8.02.7,4.69,18.99,12.22,49.45,4.69,18.97,19.14-3.93,90.04-18.47c-6.71,3.42-13.19,7.35-19.38,11.82-30.1,21.78-50.78,53.73-58.18,90.13l-5.53,27.19c-23.74,17.29-78.84,57.48-82.42,60.43ZM2104.99,2167.01c4.55,11.31,11.1,21.79,19.4,30.86,11.07,12.09,24.92,21.34,40.15,26.97l-.41,3.48-131.48-10.62-10.7-.86c18.85-27.63,49.29-46.24,83.03-49.83ZM2010.72,2450.01c15.47-161.5,19.44-203,20.31-212.03l151,12.2,4.79-40.4c-37.06-5.98-66.48-37-68.77-76.21l.5-18.77-162.7,33.38-12.22-49.45,140.42-20.1-171.11-14.98,15.87-55.57,178.07,32.06-137.04-56.36,30.37-43.21,174.56,101.97,40.5,2.94c38.2,10.12,69.7,46.47,66.74,85.87l-.27,3.59c-.05.64-.12,1.27-.19,1.91l96.75,11.82s-20.72-76.86,34-118.58c17.67-13.47,43.19-23.27,79.81-25.65-15.47,161.5-19.44,203-20.31,212.03l-219.35-24.66c-.89.75-1.81,1.47-2.73,2.18-.33.25-.65.49-.98.74l-9.67,118.98-114.56-7.91s20.73,76.86-34,118.58c-17.67,13.47-43.19,23.27-79.81,25.65Z"/>
        </g>
        <g>
          <path class="cls-7" d="M1187.32,2365.45l-99.45-110.11c3.65-1.46,9.62-4.71,14.39-8.84l106.37,109.57s1.94-.84,189.39-79.15c-91.6-133.54-185.78-19.46-185.78-19.46l-71.34-60.56c16.08-40.94,2.93-88.08-32.93-114.64l-36.01-26.68-34.83-252.4-65.65,25.56,47.63,181.26-79.89-205.15-68.31,36.05,100.14,187.81-142.33-147.08-41.99,44.7,178.75,174.75-10.94,32.96c-9.45,28.48-5.1,58.13,9.3,81.85l.07.11c5.13,8.42,11.53,16.09,19.04,22.69l71.42,85.11s-137.95-1.72-92.34,130.68c203.39-79.2,225.28-89.05,225.28-89.05ZM1079.88,2145.18c-3.56-9.14-13.85-13.66-22.99-10.1-2.69,1.05-4.97,2.7-6.78,4.71,1.34-12.35,9.32-23.54,21.69-28.36,17.69-6.89,37.62,1.87,44.51,19.56,6.89,17.69-1.87,37.62-19.56,44.51-12.37,4.82-25.82,1.97-35.16-6.22,2.69.27,5.49-.06,8.18-1.11,9.14-3.56,13.66-13.85,10.1-22.99ZM1036.28,2162.16c6.89,17.69-1.87,37.62-19.56,44.51-12.77,4.97-26.68,1.76-36.04-7.04,3.33.75,6.9.55,10.32-.78,9.14-3.56,13.66-13.85,10.1-22.99-3.56-9.14-13.85-13.66-22.99-10.1-3.42,1.33-6.18,3.6-8.13,6.4.94-12.81,9.01-24.58,21.78-29.56,17.69-6.89,37.62,1.87,44.51,19.56Z"/>
          <path class="cls-3" d="M955.14,2469.4l11.03-4.3c201.35-78.41,224.92-88.87,225.82-89.28l14.25-6.41,6.87-2.88c.45-.19,9.6-4.04,189.31-79.12l12.92-5.4-7.92-11.54c-30.58-44.57-65.15-68.02-102.77-69.7-43.71-1.94-78.37,26.34-93.28,41l-57.14-48.51c4.71-15.28,5.89-31.1,3.87-46.4l6.66-1.96c3.5-1.03,6.94-2.21,10.31-3.52,26.27-10.23,48.38-28.84,62.98-53.26,16.48-27.54,21.93-60.02,15.36-91.43l-1.88-8.98c3.42-3.89,5.87-9.06,6.9-15.23,2.74-16.46-5.09-36.25-22.78-42.32l-8.82-52.93-27.92,4.65,8.81,52.86-34.46-34.97-20.16,19.87,34.26,34.77c-3,18.12,2.45,33.71,14.69,40.23,3.14,1.67,11.44,5,22.2.9l1.45,6.95c10.49,50.16-19.81,100.78-68.94,115.26l-5.94,1.75c-7.39-18.04-19.61-34.22-36.06-46.4l-32.17-23.83-36.15-261.94-88.4,34.42-12.83-32.94-89.71,47.34,67.4,126.42-94.3-97.45-57.81,61.53,181.65,177.58-8.7,26.22c-10.13,30.52-6.35,63.81,10.37,91.34,5.7,9.35,12.62,17.67,20.65,24.85l56.82,67.72c-22.19,3.49-55.22,13.19-74.7,40.15-18.57,25.7-20.46,60.58-5.62,103.68l3.86,11.19ZM969.27,2439.47c-8.41-30.26-6.4-54.29,6.02-71.54,23.67-32.87,78.41-32.74,78.96-32.74l24.7.23-87.83-104.7-.65-.57c-6.58-5.79-12.25-12.54-16.83-20.06-13.31-21.91-16.31-48.29-8.29-72.46l13.18-39.71-175.86-171.93,26.19-27.87,134.03,138.51,18.22-13.27-94.76-177.73,46.92-24.76,75.26,193.26,21.61-7.02-45.05-171.45,42.76-16.65,33.52,242.86,39.85,29.53c31.42,23.29,43.39,64.96,29.11,101.35l-2.97,7.57,86.33,73.29,7.34-8.9c.35-.41,36.59-43.31,82.75-41.18,26.91,1.25,52.63,17.53,76.59,48.45-85.42,35.69-129.41,54.07-152.06,63.54l-16.9,7.07-108.46-111.72-8.12,7.04c-3.54,3.07-8.28,5.72-11.18,6.88l-15.15,6.07,99.59,110.27c-21.78,8.86-74.51,29.92-198.81,78.36Z"/>
        </g>
      </g>
      <g>
        <path class="cls-3" d="M1961.43,1536.63l13.75,26.98s-21.84,47.87-29.84,49.2-48.48,32.82-48.48,32.82l-27.44-1.2-24.32-24.02s-5.78-19.59-1.96-29.48c4.7-12.16,21.21-19.84,22.46-20.48,2.26-1.15,59.32-55.19,59.32-55.19l30.44,9.44,6.08,11.93Z"/>
        <g>
          <path class="cls-5" d="M1122.31,1237.35l-44.14,145.15-20.95-5.52c4.18-38.72-16.97-77.04-52.89-93.68l-.39-.18-6.01-2.19,89.1-136.55-58.64-41.69-32.11,56.34,27.27-91.88-78.93-7.72-18.57,92.72-.94-65.33-72.8,17.58,31.85,206.71-11.71,37.41-.11.95c-5.22,44.52,20.26,88.91,58.49,103.14l-18.6,71.55c-22.78-12.83-73.18-33.9-121.7-4.57-22.7,13.72-41.9,37-57.09,69.19l-5.1,10.8,226.11,65.09,58.43-216.3,116.97,35.51,33.73-106.46c22.46,12.79,73.36,34.54,122.34,4.93h0c22.69-13.72,41.9-37,57.08-69.19l5.1-10.8-225.8-65ZM946.68,1359.08c7.53,15.79.84,34.7-14.96,42.23-11.4,5.44-24.4,3.43-33.59-4.03,3.11.46,6.38.03,9.43-1.42,8.16-3.89,11.61-13.66,7.72-21.81-3.89-8.16-13.66-11.61-21.81-7.72-3.05,1.45-5.44,3.73-7.04,6.43,0-11.84,6.61-23.2,18.01-28.64,15.79-7.53,34.7-.84,42.23,14.96ZM1018.11,1325.01c7.53,15.79.84,34.7-14.96,42.23-11.04,5.27-23.59,3.56-32.73-3.33,2.49.06,5.04-.43,7.44-1.58,8.16-3.89,11.61-13.66,7.72-21.81-3.89-8.16-13.66-11.61-21.81-7.72-2.41,1.15-4.39,2.81-5.91,4.79.39-11.44,6.96-22.27,18.01-27.53,15.79-7.53,34.7-.84,42.23,14.95Z"/>
          <path class="cls-3" d="M1190.6,1205.2l-27.32-4.84c-36.57-6.47-73.88,1.04-105.19,21.04-6.43,4.12-12.47,8.71-18.11,13.69l50.23-76.98,10.68-16.37-15.93-11.32-41.52-29.51-15.94-11.33,2.29-7.72,7.01-23.63-24.53-2.4-57.52-5.63-18.31-1.79-3.61,18.04-1.69,8.45-20.79,5.02-51.34,12.39-18.18,4.39,2.85,18.48,30.07,195.14-10.72,34.25-.57,1.82-.22,1.89c-1.71,14.56-.44,29.48,3.56,43.71l-2.58,1.51c-51.15,29.97-117.83,15.39-151.81-33.2l-7.88-11.27-.11-2.86,60.92-35.37-16.44-28.32-45.9,26.65-2.91-75.7-32.73,1.26,2.18,56.76-37.59-49.31-26.05,19.85,42.74,56.07c-32.96-7.39-66.19-14.9-69.61-15.82l-4.45,15.76-4.59,15.72c4.45,1.3,71.01,16.21,99.67,22.61l15.9,22.74c21.28,30.43,52.98,51.56,89.26,59.5,36.05,7.88,73.41,2.03,105.32-16.46,10.11,16.03,23.81,28.56,39.64,36.37l-13.22,50.88c-27.8-12.99-74.66-26.07-120.3,1.52-24.44,14.77-44.97,39.52-61.02,73.56l-10.19,21.61,22.96,6.61,204.69,58.93,19.87,5.72,5.39-19.96,53-196.2,97.33,29.55,19.23,5.84,6.07-19.15,27.05-85.38c27.64,13.17,75.22,27.08,121.55-.93,24.44-14.77,44.97-39.52,61.02-73.56l10.19-21.61-22.96-6.61-89.28-25.7-13.59-12.59,61.45,8.29,4.38-32.46-69.88-9.43c28.53-18.09,57.32-36.3,60.42-38.03l-8-14.29-7.87-14.36c-4.06,2.24-61.67,38.75-86.46,54.49ZM1112.78,1233.71l-3.12,10.27-38.37,126.2-3.39-.89c.35-16.23-3.17-32.51-10.35-47.25-5.39-11.05-12.74-20.99-21.59-29.38,15.72-30.07,44.21-51.56,76.83-58.95ZM1280.66,1373.65c-58.89,35.6-122.79-11.89-122.79-11.89l-34.68,109.47-114.23-34.68c-.35.22-.7.43-1.05.64-1,.6-2.01,1.19-3.03,1.74l-57.56,213.1c-8.72-2.51-48.78-14.04-204.69-58.93,15.66-33.19,34.14-53.34,53.15-64.83,58.9-35.6,122.79,11.89,122.79,11.89l24.52-94.34c-.61-.17-1.23-.34-1.84-.53l-3.43-1.07c-37.74-11.71-59.99-54.35-55.39-93.6l12.13-38.75-30.79-199.8,51.34-12.39,2.13,148.16,35.53-177.41,57.52,5.63-48.86,164.66,70.23-123.25,41.52,29.51-90.76,139.09,17.64,6.43c35.64,16.52,53.7,55.28,45.65,91.94l39.34,10.37,44.07-144.94c8.72,2.51,48.78,14.04,204.69,58.93-15.66,33.19-34.14,53.34-53.15,64.83Z"/>
        </g>
        <g>
          <path class="cls-7" d="M2116.85,1458.1l-119.94,93.65c-10.93-23.28-31.89-41.64-58.89-48.27l-30.36-7.46-47.52-219.93-54.18,10.58,43.89,178.92-95.14-166.28-60.2,34.78,118.05,159.15-115.3-123.13-50.93,37.78,175.64,147.46,3.08,40.22c1.86,24.29,13.5,45.83,31.03,60.68l-125.49,88.35s-42.86-149.47-191.96-72.26c120.3,162.18,144.38,194.65,148.36,200.02l276.79-208.24c3.85-2.41,7.5-5.12,10.94-8.09l277.04-202.59c-3.98-5.37-28.06-37.83-148.36-200.02-117.15,120.28,13.45,204.67,13.45,204.67ZM1895.72,1625.44c-13.81,10.24-33.3,7.35-43.55-6.46-8.62-11.63-7.9-27.26.77-38.04-2.3,5.13-1.84,11.32,1.75,16.16,5.29,7.13,15.36,8.63,22.49,3.34s8.62-15.36,3.33-22.49c-3.59-4.84-9.38-7.07-14.96-6.36,12.83-5.17,28-1.33,36.62,10.3,10.24,13.81,7.35,33.3-6.46,43.55ZM1958.17,1579.12c-13.81,10.24-33.3,7.35-43.55-6.46-8.62-11.63-7.9-27.26.77-38.04-2.3,5.13-1.84,11.32,1.75,16.16,5.29,7.13,15.36,8.62,22.49,3.34,7.13-5.29,8.62-15.36,3.33-22.49-3.59-4.84-9.38-7.07-14.96-6.36,12.83-5.17,28-1.33,36.62,10.3,10.24,13.81,7.35,33.3-6.46,43.55Z"/>
          <path class="cls-3" d="M2096.52,1246.73c-38.21,39.23-55.32,79.26-50.83,118.97,5.2,46.03,38,78.44,55.33,92.57l-101.11,78.94c-3.73-5.97-8.08-11.45-12.92-16.41,21.66-20.46,37.5-46.49,45.65-75.69,11.21-40.16,6.92-82.72-12.07-119.83l-13.95-27.25c8.73-31.82,28.69-104.76,29.74-109.84l-37.62-7.94c-.86,3.76-10.5,39.25-20.11,74.39l-31.87-69.13-34.91,16.1,27.74,60.16-52.27-30.34-19.3,33.25,71.79,41.67-48.96,30.51,20.33,32.63,66.26-41.29,2.04,1.19,6.87,13.42c27.28,53.3,12.82,118.53-32.3,155.81-4.43-1.8-9.01-3.3-13.74-4.46l-24.53-6.03-48.24-223.27-73.32,14.32,29.99,122.26-65.95-115.27-77.89,45,24.45,32.96-6.4-6.83-67.59,50.14,181.87,152.69,1.67,21.83c-47.51,25.32-108.07,18.31-148.21-20.41l-10.85-10.46-.54-2.3,58.74-51.42-25.32-28.93-43.4,38-19.05-80.78-37.42,8.82,13.87,58.83-49.52-44-25.54,28.74,56.9,50.56c-36.42-1.01-73.19-2.08-77.03-2.34l-1.57,19.16-1.74,19.14c5.16.47,80.76,2.53,113.74,3.41l22.03,21.26c30.01,28.95,69.49,45.4,111.17,46.33,24.4.54,48.29-4.28,70.17-13.9,4.37,12.36,11.2,23.72,20.2,33.48l-105.66,74.39c-8.5-20.68-29.99-61.48-72.53-79.81-36.7-15.81-79.97-11.06-128.6,14.12l-10.03,5.19,160.85,216.86,284.2-213.82c3.97-2.51,7.82-5.36,11.46-8.48l284.55-208.07-160.85-216.86-7.88,8.09ZM2238.28,1451.41l-269.23,196.87-.32.23-.3.26c-3.09,2.67-6.37,5.1-9.75,7.21l-.35.22-269.39,202.67-135.72-182.97c38.97-18,73.2-20.9,101.85-8.6,48.64,20.87,66.1,79.39,66.27,79.96l3.72,12.99,146.7-103.29-9.49-8.04c-16.22-13.73-26.04-32.93-27.66-54.07l-3.39-44.25-169.41-142.23,34.27-25.42,109.44,116.88,14.74-12.3-111.63-150.5,42.51-24.56,90.35,157.9,17.68-7.06-41.49-169.13,35.04-6.85,46.8,216.59,36.19,8.89c23.19,5.69,42.32,21.38,52.48,43.02l5.12,10.9,140.09-109.38-11.35-7.33c-.51-.33-51.32-33.73-57.28-86.49-3.51-31.04,9.2-63,37.77-95.11l135.72,182.97Z"/>
        </g>
      </g>
    </g>
    <g class="cls-2">
      <g>
        <path class="cls-5" d="M-.54,2460.93l11.92-.78c35.52-2.31,64.22-11.63,85.31-27.71h0c45.52-34.7,43.96-90.03,40.31-115.62l111.41,7.69,9.9-121.84,222.65,25.03,22.43-234.22-11.92.78c-35.52,2.31-64.22,11.63-85.31,27.71-45.09,34.37-43.99,88.99-40.41,114.89l-73.38-8.96c.8-40.79-31.14-80.78-74.47-92.26l-.92-.24-39.1-2.84L-2.72,1927.08l-43.07,61.27,60.43,24.85-93.07-16.76-21.78,76.26,95.47,8.36-64.2,9.19,17.26,69.85,159.72-32.77-.17,6.4.02.43c2.3,39.52,30.19,73.26,67.73,83.58l-2.55,21.51-151.22-12.21L-.54,2460.93ZM201.13,2063.57c9.24-8.61,22.24-10.6,33.25-6.24-3.1.49-6.1,1.88-8.57,4.18-6.61,6.16-6.98,16.51-.82,23.12,6.16,6.61,16.51,6.98,23.12.82,2.47-2.3,4.07-5.19,4.78-8.25,3.56,11.29.66,24.12-8.58,32.72-12.8,11.93-32.85,11.21-44.77-1.59-11.93-12.8-11.21-32.85,1.59-44.77ZM143.23,2117.51c8.95-8.34,21.44-10.48,32.22-6.65-2.4.69-4.68,1.92-6.63,3.74-6.61,6.16-6.98,16.51-.82,23.12,6.16,6.61,16.51,6.98,23.12.82,1.95-1.82,3.34-4,4.2-6.34,3.06,11.03.04,23.33-8.91,31.67-12.8,11.93-32.85,11.21-44.77-1.59-11.93-12.8-11.21-32.85,1.59-44.77Z"/>
        <path class="cls-3" d="M-115.53,2339.19l10.47,12.59,10.36,12.68c2.75-2.24,30.26-22.35,57.55-42.25l-16.87,68.47,31.8,7.84,14.84-60.2,6.72,17.27-8.86,92.48-2.28,23.78,23.84-1.55c37.55-2.44,68.11-12.46,90.82-29.77,43.06-32.82,47.59-82.18,45.48-112.72l89.35,6.17,20.05,1.38,1.63-20.03,8.23-101.38,201.96,22.71,20.55,2.31,1.97-20.58,20.31-212.03,2.28-23.78-23.84,1.55c-37.55,2.44-68.11,12.46-90.82,29.77-42.42,32.34-47.44,80.72-45.57,111.35l-52.18-6.37c-1.46-17.6-8.09-34.94-19.29-50.23,28.91-22.9,48.07-55.51,53.97-91.93,5.93-36.66-2.09-73.9-22.59-104.86l-15.32-23.14c4.56-29.01,15.12-96.4,15.55-101.01l-16.31-1.5-16.29-1.64c-.4,3.51-5.61,37.18-10.83,70.56l-36.48-60.33-28.03,16.94,32.08,53.06-52-22.86-13.18,29.98,69.35,30.49-41.63,32.92,20.31,25.69,55.26-43.69,2.62,1.15,7.59,11.47c32.73,49.43,21.82,116.81-24.83,153.4l-2.35,1.84c-11.77-8.95-25.18-15.6-39.35-19.36l-1.84-.49-1.9-.14-35.79-2.59-170.48-99.59-16.14-9.43-10.75,15.3-30.37,43.21-12.3,17.5-8.49-1.53-18.11-3.26-5.05,17.69-15.87,55.57-6.77,23.7,24.55,2.15,8.02.7,4.69,18.99,12.22,49.45,4.69,18.97,19.14-3.93,90.04-18.47c-6.71,3.42-13.19,7.35-19.38,11.82-30.1,21.78-50.78,53.73-58.18,90.13l-5.53,27.19c-23.74,17.29-78.84,57.48-82.42,60.43ZM104.99,2167.01c4.55,11.31,11.1,21.79,19.4,30.86,11.07,12.09,24.92,21.34,40.15,26.97l-.41,3.48-131.48-10.62-10.7-.86c18.85-27.63,49.29-46.24,83.03-49.83ZM10.72,2450.01c15.47-161.5,19.44-203,20.31-212.03l151,12.2,4.79-40.4c-37.06-5.98-66.48-37-68.77-76.21l.5-18.77-162.7,33.38-12.22-49.45,140.42-20.1-171.11-14.98,15.87-55.57,178.07,32.06-137.04-56.36L.22,1940.57l174.56,101.97,40.5,2.94c38.2,10.12,69.7,46.47,66.74,85.87l-.27,3.59c-.05.64-.12,1.27-.19,1.91l96.75,11.82s-20.72-76.86,34-118.58c17.67-13.47,43.19-23.27,79.81-25.65-15.47,161.5-19.44,203-20.31,212.03l-219.35-24.66c-.89.75-1.81,1.47-2.73,2.18-.33.25-.65.49-.98.74l-9.67,118.98-114.56-7.91s20.73,76.86-34,118.58c-17.67,13.47-43.19,23.27-79.81,25.65Z"/>
      </g>
      <path class="cls-3" d="M1190.6,1205.2l-27.32-4.84c-36.57-6.47-73.88,1.04-105.19,21.04-6.43,4.12-12.47,8.71-18.11,13.69l50.23-76.98,10.68-16.37-15.93-11.32-41.52-29.51-15.94-11.33,2.29-7.72,7.01-23.63-24.53-2.4-57.52-5.63-18.31-1.79-3.61,18.04-1.69,8.45-20.79,5.02-51.34,12.39-18.18,4.39,2.85,18.48,30.07,195.14-10.72,34.25-.57,1.82-.22,1.89c-1.71,14.56-.44,29.48,3.56,43.71l-2.58,1.51c-51.15,29.97-117.83,15.39-151.81-33.2l-7.88-11.27-.11-2.86,60.92-35.37-16.44-28.32-45.9,26.65-2.91-75.7-32.73,1.26,2.18,56.76-37.59-49.31-26.05,19.85,42.74,56.07c-32.96-7.39-66.19-14.9-69.61-15.82l-4.45,15.76-4.59,15.72c4.45,1.3,71.01,16.21,99.67,22.61l15.9,22.74c21.28,30.43,52.98,51.56,89.26,59.5,36.05,7.88,73.41,2.03,105.32-16.46,10.11,16.03,23.81,28.56,39.64,36.37l-13.22,50.88c-27.8-12.99-74.66-26.07-120.3,1.52-24.44,14.77-44.97,39.52-61.02,73.56l-10.19,21.61,22.96,6.61,204.69,58.93,19.87,5.72,5.39-19.96,53-196.2,97.33,29.55,19.23,5.84,6.07-19.15,27.05-85.38c27.64,13.17,75.22,27.08,121.55-.93,24.44-14.77,44.97-39.52,61.02-73.56l10.19-21.61-22.96-6.61-89.28-25.7-13.59-12.59,61.45,8.29,4.38-32.46-69.88-9.43c28.53-18.09,57.32-36.3,60.42-38.03l-8-14.29-7.87-14.36c-4.06,2.24-61.67,38.75-86.46,54.49ZM1112.78,1233.71l-3.12,10.27-38.37,126.2-3.39-.89c.35-16.23-3.17-32.51-10.35-47.25-5.39-11.05-12.74-20.99-21.59-29.38,15.72-30.07,44.21-51.56,76.83-58.95ZM1280.66,1373.65c-58.89,35.6-122.79-11.89-122.79-11.89l-34.68,109.47-114.23-34.68c-.35.22-.7.43-1.05.64-1,.6-2.01,1.19-3.03,1.74l-57.56,213.1c-8.72-2.51-48.78-14.04-204.69-58.93,15.66-33.19,34.14-53.34,53.15-64.83,58.9-35.6,122.79,11.89,122.79,11.89l24.52-94.34c-.61-.17-1.23-.34-1.84-.53l-3.43-1.07c-37.74-11.71-59.99-54.35-55.39-93.6l12.13-38.75-30.79-199.8,51.34-12.39,2.13,148.16,35.53-177.41,57.52,5.63-48.86,164.66,70.23-123.25,41.52,29.51-90.76,139.09,17.64,6.43c35.64,16.52,53.7,55.28,45.65,91.94l39.34,10.37,44.07-144.94c8.72,2.51,48.78,14.04,204.69,58.93-15.66,33.19-34.14,53.34-53.15,64.83Z"/>
      <g>
        <path class="cls-7" d="M116.85,1458.1L-3.09,1551.76c-10.93-23.28-31.89-41.64-58.89-48.27l-30.36-7.46-47.52-219.93-54.18,10.58,43.89,178.92-95.14-166.28-60.2,34.78,118.05,159.15-115.3-123.13-50.93,37.78,175.64,147.46,3.08,40.22c1.86,24.29,13.5,45.83,31.03,60.68l-125.49,88.35s-42.86-149.47-191.96-72.26c120.3,162.18,144.38,194.65,148.36,200.02l276.79-208.24c3.85-2.41,7.5-5.12,10.94-8.09l277.04-202.59c-3.98-5.37-28.06-37.83-148.36-200.02-117.15,120.28,13.45,204.67,13.45,204.67ZM-104.28,1625.44c-13.81,10.24-33.3,7.35-43.55-6.46-8.62-11.63-7.9-27.26.77-38.04-2.3,5.13-1.84,11.32,1.75,16.16,5.29,7.13,15.36,8.63,22.49,3.34s8.62-15.36,3.33-22.49c-3.59-4.84-9.38-7.07-14.96-6.36,12.83-5.17,28-1.33,36.62,10.3,10.24,13.81,7.35,33.3-6.46,43.55ZM-41.83,1579.12c-13.81,10.24-33.3,7.35-43.55-6.46-8.62-11.63-7.9-27.26.77-38.04-2.3,5.13-1.84,11.32,1.75,16.16,5.29,7.13,15.36,8.62,22.49,3.34,7.13-5.29,8.62-15.36,3.33-22.49-3.59-4.84-9.38-7.07-14.96-6.36,12.83-5.17,28-1.33,36.62,10.3,10.24,13.81,7.35,33.3-6.46,43.55Z"/>
        <path class="cls-3" d="M96.52,1246.73c-38.21,39.23-55.32,79.26-50.83,118.97,5.2,46.03,38,78.44,55.33,92.57L-.09,1537.22c-3.73-5.97-8.08-11.45-12.92-16.41,21.66-20.46,37.5-46.49,45.65-75.69,11.21-40.16,6.92-82.72-12.07-119.83l-13.95-27.25c8.73-31.82,28.69-104.76,29.74-109.84l-37.62-7.94c-.86,3.76-10.5,39.25-20.11,74.39l-31.87-69.13-34.91,16.1,27.74,60.16-52.27-30.34-19.3,33.25,71.79,41.67-48.96,30.51,20.33,32.63,66.26-41.29,2.04,1.19,6.87,13.42c27.28,53.3,12.82,118.53-32.3,155.81-4.43-1.8-9.01-3.3-13.74-4.46l-24.53-6.03-48.24-223.27-73.32,14.32,29.99,122.26-65.95-115.27-77.89,45,24.45,32.96-6.4-6.83-67.59,50.14,181.87,152.69,1.67,21.83c-47.51,25.32-108.07,18.31-148.21-20.41l-10.85-10.46-.54-2.3,58.74-51.42-25.32-28.93-43.4,38-19.05-80.78-37.42,8.82,13.87,58.83-49.52-44-25.54,28.74,56.9,50.56c-36.42-1.01-73.19-2.08-77.03-2.34l-1.57,19.16-1.74,19.14c5.16.47,80.76,2.53,113.74,3.41l22.03,21.26c30.01,28.95,69.49,45.4,111.17,46.33,24.4.54,48.29-4.28,70.17-13.9,4.37,12.36,11.2,23.72,20.2,33.48l-105.66,74.39c-8.5-20.68-29.99-61.48-72.53-79.81-36.7-15.81-79.97-11.06-128.6,14.12l-10.03,5.19,160.85,216.86L-30.77,1672.05c3.97-2.51,7.82-5.36,11.46-8.48l284.55-208.07-160.85-216.86-7.88,8.09ZM238.28,1451.41L-30.95,1648.28l-.32.23-.3.26c-3.09,2.67-6.37,5.1-9.75,7.21l-.35.22-269.39,202.67-135.72-182.97c38.97-18,73.2-20.9,101.85-8.6,48.64,20.87,66.1,79.39,66.27,79.96l3.72,12.99,146.7-103.29-9.49-8.04c-16.22-13.73-26.04-32.93-27.66-54.07l-3.39-44.25-169.41-142.23,34.27-25.42,109.44,116.88,14.74-12.3-111.63-150.5,42.51-24.56,90.35,157.9,17.68-7.06-41.49-169.13,35.04-6.85,46.8,216.59,36.19,8.89c23.19,5.69,42.32,21.38,52.48,43.02l5.12,10.9,140.09-109.38-11.35-7.33c-.51-.33-51.32-33.73-57.28-86.49-3.51-31.04,9.2-63,37.77-95.11l135.72,182.97Z"/>
      </g>
    </g>
  </g>
  <g class="cls-8">
    <g class="cls-1">
      <path class="cls-7" d="M1889.59,1978.62l.27,272.88,780.85-.76-.27-272.88-780.85.76ZM2215.08,2004.36l63.82-.06,20.14,59.1h.21s.07-.05.07-.14l-.06-58.98,54.84-.05c0,3.51.1,97.92.1,106.84l-65.96.06-18-51.27c0-.09-.03-.14-.07-.14h-.14s-.07.05-.07.14c0,8.36.04,42.93.05,51.28l-54.85.05c0-7.12-.1-99.72-.1-106.84ZM1921.06,2004.65l84.9-.08c8.93,0,16.83.96,23.72,2.9,6.89,1.94,12.8,4.62,17.74,8.03,4.94,3.41,8.98,7.38,12.12,11.88,3.14,4.51,5.47,9.33,6.99,14.45,1.52,5.13,2.29,10.35,2.29,15.67,0,6.74-1.2,13.32-3.61,19.73-2.42,6.41-6.16,12.19-11.24,17.32-5.08,5.13-11.58,9.22-19.5,12.27-7.93,3.05-17.4,4.58-28.42,4.59l-84.9.08c0-6.08-.1-101.14-.1-106.84ZM1975.83,2181.2c.52,1.21,1.25,2.27,2.21,3.18.95.91,2.1,1.64,3.44,2.2,1.34.56,2.83.99,4.48,1.29,1.64.3,3.42.45,5.32.45,4.58,0,8.33-1.11,11.54-2.8,2.56-1.35,3.24-2.08,4.66-4.5l55.12-.18c-.95,6.4-3.03,14.51-6.27,20.13-3.24,5.62-7.73,10.6-13.47,14.93-5.75,4.33-12.88,7.73-21.39,10.2-8.51,2.47-18.56,3.71-30.15,3.73-6.83,0-13.14-.42-18.94-1.28-5.79-.86-11.13-2.11-16.02-3.75-4.89-1.64-9.26-3.62-13.1-5.95-3.85-2.33-7.25-4.96-10.19-7.9-2.94-2.94-5.39-6.16-7.34-9.65-1.95-3.5-3.4-7.24-4.36-11.21-.96-3.97-1.43-8.17-1.44-12.58,0-7.18,1.15-13.62,3.48-19.33,2.33-5.71,5.63-10.64,9.91-14.79,4.28-4.15,9.37-7.62,15.29-10.39,5.92-2.77,12.47-4.83,19.64-6.18,7.17-1.35,14.83-2.03,22.95-2.03,14.35-.01,26.54,1.71,36.58,5.15,10.03,3.45,17.97,8.41,23.81,14.89,5.84,6.48,10.98,19.7,10.99,29.48l-55.12.18c-.81-1.53-.43-.76-1.3-2.19-.87-1.43-2.03-2.57-3.5-3.43-1.47-.86-3.18-1.51-5.12-1.94-1.95-.43-4.04-.64-6.29-.64-3.11,0-5.88.42-8.3,1.24-2.42.83-4.34,2.04-5.77,3.64-1.43,1.6-2.14,3.61-2.13,6.03,0,1.47.26,2.81.78,4.02ZM2093.29,2004.48l88.46-.09c1.71,5.89,28.59,100.83,30.3,106.81l-63.53.06-2.44-13.96c-.38,0-19.09.02-19.37.02l-2.41,13.96-60.83.06c1.7-5.99,28.2-100.98,29.81-106.87ZM2192.58,2225.73l-53.82.05c0-5.27-.03-26.37-.03-31.64,0-.08-.02-.15-.06-.19-.04-.04-.11-.06-.19-.06l-17.77.02c-.09,0-.13.02-.13.07v.19c0,5.28.03,26.37.03,31.64l-53.82.05c0-5.19-.09-94.07-.09-97.27l53.82-.05c0,4.15.03,33.63.04,37.87v.19s.04.07.13.06l17.77-.02c.09,0,.15-.02.19-.07.04-.04.06-.11.06-.19,0-6.31-.03-31.56-.04-37.87l53.82-.05c0,5.45.09,89.23.09,97.27ZM2251.59,2225.68l-53.82.05c0-6.23-.09-93.55-.09-97.27l53.82-.05c0,8.39.09,91.99.09,97.27ZM2358.32,2225.57l-75.09.07c-3.21-10.8-25.85-86.43-29.14-97.24l57.84-.06c.52,3.37,9.13,57.05,9.66,60.43h.13s.13,0,.13,0c.43-2.85,9.11-57.59,9.54-60.44l56.03-.05c-1.9,6.49-27.1,90.81-29.08,97.3ZM2499.94,2225.43l-109.85.11c0-5.1-.09-93.89-.09-97.27l109.07-.11.03,32.68-56.41.05h-.13s0,7.13,0,7.13v.26s.13,0,.13,0l54.47-.05.02,18.29-54.47.05c-.09,0-.13.02-.13.06v.19s0,7.26,0,7.26h.13s57.19-.06,57.19-.06l.03,31.38ZM2493.74,2100.11c-6.33,4.77-14.19,8.52-23.58,11.24-9.39,2.73-20.46,4.09-33.23,4.11-7.53,0-14.49-.46-20.87-1.41-6.39-.95-12.27-2.32-17.66-4.13-5.39-1.8-10.2-3.99-14.44-6.56-4.24-2.57-7.99-5.47-11.23-8.71-3.24-3.24-5.94-6.78-8.09-10.64-2.15-3.86-3.75-7.98-4.8-12.36-1.05-4.38-1.58-9-1.59-13.86,0-7.91,1.27-15.01,3.84-21.3,2.57-6.29,6.21-11.73,10.92-16.31,4.71-4.58,10.33-8.4,16.86-11.45,6.52-3.06,13.74-5.32,21.65-6.81,7.91-1.48,16.34-2.23,25.3-2.24,15.82-.02,29.26,1.88,40.32,5.68,11.06,3.8,19.81,9.27,26.25,16.41,6.44,7.14,12.1,21.71,12.11,32.49l-60.75.2c-.89-1.69-.48-.84-1.43-2.41-.96-1.57-2.24-2.83-3.86-3.78-1.62-.95-3.5-1.66-5.65-2.14-2.14-.47-4.46-.71-6.93-.71-3.43,0-6.48.46-9.15,1.37-2.67.91-4.79,2.24-6.36,4.01-1.57,1.77-2.35,3.98-2.35,6.65,0,1.62.29,3.1.86,4.43.57,1.34,1.38,2.5,2.43,3.5,1.05,1,2.31,1.81,3.79,2.43,1.48.62,3.12,1.09,4.93,1.43,1.81.33,3.76.5,5.86.49,5.05,0,9.18-1.22,12.72-3.09,2.83-1.49,3.57-2.29,5.14-4.97l60.75-.2c-1.04,7.05-3.34,16-6.91,22.19-3.57,6.2-8.52,11.68-14.85,16.45ZM2635.26,2210.19c-3.5,4.2-8.38,7.7-14.64,10.52-6.27,2.82-13.53,4.94-21.78,6.38-8.26,1.43-17.14,2.16-26.65,2.17-10.55.01-20.15-.76-28.79-2.31-8.65-1.55-16-3.94-22.05-7.18-6.06-3.24-10.58-7.4-13.56-12.5-2.99-5.1-4.18-11.19-3.58-18.28h55.19c.12,1.05.44,2.24.78,2.67,1.25,1.62,2.79,3.02,5.13,3.89,2.34.86,4.93,1.29,7.78,1.29,1.73,0,3.31-.13,4.73-.39,1.43-.26,2.7-.65,3.82-1.17,1.12-.52,1.99-1.19,2.59-2.01.6-.82.91-1.75.91-2.79,0-2.08-1.06-3.41-3.18-4.02-2.12-.6-5.21-.9-9.27-.9h-.58c-.22,0-.43,0-.65,0h-.71c-.26,0-.5,0-.71,0h-.58c-12.8.01-23.43-.65-31.91-1.98-8.48-1.33-15.18-3.21-20.11-5.62-4.93-2.42-8.43-5.29-10.51-8.61-2.08-3.33-3.12-7.06-3.12-11.21,0-4.41,1.16-8.41,3.49-12,2.33-3.59,5.64-6.75,9.91-9.48,4.28-2.73,9.29-5,15.04-6.82,5.75-1.82,12.06-3.21,18.93-4.17,6.87-.96,14.07-1.44,21.59-1.45,10.63-.01,20.17.93,28.6,2.83,8.43,1.89,15.52,4.61,21.28,8.15,5.75,3.54,9.88,7.77,12.4,12.7,2.51,4.93,3.12,10.46,1.83,16.6l-52.9-.49c-.23-1.68-.26-2.21-.8-3.16-.94-1.66-2.66-2.76-4.87-3.5-2.2-.73-4.69-1.1-7.46-1.09-1.73,0-3.29.16-4.67.46-1.38.31-2.57.74-3.56,1.3-.99.56-1.77,1.23-2.33,2.01-.56.78-.84,1.6-.84,2.47,0,1.04.35,1.88,1.04,2.53.69.65,1.75,1.1,3.18,1.36,1.43.26,3.31.39,5.64.38h.58c.22,0,.43,0,.65,0h.65c.21,0,.43,0,.65,0h.71c12.97-.01,23.82.54,32.55,1.65,8.73,1.12,15.69,2.86,20.88,5.23,5.19,2.37,8.91,5.4,11.16,9.07,2.25,3.67,3.38,8.02,3.38,13.03,0,5.45-1.74,10.27-5.24,14.47ZM2640.41,2110.79l-120.66.12c0-5.6-.1-103.14-.1-106.84l119.8-.12.03,35.9-61.97.06h-.14s0,7.83,0,7.83v.29s.14,0,.14,0l59.83-.06.02,20.09-59.83.06c-.1,0-.14.02-.14.07v.21s0,7.98,0,7.98h.14s62.82-.06,62.82-.06l.03,34.47Z"/>
      <path class="cls-7" d="M1889.84,1978.62l.27,272.88,780.85-.76-.27-272.88-780.85.76ZM2215.33,2004.36l63.82-.06,20.14,59.1h.21s.07-.05.07-.14l-.06-58.98,54.84-.05c0,3.51.1,97.92.1,106.84l-65.96.06-18-51.27c0-.09-.03-.14-.07-.14h-.14s-.07.05-.07.14c0,8.36.04,42.93.05,51.28l-54.85.05c0-7.12-.1-99.72-.1-106.84ZM1921.31,2004.65l84.9-.08c8.93,0,16.83.96,23.72,2.9,6.89,1.94,12.8,4.62,17.74,8.03,4.94,3.41,8.98,7.38,12.12,11.88,3.14,4.51,5.47,9.33,6.99,14.45,1.52,5.13,2.29,10.35,2.29,15.67,0,6.74-1.2,13.32-3.61,19.73-2.42,6.41-6.16,12.19-11.24,17.32-5.08,5.13-11.58,9.22-19.5,12.27-7.93,3.05-17.4,4.58-28.42,4.59l-84.9.08c0-6.08-.1-101.14-.1-106.84ZM1976.08,2181.2c.52,1.21,1.25,2.27,2.21,3.18.95.91,2.1,1.64,3.44,2.2,1.34.56,2.83.99,4.48,1.29,1.64.3,3.42.45,5.32.45,4.58,0,8.33-1.11,11.54-2.8,2.56-1.35,3.24-2.08,4.66-4.5l55.12-.18c-.95,6.4-3.03,14.51-6.27,20.13-3.24,5.62-7.73,10.6-13.47,14.93-5.75,4.33-12.88,7.73-21.39,10.2-8.51,2.47-18.56,3.71-30.15,3.73-6.83,0-13.14-.42-18.94-1.28-5.79-.86-11.13-2.11-16.02-3.75-4.89-1.64-9.26-3.62-13.1-5.95-3.85-2.33-7.25-4.96-10.19-7.9-2.94-2.94-5.39-6.16-7.34-9.65-1.95-3.5-3.4-7.24-4.36-11.21-.96-3.97-1.43-8.17-1.44-12.58,0-7.18,1.15-13.62,3.48-19.33,2.33-5.71,5.63-10.64,9.91-14.79,4.28-4.15,9.37-7.62,15.29-10.39,5.92-2.77,12.47-4.83,19.64-6.18,7.17-1.35,14.83-2.03,22.95-2.03,14.35-.01,26.54,1.71,36.58,5.15,10.03,3.45,17.97,8.41,23.81,14.89,5.84,6.48,10.98,19.7,10.99,29.48l-55.12.18c-.81-1.53-.43-.76-1.3-2.19-.87-1.43-2.03-2.57-3.5-3.43-1.47-.86-3.18-1.51-5.12-1.94-1.95-.43-4.04-.64-6.29-.64-3.11,0-5.88.42-8.3,1.24-2.42.83-4.34,2.04-5.77,3.64-1.43,1.6-2.14,3.61-2.13,6.03,0,1.47.26,2.81.78,4.02ZM2093.54,2004.48l88.46-.09c1.71,5.89,28.59,100.83,30.3,106.81l-63.53.06-2.44-13.96c-.38,0-19.09.02-19.37.02l-2.41,13.96-60.83.06c1.7-5.99,28.2-100.98,29.81-106.87ZM2192.83,2225.73l-53.82.05c0-5.27-.03-26.37-.03-31.64,0-.08-.02-.15-.06-.19-.04-.04-.11-.06-.19-.06l-17.77.02c-.09,0-.13.02-.13.07v.19c0,5.28.03,26.37.03,31.64l-53.82.05c0-5.19-.09-94.07-.09-97.27l53.82-.05c0,4.15.03,33.63.04,37.87v.19s.04.07.13.06l17.77-.02c.09,0,.15-.02.19-.07.04-.04.06-.11.06-.19,0-6.31-.03-31.56-.04-37.87l53.82-.05c0,5.45.09,89.23.09,97.27ZM2251.84,2225.68l-53.82.05c0-6.23-.09-93.55-.09-97.27l53.82-.05c0,8.39.09,91.99.09,97.27ZM2358.57,2225.57l-75.09.07c-3.21-10.8-25.85-86.43-29.14-97.24l57.84-.06c.52,3.37,9.13,57.05,9.66,60.43h.13s.13,0,.13,0c.43-2.85,9.11-57.59,9.54-60.44l56.03-.05c-1.9,6.49-27.1,90.81-29.08,97.3ZM2500.19,2225.43l-109.85.11c0-5.1-.09-93.89-.09-97.27l109.07-.11.03,32.68-56.41.05h-.13s0,7.13,0,7.13v.26s.13,0,.13,0l54.47-.05.02,18.29-54.47.05c-.09,0-.13.02-.13.06v.19s0,7.26,0,7.26h.13s57.19-.06,57.19-.06l.03,31.38ZM2493.99,2100.11c-6.33,4.77-14.19,8.52-23.58,11.24-9.39,2.73-20.46,4.09-33.23,4.11-7.53,0-14.49-.46-20.87-1.41-6.39-.95-12.27-2.32-17.66-4.13-5.39-1.8-10.2-3.99-14.44-6.56-4.24-2.57-7.99-5.47-11.23-8.71-3.24-3.24-5.94-6.78-8.09-10.64-2.15-3.86-3.75-7.98-4.8-12.36-1.05-4.38-1.58-9-1.59-13.86,0-7.91,1.27-15.01,3.84-21.3,2.57-6.29,6.21-11.73,10.92-16.31,4.71-4.58,10.33-8.4,16.86-11.45,6.52-3.06,13.74-5.32,21.65-6.81,7.91-1.48,16.34-2.23,25.3-2.24,15.82-.02,29.26,1.88,40.32,5.68,11.06,3.8,19.81,9.27,26.25,16.41,6.44,7.14,12.1,21.71,12.11,32.49l-60.75.2c-.89-1.69-.48-.84-1.43-2.41-.96-1.57-2.24-2.83-3.86-3.78-1.62-.95-3.5-1.66-5.65-2.14-2.14-.47-4.46-.71-6.93-.71-3.43,0-6.48.46-9.15,1.37-2.67.91-4.79,2.24-6.36,4.01-1.57,1.77-2.35,3.98-2.35,6.65,0,1.62.29,3.1.86,4.43.57,1.34,1.38,2.5,2.43,3.5,1.05,1,2.31,1.81,3.79,2.43,1.48.62,3.12,1.09,4.93,1.43,1.81.33,3.76.5,5.86.49,5.05,0,9.18-1.22,12.72-3.09,2.83-1.49,3.57-2.29,5.14-4.97l60.75-.2c-1.04,7.05-3.34,16-6.91,22.19-3.57,6.2-8.52,11.68-14.85,16.45ZM2635.51,2210.19c-3.5,4.2-8.38,7.7-14.64,10.52-6.27,2.82-13.53,4.94-21.78,6.38-8.26,1.43-17.14,2.16-26.65,2.17-10.55.01-20.15-.76-28.79-2.31-8.65-1.55-16-3.94-22.05-7.18-6.06-3.24-10.58-7.4-13.56-12.5-2.99-5.1-4.18-11.19-3.58-18.28h55.19c.12,1.05.44,2.24.78,2.67,1.25,1.62,2.79,3.02,5.13,3.89,2.34.86,4.93,1.29,7.78,1.29,1.73,0,3.31-.13,4.73-.39,1.43-.26,2.7-.65,3.82-1.17,1.12-.52,1.99-1.19,2.59-2.01.6-.82.91-1.75.91-2.79,0-2.08-1.06-3.41-3.18-4.02-2.12-.6-5.21-.9-9.27-.9h-.58c-.22,0-.43,0-.65,0h-.71c-.26,0-.5,0-.71,0h-.58c-12.8.01-23.43-.65-31.91-1.98-8.48-1.33-15.18-3.21-20.11-5.62-4.93-2.42-8.43-5.29-10.51-8.61-2.08-3.33-3.12-7.06-3.12-11.21,0-4.41,1.16-8.41,3.49-12,2.33-3.59,5.64-6.75,9.91-9.48,4.28-2.73,9.29-5,15.04-6.82,5.75-1.82,12.06-3.21,18.93-4.17,6.87-.96,14.07-1.44,21.59-1.45,10.63-.01,20.17.93,28.6,2.83,8.43,1.89,15.52,4.61,21.28,8.15,5.75,3.54,9.88,7.77,12.4,12.7,2.51,4.93,3.12,10.46,1.83,16.6l-52.9-.49c-.23-1.68-.26-2.21-.8-3.16-.94-1.66-2.66-2.76-4.87-3.5-2.2-.73-4.69-1.1-7.46-1.09-1.73,0-3.29.16-4.67.46-1.38.31-2.57.74-3.56,1.3-.99.56-1.77,1.23-2.33,2.01-.56.78-.84,1.6-.84,2.47,0,1.04.35,1.88,1.04,2.53.69.65,1.75,1.1,3.18,1.36,1.43.26,3.31.39,5.64.38h.58c.22,0,.43,0,.65,0h.65c.21,0,.43,0,.65,0h.71c12.97-.01,23.82.54,32.55,1.65,8.73,1.12,15.69,2.86,20.88,5.23,5.19,2.37,8.91,5.4,11.16,9.07,2.25,3.67,3.38,8.02,3.38,13.03,0,5.45-1.74,10.27-5.24,14.47ZM2640.66,2110.79l-120.66.12c0-5.6-.1-103.14-.1-106.84l119.8-.12.03,35.9-61.97.06h-.14s0,7.83,0,7.83v.29s.14,0,.14,0l59.83-.06.02,20.09-59.83.06c-.1,0-.14.02-.14.07v.21s0,7.98,0,7.98h.14s62.82-.06,62.82-.06l.03,34.47Z"/>
    </g>
  </g>
</svg>