<?xml version="1.0" standalone="no"?>
<!DOCTYPE svg PUBLIC "-//W3C//DTD SVG 20010904//EN"
 "http://www.w3.org/TR/2001/REC-SVG-20010904/DTD/svg10.dtd">
<svg version="1.0" xmlns="http://www.w3.org/2000/svg"
 width="170.000000pt" height="92.000000pt" viewBox="0 0 170.000000 92.000000"
 preserveAspectRatio="xMidYMid meet">
<metadata>
Created by potrace 1.10, written by Peter Selinger 2001-2011
</metadata>
<g transform="translate(0.000000,92.000000) scale(0.100000,-0.100000)"
fill="#000000" stroke="none">
<path d="M753 913 c-28 -5 -28 -6 -3 -167 11 -71 20 -138 20 -150 0 -36 -44
52 -80 158 -17 53 -36 96 -41 96 -20 0 -69 -31 -69 -43 0 -6 11 -93 24 -192
13 -99 27 -210 31 -247 l7 -68 27 14 c53 28 55 36 31 139 -29 126 -24 146 19
66 45 -86 91 -159 101 -159 10 0 73 27 81 34 3 4 -7 55 -22 116 -16 60 -36
177 -46 259 -18 165 -14 157 -80 144z"/>
<path d="M911 901 c-30 -30 -34 -76 -17 -186 21 -137 35 -200 50 -221 17 -22
85 -23 171 0 91 24 106 50 75 131 -8 22 -15 26 -42 23 -32 -3 -33 -5 -30 -42
4 -43 -7 -56 -50 -56 -20 0 -31 8 -42 28 -23 45 -48 146 -44 183 3 32 6 34 41
37 35 3 39 0 50 -27 10 -27 16 -31 49 -31 37 0 38 1 32 28 -13 60 -49 117 -84
134 -49 25 -134 24 -159 -1z"/>
<path d="M1160 884 c0 -24 100 -310 116 -332 4 -6 287 -2 293 3 2 3 -7 13 -20
24 -18 14 -47 21 -114 26 -89 7 -115 16 -115 40 0 9 16 9 66 3 36 -5 69 -7 72
-4 13 13 -34 45 -81 56 -82 19 -83 19 -95 45 -14 31 0 33 56 9 92 -39 90 -39
57 -4 -16 18 -48 44 -69 57 -46 29 -166 85 -166 77z"/>
<path d="M372 783 c-32 -27 -33 -31 -47 -158 -9 -71 -25 -184 -37 -250 -12
-66 -22 -149 -22 -185 l-1 -64 32 -7 c17 -3 36 -3 42 0 5 4 11 45 13 91 3 82
4 85 31 98 15 7 39 14 54 15 24 2 28 -4 54 -73 15 -41 33 -74 39 -72 20 4 88
53 94 67 2 7 -11 46 -31 87 -63 132 -121 288 -144 384 -12 52 -27 94 -33 94
-7 0 -26 -12 -44 -27z m37 -275 c12 -34 21 -65 21 -70 0 -8 -60 -42 -65 -36
-4 4 16 168 20 168 2 0 13 -28 24 -62z"/>
<path d="M148 522 c-32 -34 -50 -65 -63 -107 -10 -33 -27 -89 -37 -125 -11
-36 -27 -84 -35 -108 -21 -56 -12 -64 79 -70 63 -4 77 -1 99 17 38 30 52 99
53 273 1 122 -2 150 -14 158 -25 16 -36 12 -82 -38z m17 -83 c4 -5 4 -47 0
-91 -6 -66 -12 -86 -31 -105 -30 -30 -56 -31 -50 0 2 12 10 56 17 97 7 41 16
83 21 93 10 19 33 23 43 6z"/>
<path d="M1232 483 c-25 -3 -32 -8 -28 -21 2 -9 26 -99 52 -200 l48 -184 46 7
c25 4 65 11 88 17 42 10 44 12 38 42 -9 45 -18 49 -77 37 -48 -10 -55 -10 -66
6 -21 27 -15 41 20 48 67 14 66 12 54 51 -11 36 -12 36 -54 30 -46 -6 -63 8
-63 53 0 18 6 21 45 21 52 0 61 11 48 61 -9 33 -11 34 -64 35 -30 1 -69 -1
-87 -3z"/>
<path d="M1463 479 c-42 -12 -49 -40 -27 -104 22 -67 27 -72 112 -111 56 -26
73 -38 70 -51 -4 -23 -41 -28 -58 -8 -14 17 -38 19 -58 6 -11 -7 -10 -16 7
-49 25 -49 55 -60 112 -43 125 38 98 148 -50 201 -64 24 -90 52 -78 84 11 29
46 18 64 -19 13 -27 23 -35 43 -35 40 0 41 8 15 61 -34 66 -84 88 -152 68z"/>
<path d="M1144 368 c3 -40 8 -113 11 -163 l5 -90 -30 58 c-17 32 -47 97 -66
145 -19 48 -40 92 -47 99 -16 14 -57 -1 -57 -22 0 -8 37 -88 83 -178 45 -90
87 -174 92 -187 7 -19 19 -26 44 -28 39 -4 53 11 45 48 -2 14 -9 103 -13 199
-9 180 -12 190 -55 191 -16 0 -18 -6 -12 -72z"/>
<path d="M900 345 c-6 -8 -9 -18 -7 -23 3 -4 13 -50 21 -102 25 -146 22 -140
57 -140 27 0 31 3 27 23 -3 12 -16 75 -29 139 -19 92 -28 118 -40 118 -9 0
-22 -7 -29 -15z"/>
<path d="M833 303 c-19 -12 -20 -18 -11 -50 7 -27 7 -38 -4 -44 -21 -13 -29
-11 -35 11 -5 20 -28 27 -36 13 -3 -6 14 -141 22 -180 1 -2 11 -3 22 -3 19 0
21 4 15 44 -5 33 -3 45 8 49 19 8 33 -10 41 -55 6 -34 11 -38 36 -38 16 0 29
3 29 6 0 3 -9 40 -19 82 -11 43 -23 98 -26 125 -8 55 -13 60 -42 40z"/>
<path d="M628 192 c-43 -41 -51 -55 -55 -95 -5 -44 -4 -47 23 -57 15 -6 51
-10 78 -8 l51 3 3 43 c3 33 0 42 -13 42 -9 0 -21 -14 -27 -31 -21 -61 -76 -12
-60 54 6 24 42 43 52 27 13 -21 53 7 46 33 -3 12 -6 25 -6 30 0 22 -48 1 -92
-41z"/>
</g>
</svg>
