<?xml version="1.0" encoding="UTF-8"?>
<svg id="Layer_1" data-name="Layer 1" xmlns="http://www.w3.org/2000/svg" viewBox="0 0 2000 2000">
  <defs>
    <style>
      .cls-1 {
        fill: #059948;
      }
    </style>
  </defs>
  <path class="cls-1" d="M1414.49,1033.17l-262.23,6.49c8.77-43.46-1.39-90.4-31.96-127.31l-34.37-41.5,160.05-353.28-85.88-40.99-122.97,292.78,39.04-327.91-119.06-13.66v341.57l-33.18-288.87h-109.3l91.74,384.51-37.04,58.85c-22.37,35.54-28.38,77.31-19.34,115.87l-264.46-6.54s94.15-250.95-191.56-297.16v429.26l597.05-4.06c7.8.62,15.64.62,23.45.04l591.59,4.03v-429.26c-285.71,46.22-191.56,297.16-191.56,297.16ZM936.5,1037.76c-29.63,0-53.66-24.02-53.66-53.66s24.02-53.66,53.66-53.66,53.66,24.02,53.66,53.66-24.02,53.66-53.66,53.66ZM1070.53,1037.76c-29.64,0-53.66-24.02-53.66-53.66s24.02-53.66,53.66-53.66,53.66,24.02,53.66,53.66-24.02,53.66-53.66,53.66Z"/>
  <circle class="cls-1" cx="936.5" cy="956.39" r="27.71"/>
  <circle class="cls-1" cx="1070.53" cy="956.4" r="27.71"/>
  <g>
    <path d="M553.63,1270.7c0-3.74-.9-7.17-2.69-10.29-1.8-3.12-4.33-5.57-7.6-7.37-3.28-1.79-7.33-2.69-12.17-2.69h-61.37v40.24c33.3.16,33.3.31,33.3.47h28.54c3.43,0,6.51-.54,9.24-1.64,2.73-1.09,5.03-2.57,6.9-4.45,1.87-1.87,3.31-4.05,4.33-6.55,1.01-2.49,1.52-5.07,1.52-7.72Z"/>
    <path d="M776.82,1319.13c.15,0,.24-.08.24-.23-1.25-7.64-13.07-42.55-13.07-42.55-1.25,7.49-11.89,34.91-13.13,42.55v.23h25.97Z"/>
    <path d="M1622.61,716.54l-19.21,3.11c-93.19,15.08-157.97,52.93-192.55,112.52-40.07,69.07-27.93,147.61-18.46,184.98l-221.05,5.47c.96-12.1.57-24.15-1.04-36,51-6.08,99.65-25.85,140.92-57.91,56.76-44.09,94.53-107.41,106.34-178.3l8.67-52.05c44.78-35.11,147.3-115.57,153.97-121.53l-44.14-49.43.23-.2c-5.05,4.32-54.85,43.55-104.23,82.35l26.86-128.43-64.86-13.57-23.38,111.77-41.21-95.68-60.86,26.21,56.59,131.41-99.11-8.04-5.35,66.05,134.14,10.88,1.61,3.73-4.27,25.63c-16.97,101.8-104.04,177.22-204.73,182.53-4.27-7.04-9.08-13.81-14.43-20.26l-27.77-33.53,162.48-358.65-116.22-55.47-84.03,200.07,27.06-227.33-154.05-17.68v70.72l-1.84-16.01h-145.06l94.99,398.15-20.11,31.95c-91.8-13.71-168.41-85.65-184.22-180.47l-4.27-25.63,1.61-3.73,134.14-10.88-5.35-66.05-99.11,8.04,56.59-131.41-60.86-26.21-41.21,95.68-23.38-111.77-64.86,13.57,26.86,128.43c-49.38-38.79-99.18-78.02-104.23-82.35l.23.2-44.14,49.43c6.66,5.95,109.19,86.42,153.96,121.52l8.68,52.05c11.82,70.89,49.58,134.21,106.34,178.3,33.23,25.81,71.24,43.68,111.42,52.84-6.64,21.6-8.85,44.33-6.4,67.07l-222.68-5.51c9.47-37.37,21.61-115.91-18.46-184.98-34.57-59.58-99.35-97.44-192.54-112.52l-19.21-3.11v874.25h1245.22v-874.25ZM1031.13,1280.06h.35c.08,0,.12-.08.12-.23v-96.86h90.07v175.47h-108.32l-29.48-84.22c0-.15-.04-.23-.12-.23h-.23c-.08,0-.12.08-.12.23v84.22h-90.07v-175.47h104.81l32.99,97.09ZM410.52,755.9c72.44,15.1,122.8,46.23,149.85,92.69,45.91,78.85,9.99,177.79,9.63,178.75l-8.18,21.81,309.18,7.65-4.89-20.87c-8.36-35.66-2.24-72.33,17.23-103.27l40.75-64.74-88.48-370.88h73.55l31.49,274.2,33.03-1.89v-322.99l84.08,9.65-37.07,311.39,31.73,8.37,116.24-276.75,55.54,26.51-157.62,347.92,40.98,49.47c26.25,31.69,36.63,73.05,28.48,113.46l-4.11,20.35,282.99-7,23.2-.6-8.09-21.76c-.37-.99-36.29-99.93,9.62-178.78,27.05-46.46,77.41-77.59,149.85-92.69v392.68l-575.59-3.92-.67.05c-7.01.53-14.04.51-20.91-.03l-.71-.06-581.08,3.95v-392.68ZM653.06,1270c0,11.08-1.99,21.87-5.97,32.4-3.98,10.53-10.14,20-18.48,28.43-8.35,8.42-19.03,15.13-32.05,20.12-13.02,4.99-28.58,7.49-46.67,7.49h-139.44v-175.47h139.44c14.66,0,27.64,1.6,38.95,4.8,11.31,3.2,21.02,7.6,29.13,13.22,8.11,5.62,14.74,12.13,19.89,19.54,5.15,7.41,8.97,15.32,11.46,23.75,2.49,8.42,3.74,17,3.74,25.74ZM500.12,1473.01c.85,1.99,2.06,3.73,3.62,5.22,1.56,1.49,3.44,2.7,5.64,3.62,2.2.93,4.65,1.63,7.35,2.13,2.7.5,5.61.74,8.73.74,7.52,0,13.69-1.8,18.96-4.58,4.21-2.22,5.33-3.4,7.67-7.39l90.52-.21c-1.56,10.51-5,23.83-10.33,33.06-5.32,9.23-12.71,17.4-22.15,24.49-9.45,7.1-21.16,12.67-35.14,16.72-13.99,4.05-30.49,6.07-49.52,6.07-11.22,0-21.59-.71-31.1-2.13-9.51-1.42-18.28-3.48-26.3-6.18-8.02-2.7-15.2-5.96-21.51-9.8-6.32-3.83-11.89-8.16-16.72-12.99-4.83-4.83-8.84-10.12-12.03-15.87-3.2-5.75-5.57-11.89-7.14-18.42-1.56-6.53-2.34-13.42-2.34-20.66,0-11.78,1.92-22.36,5.75-31.73,3.83-9.37,9.26-17.47,16.29-24.28,7.03-6.82,15.41-12.49,25.13-17.04,9.73-4.54,20.48-7.91,32.27-10.12,11.78-2.2,24.35-3.3,37.7-3.3,23.57,0,43.59,2.84,60.06,8.52,16.47,5.68,29.5,13.84,39.08,24.49,9.58,10.65,18,32.37,18,48.43l-90.52.21c-1.33-2.52-.71-1.25-2.13-3.6-1.42-2.34-3.34-4.22-5.75-5.64-2.42-1.42-5.22-2.48-8.41-3.19-3.19-.71-6.64-1.07-10.33-1.07-5.11,0-9.66.68-13.63,2.02-3.98,1.35-7.13,3.34-9.48,5.96-2.34,2.63-3.51,5.93-3.51,9.9,0,2.42.43,4.62,1.28,6.6ZM693.3,1182.97h145.29c2.81,9.67,46.79,165.64,49.6,175.47h-104.34l-3.98-22.93h-31.82l-3.98,22.93h-99.9c2.81-9.83,46.48-165.79,49.13-175.47ZM856.02,1546.49h-88.39v-51.97c0-.14-.04-.25-.11-.32-.07-.07-.18-.11-.32-.11h-29.18c-.14,0-.21.04-.21.11v52.29h-88.39v-159.74h88.39v62.51c0,.07.07.11.21.11h29.18c.14,0,.25-.03.32-.11.07-.07.11-.18.11-.32v-62.19h88.39v159.74ZM952.93,1546.49h-88.39v-159.74h88.39v159.74ZM1128.22,1546.49h-123.32c-5.25-17.75-42.32-141.99-47.71-159.74h94.99c.85,5.54,14.91,93.72,15.76,99.25h.43c.71-4.69,15.05-94.57,15.76-99.25h92.01c-3.13,10.65-44.66,149.09-47.92,159.74ZM1360.8,1546.49h-180.4v-159.74h179.12v53.67h-92.86v12.14h89.67v30.03h-89.46c-.14,0-.21.04-.21.11v12.25h94.14v51.54ZM1583.05,1521.68c-5.75,6.89-13.77,12.64-24.07,17.25-10.3,4.61-22.22,8.09-35.78,10.44-13.56,2.34-28.15,3.51-43.77,3.51-17.33,0-33.09-1.28-47.28-3.83-14.2-2.56-26.27-6.5-36.21-11.82-9.94-5.32-17.36-12.17-22.26-20.55-4.9-8.38-6.85-18.39-5.86-30.03l90.63.1c.2,1.7.72,3.66,1.27,4.37,2.04,2.65,4.58,4.97,8.41,6.39,3.83,1.42,8.09,2.13,12.78,2.13,2.84,0,5.43-.21,7.77-.64,2.34-.43,4.44-1.07,6.28-1.92,1.84-.85,3.27-1.95,4.26-3.3.99-1.35,1.49-2.88,1.49-4.58,0-3.41-1.74-5.61-5.22-6.6-3.48-.99-8.56-1.49-15.23-1.49h-5.32c-21.02,0-38.48-1.1-52.4-3.3-13.92-2.2-24.92-5.29-33.01-9.27-8.09-3.97-13.84-8.7-17.25-14.16-3.41-5.46-5.11-11.61-5.11-18.42,0-7.24,1.92-13.81,5.75-19.7,3.83-5.89,9.27-11.08,16.29-15.55,7.03-4.47,15.26-8.2,24.71-11.18,9.44-2.98,19.81-5.25,31.1-6.82,11.29-1.56,23.11-2.34,35.46-2.34,17.46,0,33.12,1.56,46.96,4.69,13.84,3.13,25.49,7.6,34.93,13.42,9.44,5.82,16.22,12.78,20.34,20.87,4.12,8.09,5.11,17.18,2.98,27.26l-86.87-.88c-.37-2.76-.42-3.63-1.31-5.19-1.54-2.73-4.37-4.54-7.99-5.75-3.62-1.2-7.7-1.81-12.25-1.81-2.84,0-5.4.25-7.67.75-2.27.5-4.23,1.21-5.86,2.13-1.63.93-2.91,2.02-3.83,3.3-.93,1.28-1.39,2.63-1.39,4.05,0,1.7.57,3.09,1.7,4.15,1.13,1.07,2.88,1.81,5.22,2.24,2.34.43,5.43.64,9.27.64h5.32c21.3,0,39.12.93,53.46,2.77,14.34,1.85,25.77,4.72,34.29,8.63,8.52,3.91,14.62,8.88,18.32,14.91,3.69,6.04,5.54,13.17,5.54,21.41,0,8.95-2.88,16.86-8.63,23.75ZM1591.68,1358.43h-198.16v-175.47h196.76v58.96h-102v13.34h98.49v32.99h-98.26c-.16,0-.23.04-.23.12v13.45h103.41v56.62ZM1323.69,1185.01c18.15,6.26,32.51,15.26,43.08,27,10.56,11.74,19.84,35.67,19.84,53.38l-99.77.23c-1.46-2.77-.79-1.38-2.35-3.96-1.57-2.58-3.68-4.65-6.34-6.22-2.66-1.56-5.75-2.74-9.27-3.52-3.52-.78-7.32-1.17-11.39-1.17-5.64,0-10.64.74-15.03,2.23-4.38,1.49-7.86,3.68-10.45,6.57-2.58,2.9-3.87,6.54-3.87,10.92,0,2.66.47,5.09,1.41,7.28.94,2.19,2.27,4.11,3.99,5.75,1.72,1.64,3.79,2.97,6.22,3.99,2.42,1.02,5.13,1.8,8.1,2.35,2.97.55,6.18.82,9.63.82,8.29,0,15.09-1.99,20.89-5.05,4.64-2.44,5.87-3.75,8.45-8.15l99.77-.23c-1.72,11.58-5.52,26.26-11.39,36.43-5.87,10.18-14.01,19.17-24.42,27-10.41,7.83-23.32,13.97-38.74,18.43-15.42,4.46-33.61,6.69-54.58,6.69-12.37,0-23.79-.78-34.28-2.35-10.49-1.57-20.15-3.84-28.99-6.81-8.84-2.97-16.75-6.57-23.71-10.8-6.97-4.23-13.11-9-18.43-14.32-5.32-5.32-9.74-11.15-13.26-17.49-3.52-6.34-6.14-13.11-7.86-20.31-1.72-7.2-2.58-14.79-2.58-22.77,0-12.99,2.11-24.65,6.34-34.98,4.23-10.33,10.21-19.25,17.96-26.76,7.75-7.51,16.98-13.77,27.7-18.78,10.72-5.01,22.57-8.72,35.57-11.15.15-.03.31-.05.46-.07l87.57.6c7.01,1.4,13.61,3.12,19.73,5.23Z"/>
  </g>
</svg>