<?xml version="1.0" encoding="UTF-8"?>
<svg id="Layer_1" data-name="Layer 1" xmlns="http://www.w3.org/2000/svg" xmlns:xlink="http://www.w3.org/1999/xlink" viewBox="0 0 2000 2000">
  <defs>
    <style>
      .cls-1 {
        clip-path: url(#clippath-6);
      }

      .cls-2 {
        clip-path: url(#clippath-7);
      }

      .cls-3 {
        clip-path: url(#clippath-4);
      }

      .cls-4 {
        fill: #fff;
      }

      .cls-5 {
        fill: none;
      }

      .cls-6 {
        fill: #3fad3c;
      }

      .cls-7 {
        clip-path: url(#clippath-1);
      }

      .cls-8 {
        fill: #059948;
      }

      .cls-9 {
        clip-path: url(#clippath-5);
      }

      .cls-10 {
        clip-path: url(#clippath-3);
      }

      .cls-11 {
        clip-path: url(#clippath-2);
      }

      .cls-12 {
        clip-path: url(#clippath);
      }
    </style>
    <clipPath id="clippath">
      <rect class="cls-5" y="0" width="2000" height="2000"/>
    </clipPath>
    <clipPath id="clippath-1">
      <rect class="cls-5" x="624.07" y="-1493.83" width="2000" height="2000"/>
    </clipPath>
    <clipPath id="clippath-2">
      <rect class="cls-5" x="624.07" y="506.17" width="2000" height="2000"/>
    </clipPath>
    <clipPath id="clippath-3">
      <rect class="cls-5" x="-1375.93" y="-1493.83" width="2000" height="2000"/>
    </clipPath>
    <clipPath id="clippath-4">
      <rect class="cls-5" x="-1375.93" y="506.17" width="2000" height="2000"/>
    </clipPath>
    <clipPath id="clippath-5">
      <rect class="cls-5" x="2683.2" y="0" width="2000" height="2000"/>
    </clipPath>
    <clipPath id="clippath-6">
      <rect class="cls-5" x="1306.9" y="-1493.83" width="2000" height="2000"/>
    </clipPath>
    <clipPath id="clippath-7">
      <rect class="cls-5" x="1306.9" y="506.17" width="2000" height="2000"/>
    </clipPath>
  </defs>
  <g class="cls-12">
    <g class="cls-7">
      <g>
        <g>
          <path class="cls-6" d="M1122.68,101.35l-44.14,145.15-20.95-5.52c4.18-38.72-16.97-77.04-52.89-93.68l-.39-.18-6.01-2.19,89.1-136.55-58.64-41.69-32.11,56.34,27.27-91.88-78.93-7.72-18.57,92.72-.94-65.33-72.8,17.58,31.85,206.71-11.71,37.41-.11.95c-5.22,44.52,20.26,88.91,58.49,103.14l-18.6,71.55c-22.78-12.83-73.18-33.9-121.7-4.57-22.7,13.72-41.9,37-57.09,69.19l-5.1,10.8,226.11,65.09,58.43-216.3,116.97,35.51,33.73-106.46c22.46,12.79,73.36,34.54,122.34,4.93h0c22.69-13.72,41.9-37,57.08-69.19l5.1-10.8-225.8-65ZM947.05,223.08c7.53,15.79.84,34.7-14.96,42.23-11.4,5.44-24.4,3.43-33.59-4.03,3.11.46,6.38.03,9.43-1.42,8.16-3.89,11.61-13.66,7.72-21.81-3.89-8.16-13.66-11.61-21.81-7.72-3.05,1.45-5.44,3.73-7.04,6.43,0-11.84,6.61-23.2,18.01-28.64,15.79-7.53,34.7-.84,42.23,14.96ZM1018.48,189.01c7.53,15.79.84,34.7-14.96,42.23-11.04,5.27-23.59,3.56-32.73-3.33,2.49.06,5.04-.43,7.44-1.58,8.16-3.89,11.61-13.66,7.72-21.81-3.89-8.16-13.66-11.61-21.81-7.72-2.41,1.15-4.39,2.81-5.91,4.79.39-11.44,6.96-22.27,18.01-27.53,15.79-7.53,34.7-.84,42.23,14.95Z"/>
          <path class="cls-6" d="M1051.27,176.65s.07.02.11.03h0s-.04-.01-.11-.03Z"/>
          <path d="M1190.97,69.2l-27.32-4.84c-36.57-6.47-73.88,1.04-105.19,21.04-6.43,4.12-12.47,8.71-18.11,13.69l50.23-76.98,10.68-16.37-15.93-11.32-41.52-29.51-15.94-11.33,2.29-7.72,7.01-23.63-24.53-2.4-57.52-5.63-18.31-1.79-3.61,18.04-1.69,8.45-20.79,5.02-51.34,12.39-18.18,4.39,2.85,18.48,30.07,195.14-10.72,34.25-.57,1.82-.22,1.89c-1.71,14.56-.44,29.48,3.56,43.71l-2.58,1.51c-51.15,29.97-117.83,15.39-151.81-33.2l-7.88-11.27-.11-2.86,60.92-35.37-16.44-28.32-45.9,26.65-2.91-75.7-32.73,1.26,2.18,56.76-37.59-49.31-26.05,19.85,42.74,56.07c-32.96-7.39-66.19-14.9-69.61-15.82l-4.45,15.76-4.59,15.72c4.45,1.3,71.01,16.21,99.67,22.61l15.9,22.74c21.28,30.43,52.98,51.56,89.26,59.5,36.05,7.88,73.41,2.03,105.32-16.46,10.11,16.03,23.81,28.56,39.64,36.37l-13.22,50.88c-27.8-12.99-74.66-26.07-120.3,1.52-24.44,14.77-44.97,39.52-61.02,73.56l-10.19,21.61,22.96,6.61,204.69,58.93,19.87,5.72,5.39-19.96,53-196.2,97.33,29.55,19.23,5.84,6.07-19.15,27.05-85.38c27.64,13.17,75.22,27.08,121.55-.93,24.44-14.77,44.97-39.52,61.02-73.56l10.19-21.61-22.96-6.61-89.28-25.7-13.59-12.59,61.45,8.29,4.38-32.46-69.88-9.43c28.53-18.09,57.32-36.3,60.42-38.03l-8-14.29-7.87-14.36c-4.06,2.24-61.67,38.75-86.46,54.49ZM1113.15,97.71l-3.12,10.27-38.37,126.2-3.39-.89c.35-16.23-3.17-32.51-10.35-47.25-5.39-11.05-12.74-20.99-21.59-29.38,15.72-30.07,44.21-51.56,76.83-58.95ZM1281.03,237.65c-58.89,35.6-122.79-11.89-122.79-11.89l-34.68,109.47-114.23-34.68c-.35.22-.7.43-1.05.64-1,.6-2.01,1.19-3.03,1.74l-57.56,213.1c-8.72-2.51-48.78-14.04-204.69-58.93,15.66-33.19,34.14-53.34,53.15-64.83,58.9-35.6,122.79,11.89,122.79,11.89l24.52-94.34c-.61-.17-1.23-.34-1.84-.53l-3.43-1.07c-37.74-11.71-59.99-54.35-55.39-93.6l12.13-38.75-30.79-199.8,51.34-12.39,2.13,148.16,35.53-177.41,57.52,5.63-48.86,164.66,70.23-123.25,41.52,29.51-90.76,139.09,17.64,6.43c35.64,16.52,53.7,55.28,45.65,91.94l39.34,10.37,44.07-144.94c8.72,2.51,48.78,14.04,204.69,58.93-15.66,33.19-34.14,53.34-53.15,64.83Z"/>
          <path class="cls-6" d="M1049.41,176.11c-.21-.06-.26-.07,0,0h0Z"/>
          <path class="cls-6" d="M1051.27,176.65c-.68-.2-1.16-.33-1.48-.43.51.15,1.21.35,1.48.43Z"/>
          <path class="cls-6" d="M1049.79,176.22c-.11-.03-.21-.06-.29-.08.08.02.18.05.29.08Z"/>
          <path class="cls-6" d="M1049.5,176.14s-.06-.02-.09-.03c.03,0,.06.02.09.03Z"/>
        </g>
        <g>
          <path class="cls-8" d="M2117.22,322.1l-119.94,93.65c-10.93-23.28-31.89-41.64-58.89-48.27l-30.36-7.46-47.52-219.93-54.18,10.58,43.89,178.92-95.14-166.28-60.2,34.78,118.05,159.15-115.3-123.13-50.93,37.78,175.64,147.46,3.08,40.22c1.86,24.29,13.5,45.83,31.03,60.68l-125.49,88.35s-42.86-149.47-191.96-72.26c120.3,162.18,144.38,194.65,148.36,200.02l276.79-208.24c3.85-2.41,7.5-5.12,10.94-8.09l277.04-202.59c-3.98-5.37-28.06-37.83-148.36-200.02-117.15,120.28,13.45,204.67,13.45,204.67ZM1896.09,489.44c-13.81,10.24-33.3,7.35-43.55-6.46-8.62-11.63-7.9-27.26.77-38.04-2.3,5.13-1.84,11.32,1.75,16.16,5.29,7.13,15.36,8.63,22.49,3.34s8.62-15.36,3.33-22.49c-3.59-4.84-9.38-7.07-14.96-6.36,12.83-5.17,28-1.33,36.62,10.3,10.24,13.81,7.35,33.3-6.46,43.55ZM1958.54,443.12c-13.81,10.24-33.3,7.35-43.55-6.46-8.62-11.63-7.9-27.26.77-38.04-2.3,5.13-1.84,11.32,1.75,16.16,5.29,7.13,15.36,8.62,22.49,3.34s8.62-15.36,3.33-22.49c-3.59-4.84-9.38-7.07-14.96-6.36,12.83-5.17,28-1.33,36.62,10.3,10.24,13.81,7.35,33.3-6.46,43.55Z"/>
          <path d="M2096.89,110.73c-38.21,39.23-55.32,79.26-50.83,118.97,5.2,46.03,38,78.44,55.33,92.57l-101.11,78.94c-3.73-5.97-8.08-11.45-12.92-16.41,21.66-20.46,37.5-46.49,45.65-75.69,11.21-40.16,6.92-82.72-12.07-119.83l-13.95-27.25c8.73-31.82,28.69-104.76,29.74-109.84l-37.62-7.94c-.86,3.76-10.5,39.25-20.11,74.39l-31.87-69.13-34.91,16.1,27.74,60.16-52.27-30.34-19.3,33.25,71.79,41.67-48.96,30.51,20.33,32.63,66.26-41.29,2.04,1.19,6.87,13.42c27.28,53.3,12.82,118.53-32.3,155.81-4.43-1.8-9.01-3.3-13.74-4.46l-24.53-6.03-48.24-223.27-73.32,14.32,29.99,122.26-65.95-115.27-77.89,45,24.45,32.96-6.4-6.83-67.59,50.14,181.87,152.69,1.67,21.83c-47.51,25.32-108.07,18.31-148.21-20.41l-10.85-10.46-.54-2.3,58.74-51.42-25.32-28.93-43.4,38-19.05-80.78-37.42,8.82,13.87,58.83-49.52-44-25.54,28.74,56.9,50.56c-36.42-1.01-73.19-2.08-77.03-2.34l-1.57,19.16-1.74,19.14c5.16.47,80.76,2.53,113.74,3.41l22.03,21.26c30.01,28.95,69.49,45.4,111.17,46.33,24.4.54,48.29-4.28,70.17-13.9,4.37,12.36,11.2,23.72,20.2,33.48l-105.66,74.39c-8.5-20.68-29.99-61.48-72.53-79.81-36.7-15.81-79.97-11.06-128.6,14.12l-10.03,5.19,160.85,216.86,284.2-213.82c3.97-2.51,7.82-5.36,11.46-8.48l284.55-208.07-160.85-216.86-7.88,8.09ZM2238.65,315.41l-269.23,196.87-.32.23-.3.26c-3.09,2.67-6.37,5.1-9.75,7.21l-.35.22-269.39,202.67-135.72-182.97c38.97-18,73.2-20.9,101.85-8.6,48.64,20.87,66.1,79.39,66.27,79.96l3.72,12.99,146.7-103.29-9.49-8.04c-16.22-13.73-26.04-32.93-27.66-54.07l-3.39-44.25-169.41-142.23,34.27-25.42,109.44,116.88,14.74-12.3-111.63-150.5,42.51-24.56,90.35,157.9,17.68-7.06-41.49-169.13,35.04-6.85,46.8,216.59,36.19,8.89c23.19,5.69,42.32,21.38,52.48,43.02l5.12,10.9,140.09-109.38-11.35-7.33c-.51-.33-51.32-33.73-57.28-86.49-3.51-31.04,9.2-63,37.77-95.11l135.72,182.97Z"/>
        </g>
      </g>
    </g>
    <g class="cls-11">
      <g>
        <g>
          <path class="cls-6" d="M1122.68,2101.35l-44.14,145.15-20.95-5.52c4.18-38.72-16.97-77.04-52.89-93.68l-.39-.18-6.01-2.19,89.1-136.55-58.64-41.69-32.11,56.34,27.27-91.88-78.93-7.72-18.57,92.72-.94-65.33-72.8,17.58,31.85,206.71-11.71,37.41-.11.95c-5.22,44.52,20.26,88.91,58.49,103.14l-18.6,71.55c-22.78-12.83-73.18-33.9-121.7-4.57-22.7,13.72-41.9,37-57.09,69.19l-5.1,10.8,226.11,65.09,58.43-216.3,116.97,35.51,33.73-106.46c22.46,12.79,73.36,34.54,122.34,4.93h0c22.69-13.72,41.9-37,57.08-69.19l5.1-10.8-225.8-65ZM947.05,2223.08c7.53,15.79.84,34.7-14.96,42.23-11.4,5.44-24.4,3.43-33.59-4.03,3.11.46,6.38.03,9.43-1.42,8.16-3.89,11.61-13.66,7.72-21.81-3.89-8.16-13.66-11.61-21.81-7.72-3.05,1.45-5.44,3.73-7.04,6.43,0-11.84,6.61-23.2,18.01-28.64,15.79-7.53,34.7-.84,42.23,14.96ZM1018.48,2189.01c7.53,15.79.84,34.7-14.96,42.23-11.04,5.27-23.59,3.56-32.73-3.33,2.49.06,5.04-.43,7.44-1.58,8.16-3.89,11.61-13.66,7.72-21.81-3.89-8.16-13.66-11.61-21.81-7.72-2.41,1.15-4.39,2.81-5.91,4.79.39-11.44,6.96-22.27,18.01-27.53,15.79-7.53,34.7-.84,42.23,14.95Z"/>
          <path d="M1190.97,2069.2l-27.32-4.84c-36.57-6.47-73.88,1.04-105.19,21.04-6.43,4.12-12.47,8.71-18.11,13.69l50.23-76.98,10.68-16.37-15.93-11.32-41.52-29.51-15.94-11.33,2.29-7.72,7.01-23.63-24.53-2.4-57.52-5.63-18.31-1.79-3.61,18.04-1.69,8.45-20.79,5.02-51.34,12.39-18.18,4.39,2.85,18.48,30.07,195.14-10.72,34.25-.57,1.82-.22,1.89c-1.71,14.56-.44,29.48,3.56,43.71l-2.58,1.51c-51.15,29.97-117.83,15.39-151.81-33.2l-7.88-11.27-.11-2.86,60.92-35.37-16.44-28.32-45.9,26.65-2.91-75.7-32.73,1.26,2.18,56.76-37.59-49.31-26.05,19.85,42.74,56.07c-32.96-7.39-66.19-14.9-69.61-15.82l-4.45,15.76-4.59,15.72c4.45,1.3,71.01,16.21,99.67,22.61l15.9,22.74c21.28,30.43,52.98,51.56,89.26,59.5,36.05,7.88,73.41,2.03,105.32-16.46,10.11,16.03,23.81,28.56,39.64,36.37l-13.22,50.88c-27.8-12.99-74.66-26.07-120.3,1.52-24.44,14.77-44.97,39.52-61.02,73.56l-10.19,21.61,22.96,6.61,204.69,58.93,19.87,5.72,5.39-19.96,53-196.2,97.33,29.55,19.23,5.84,6.07-19.15,27.05-85.38c27.64,13.17,75.22,27.08,121.55-.93,24.44-14.77,44.97-39.52,61.02-73.56l10.19-21.61-22.96-6.61-89.28-25.7-13.59-12.59,61.45,8.29,4.38-32.46-69.88-9.43c28.53-18.09,57.32-36.3,60.42-38.03l-8-14.29-7.87-14.36c-4.06,2.24-61.67,38.75-86.46,54.49ZM1113.15,2097.71l-3.12,10.27-38.37,126.2-3.39-.89c.35-16.23-3.17-32.51-10.35-47.25-5.39-11.05-12.74-20.99-21.59-29.38,15.72-30.07,44.21-51.56,76.83-58.95ZM1281.03,2237.65c-58.89,35.6-122.79-11.89-122.79-11.89l-34.68,109.47-114.23-34.68c-.35.22-.7.43-1.05.64-1,.6-2.01,1.19-3.03,1.74l-57.56,213.1c-8.72-2.51-48.78-14.04-204.69-58.93,15.66-33.19,34.14-53.34,53.15-64.83,58.9-35.6,122.79,11.89,122.79,11.89l24.52-94.34c-.61-.17-1.23-.34-1.84-.53l-3.43-1.07c-37.74-11.71-59.99-54.35-55.39-93.6l12.13-38.75-30.79-199.8,51.34-12.39,2.13,148.16,35.53-177.41,57.52,5.63-48.86,164.66,70.23-123.25,41.52,29.51-90.76,139.09,17.64,6.43c35.64,16.52,53.7,55.28,45.65,91.94l39.34,10.37,44.07-144.94c8.72,2.51,48.78,14.04,204.69,58.93-15.66,33.19-34.14,53.34-53.15,64.83Z"/>
        </g>
        <g>
          <path class="cls-6" d="M1999.83,1324.93l11.92-.78c35.52-2.31,64.22-11.63,85.31-27.71h0c45.52-34.7,43.96-90.03,40.31-115.62l111.41,7.69,9.9-121.84,222.65,25.03,22.43-234.22-11.92.78c-35.52,2.31-64.22,11.63-85.31,27.71-45.09,34.37-43.99,88.99-40.41,114.89l-73.38-8.96c.8-40.79-31.14-80.78-74.47-92.26l-.92-.24-39.1-2.84-180.59-105.5-43.07,61.27,60.43,24.85-93.07-16.76-21.78,76.26,95.47,8.36-64.2,9.19,17.26,69.85,159.72-32.77-.17,6.4.02.43c2.3,39.52,30.19,73.26,67.73,83.58l-2.55,21.51-151.22-12.21-22.4,233.9ZM2201.5,927.57c9.24-8.61,22.24-10.6,33.25-6.24-3.1.49-6.1,1.88-8.57,4.18-6.61,6.16-6.98,16.51-.82,23.12,6.16,6.61,16.51,6.98,23.12.82,2.47-2.3,4.07-5.19,4.78-8.25,3.56,11.29.66,24.12-8.58,32.72-12.8,11.93-32.85,11.21-44.77-1.59-11.93-12.8-11.21-32.85,1.59-44.77ZM2143.6,981.51c8.95-8.34,21.44-10.48,32.22-6.65-2.4.69-4.68,1.92-6.63,3.74-6.61,6.16-6.98,16.51-.82,23.12,6.16,6.61,16.51,6.98,23.12.82,1.95-1.82,3.34-4,4.2-6.34,3.06,11.03.04,23.33-8.91,31.67-12.8,11.93-32.85,11.21-44.77-1.59-11.93-12.8-11.21-32.85,1.59-44.77Z"/>
          <path d="M1884.84,1203.19l10.47,12.59,10.36,12.68c2.75-2.24,30.26-22.35,57.55-42.25l-16.87,68.47,31.8,7.84,14.84-60.2,6.72,17.27-8.86,92.48-2.28,23.78,23.84-1.55c37.55-2.44,68.11-12.46,90.82-29.77,43.06-32.82,47.59-82.18,45.48-112.72l89.35,6.17,20.05,1.38,1.63-20.03,8.23-101.38,201.96,22.71,20.55,2.31,1.97-20.58,20.31-212.03,2.28-23.78-23.84,1.55c-37.55,2.44-68.11,12.46-90.82,29.77-42.42,32.34-47.44,80.72-45.57,111.35l-52.18-6.37c-1.46-17.6-8.09-34.94-19.29-50.23,28.91-22.9,48.07-55.51,53.97-91.93,5.93-36.66-2.09-73.9-22.59-104.86l-15.32-23.14c4.56-29.01,15.12-96.4,15.55-101.01l-16.31-1.5-16.29-1.64c-.4,3.51-5.61,37.18-10.83,70.56l-36.48-60.33-28.03,16.94,32.08,53.06-52-22.86-13.18,29.98,69.35,30.49-41.63,32.92,20.31,25.69,55.26-43.69,2.62,1.15,7.59,11.47c32.73,49.43,21.82,116.81-24.83,153.4l-2.35,1.84c-11.77-8.95-25.18-15.6-39.35-19.36l-1.84-.49-1.9-.14-35.79-2.59-170.48-99.59-16.14-9.43-10.75,15.3-30.37,43.21-12.3,17.5-8.49-1.53-18.11-3.26-5.05,17.69-15.87,55.57-6.77,23.7,24.55,2.15,8.02.7,4.69,18.99,12.22,49.45,4.69,18.97,19.14-3.93,90.04-18.47c-6.71,3.42-13.19,7.35-19.38,11.82-30.1,21.78-50.78,53.73-58.18,90.13l-5.53,27.19c-23.74,17.29-78.84,57.48-82.42,60.43ZM2105.37,1031.01c4.55,11.31,11.1,21.79,19.4,30.86,11.07,12.09,24.92,21.34,40.15,26.97l-.41,3.48-131.48-10.62-10.7-.86c18.85-27.63,49.29-46.24,83.03-49.83ZM2011.09,1314.01c15.47-161.5,19.44-203,20.31-212.03l151,12.2,4.79-40.4c-37.06-5.98-66.48-37-68.77-76.21l.5-18.77-162.7,33.38-12.22-49.45,140.42-20.1-171.11-14.98,15.87-55.57,178.07,32.06-137.04-56.36,30.37-43.21,174.56,101.97,40.5,2.94c38.2,10.12,69.7,46.47,66.74,85.87l-.27,3.59c-.05.64-.12,1.27-.19,1.91l96.75,11.82s-20.72-76.86,34-118.58c17.67-13.47,43.19-23.27,79.81-25.65-15.47,161.5-19.44,203-20.31,212.03l-219.35-24.66c-.89.75-1.81,1.47-2.73,2.18-.33.25-.65.49-.98.74l-9.67,118.98-114.56-7.91s20.73,76.86-34,118.58c-17.67,13.47-43.19,23.27-79.81,25.65Z"/>
        </g>
        <g>
          <path class="cls-8" d="M1732.37,1857.18l-130.55-78.19c17.78-18.58,27.37-44.74,23.84-72.32l-3.97-31.01,188.08-123.51-29.38-46.74-151.12,105.36,120.88-148.62-54.12-43.64-105.99,167.43,73.37-151.89-53.58-33.92-74.35,216.94-36.41,17.35c-21.99,10.48-37.9,29.09-45.44,50.79l-127.6-85.27s124.02-93.79-1.69-205.1c-108.01,170.62-129.63,204.77-133.2,210.42l293.92,183.27c3.63,2.72,7.47,5.16,11.48,7.3l288.73,185.54c3.57-5.65,25.19-39.8,133.2-210.42-154.39-66-186.11,86.22-186.11,86.22ZM1496.65,1711.11c-14.53-9.2-18.85-28.43-9.65-42.95,7.74-12.23,22.59-17.19,35.76-12.97-5.62-.3-11.23,2.36-14.45,7.45-4.75,7.5-2.52,17.43,4.98,22.18,7.5,4.75,17.43,2.52,22.18-4.99,3.22-5.09,3.22-11.3.55-16.25,9.44,10.1,11.32,25.64,3.57,37.87-9.2,14.53-28.43,18.85-42.95,9.65ZM1562.35,1752.7c-14.53-9.2-18.85-28.43-9.65-42.95,7.74-12.23,22.59-17.19,35.76-12.97-5.62-.3-11.23,2.36-14.45,7.45-4.75,7.5-2.52,17.43,4.98,22.18,7.5,4.75,17.43,2.52,22.18-4.99,3.22-5.09,3.22-11.3.55-16.25,9.44,10.1,11.32,25.65,3.57,37.88-9.2,14.53-28.43,18.85-42.95,9.65Z"/>
          <path d="M1922.26,1762.12c-50.36-21.53-93.86-23.08-129.29-4.6-41.08,21.42-59.5,63.69-66.45,84.94l-110.05-65.91c4.22-5.63,7.77-11.66,10.66-17.97,26.89,12.84,56.87,18.25,87.04,15.34,41.5-4,79.66-23.32,107.45-54.4l20.4-22.82c32.83-3.31,108.06-10.94,113.18-11.8l-6.13-37.95c-3.82.55-40.4,4.33-76.64,8.02l53.02-54.62-27.59-26.78-46.14,47.53,9.49-59.69-37.97-6.04-13.04,81.97-46.09-34.69-23.12,30.71,62.38,46.95-.37,2.33-10.05,11.24c-39.91,44.64-105.97,54.63-156.99,25.96.09-4.78-.17-9.6-.78-14.42l-3.21-25.05,190.93-125.38-39.76-63.25-103.26,71.99,83.8-103.03-70.03-56.47-21.95,34.67,4.07-8.43-71.11-45.01-76.98,224.64-19.76,9.42c-40.73-35.21-55.98-94.23-34.31-145.62l5.86-13.89,1.95-1.33,69.12,36.29,17.87-34.04-51.07-26.82,68.51-46.85-21.7-31.74-49.89,34.12,23.22-62.04-36.01-13.48-26.68,71.29c-12.17-34.34-24.41-69.03-25.54-72.71l-18.44,5.44-18.49,5.27c1.42,4.98,26.71,76.25,37.76,107.34l-11.9,28.21c-16.21,38.42-17.34,81.18-3.2,120.4,8.28,22.96,21.38,43.51,38.23,60.46-9.96,8.53-18.1,18.99-23.96,30.9l-107.44-71.8c16.24-15.38,46.56-50.11,48.35-96.4,1.54-39.93-18.47-78.59-59.47-114.9l-8.45-7.49-144.41,228.13,301.79,188.18c3.77,2.8,7.82,5.37,12.04,7.64l296.55,190.57,144.41-228.13-10.38-4.44ZM1782.33,1968.06l-280.6-180.31-.33-.21-.34-.18c-3.61-1.92-7.05-4.11-10.24-6.5l-.33-.25-286.06-178.37,121.85-192.49c30.82,29.88,45.85,60.76,44.69,91.93-1.96,52.89-50.27,90.25-50.75,90.61l-10.78,8.15,149.18,99.68,4.08-11.75c6.97-20.07,21.35-36.15,40.49-45.27l40.06-19.09,71.71-209.25,36.05,22.82-69.64,144.18,16.78,9.32,100.22-158.32,38.22,30.82-114.8,141.13,12.95,13.95,142.85-99.59,19,30.23-185.22,121.63,4.74,36.97c3.03,23.68-4.71,47.17-21.25,64.45l-8.33,8.7,152.48,91.32,2.76-13.23c.12-.6,12.99-60.02,60.07-84.57,27.7-14.44,62.08-14.1,102.34,1l-121.85,192.49Z"/>
        </g>
        <g>
          <path class="cls-8" d="M1187.69,1229.45l-99.45-110.11c3.65-1.46,9.62-4.71,14.39-8.84l106.37,109.57s1.94-.84,189.39-79.15c-91.6-133.54-185.78-19.46-185.78-19.46l-71.34-60.56c16.08-40.94,2.93-88.08-32.93-114.64l-36.01-26.68-34.83-252.4-65.65,25.56,47.63,181.26-79.89-205.15-68.31,36.05,100.14,187.81-142.33-147.08-41.99,44.7,178.75,174.75-10.94,32.96c-9.45,28.48-5.1,58.13,9.3,81.85l.07.11c5.13,8.42,11.53,16.09,19.04,22.69l71.42,85.11s-137.95-1.72-92.34,130.68c203.39-79.2,225.28-89.05,225.28-89.05ZM1080.25,1009.18c-3.56-9.14-13.85-13.66-22.99-10.1-2.69,1.05-4.97,2.7-6.78,4.71,1.34-12.35,9.32-23.54,21.69-28.36,17.69-6.89,37.62,1.87,44.51,19.56,6.89,17.69-1.87,37.62-19.56,44.51-12.37,4.82-25.82,1.97-35.16-6.22,2.69.27,5.49-.06,8.18-1.11,9.14-3.56,13.66-13.85,10.1-22.99ZM1036.65,1026.16c6.89,17.69-1.87,37.62-19.56,44.51-12.77,4.97-26.68,1.76-36.04-7.04,3.33.75,6.9.55,10.32-.78,9.14-3.56,13.66-13.85,10.1-22.99-3.56-9.14-13.85-13.66-22.99-10.1-3.42,1.33-6.18,3.6-8.13,6.4.94-12.81,9.01-24.58,21.78-29.56,17.69-6.89,37.62,1.87,44.51,19.56Z"/>
          <path d="M955.51,1333.4l11.03-4.3c201.35-78.41,224.92-88.87,225.82-89.28l14.25-6.41,6.87-2.88c.45-.19,9.6-4.04,189.31-79.12l12.92-5.4-7.92-11.54c-30.58-44.57-65.15-68.02-102.77-69.7-43.71-1.94-78.37,26.34-93.28,41l-57.14-48.51c4.71-15.28,5.89-31.1,3.87-46.4l6.66-1.96c3.5-1.03,6.94-2.21,10.31-3.52,26.27-10.23,48.38-28.84,62.98-53.26,16.48-27.54,21.93-60.02,15.36-91.43l-1.88-8.98c3.42-3.89,5.87-9.06,6.9-15.23,2.74-16.46-5.09-36.25-22.78-42.32l-8.82-52.93-27.92,4.65,8.81,52.86-34.46-34.97-20.16,19.87,34.26,34.77c-3,18.12,2.45,33.71,14.69,40.23,3.14,1.67,11.44,5,22.2.9l1.45,6.95c10.49,50.16-19.81,100.78-68.94,115.26l-5.94,1.75c-7.39-18.04-19.61-34.22-36.06-46.4l-32.17-23.83-36.15-261.94-88.4,34.42-12.83-32.94-89.71,47.34,67.4,126.42-94.3-97.45-57.81,61.53,181.65,177.58-8.7,26.22c-10.13,30.52-6.35,63.81,10.37,91.34,5.7,9.35,12.62,17.67,20.65,24.85l56.82,67.72c-22.19,3.49-55.22,13.19-74.7,40.15-18.57,25.7-20.46,60.58-5.62,103.68l3.86,11.19ZM969.64,1303.47c-8.41-30.26-6.4-54.29,6.02-71.54,23.67-32.87,78.41-32.74,78.96-32.74l24.7.23-87.83-104.7-.65-.57c-6.58-5.79-12.25-12.54-16.83-20.06-13.31-21.91-16.31-48.29-8.29-72.46l13.18-39.71-175.86-171.93,26.19-27.87,134.03,138.51,18.22-13.27-94.76-177.73,46.92-24.76,75.26,193.26,21.61-7.02-45.05-171.45,42.76-16.65,33.52,242.86,39.85,29.53c31.42,23.29,43.39,64.96,29.11,101.35l-2.97,7.57,86.33,73.29,7.34-8.9c.35-.41,36.59-43.31,82.75-41.18,26.91,1.25,52.63,17.53,76.59,48.45-85.42,35.69-129.41,54.07-152.06,63.54l-16.9,7.07-108.46-111.72-8.12,7.04c-3.54,3.07-8.28,5.72-11.18,6.88l-15.15,6.07,99.59,110.27c-21.78,8.86-74.51,29.92-198.81,78.36Z"/>
        </g>
      </g>
      <g>
        <path class="cls-8" d="M593.66,1976.75c60.54-126.28-76.69-140.44-76.69-140.44l80.73-76.34c8.22-5.69,15.46-12.57,21.52-20.35l.08-.1c17.03-21.91,24.77-50.86,18.65-80.24l-7.08-34,197.67-153.03-36.57-49.24-158.3,129.74,121.07-175.05-63.71-43.67-102.95,194.6,68.16-174.58-62.27-32.94-63.63,246.71-38.84,22.36c-38.67,22.27-57.15,67.58-45.89,110.1l-77.83,51.96s-80.44-124.15-186.79-2.04c177.2,99.35,179.02,100.4,179.03,100.41l118.27-96.61c4.26,4.65,9.83,8.56,13.28,10.44l-111.45,97.94s20.61,12.3,213.55,114.37ZM519.57,1679.92c2.56,1.35,5.29,2,8,2.05-10.22,7.06-23.9,8.35-35.64,2.14-16.78-8.88-23.19-29.68-14.31-46.47,8.88-16.78,29.68-23.19,46.47-14.31,11.74,6.21,18.37,18.25,18.28,30.67-1.56-2.21-3.63-4.11-6.19-5.46-8.67-4.59-19.41-1.28-24,7.39-4.59,8.67-1.28,19.41,7.39,24ZM600,1663.49c12.11,6.41,18.78,19.03,18.24,31.87-1.61-3-4.1-5.58-7.34-7.29-8.67-4.59-19.41-1.28-24,7.39-4.59,8.67-1.28,19.41,7.39,24,3.24,1.71,6.77,2.32,10.16,1.96-10.31,7.67-24.49,9.26-36.61,2.85-16.78-8.88-23.19-29.68-14.31-46.47,8.88-16.78,29.68-23.19,46.47-14.31Z"/>
        <path d="M603.92,1981.67c19.7-41.1,21.84-75.97,6.35-103.63-16.25-29.02-47.95-42.46-69.59-48.48l64.23-60.73c8.81-6.2,16.64-13.67,23.37-22.31,19.78-25.43,27.36-58.07,20.81-89.55l-5.63-27.04,200.87-155.51-50.35-67.77-104.88,85.95,81.5-117.83-83.67-57.34-16.53,31.24-83.86-44.36-66.04,256.04-34.7,19.97c-17.74,10.22-31.74,24.88-41.16,41.95l-5.7-2.42c-47.14-20.03-71.42-73.81-55.23-122.42l2.24-6.74c10.22,5.31,18.85,2.96,22.16,1.66,12.91-5.08,20.12-19.94,19.22-38.28l38.03-30.6-17.75-22.06-38.25,30.78,14.83-51.49-27.2-7.83-14.85,51.57c-18.28,4-28.33,22.76-27.5,39.42.31,6.25,2.15,11.67,5.1,15.92l-2.9,8.71c-10.14,30.45-8.46,63.34,4.74,92.59,11.7,25.93,31.51,46.96,56.43,60.15,3.2,1.69,6.48,3.25,9.84,4.68l6.39,2.71c-3.76,14.97-4.41,30.81-1.49,46.54l-62.34,41.61c-13.13-16.28-44.3-48.36-87.95-51.46-37.56-2.66-74.6,16.65-110.1,57.42l-9.19,10.55,12.21,6.85c169.89,95.25,178.53,100.12,178.96,100.37l6.49,3.65,13.41,8.01c.85.51,23.06,13.62,214.06,114.66l10.47,5.54,5.12-10.68ZM399.73,1860.28l111.61-98.08-14.35-7.78c-2.75-1.49-7.14-4.67-10.31-8.12l-7.26-7.92-120.59,98.5-15.97-8.96c-21.41-12.01-62.99-35.33-143.75-80.61,27.35-27.95,54.78-41.17,81.65-39.32,46.1,3.19,77.16,49.97,77.46,50.42l6.27,9.68,94.19-62.88-2.08-7.86c-10.01-37.79,6.67-77.81,40.57-97.32l42.99-24.75,61.23-237.39,40.56,21.46-64.47,165.13,20.66,9.46,96.99-183.32,43.76,30-114.57,165.65,16.57,15.27,149.07-122.17,22.81,30.7-194.47,150.56,8.52,40.97c5.19,24.93-.82,50.78-16.56,71.02-5.41,6.95-11.82,13-19.02,17.99l-.71.49-99.29,93.9,24.56,2.61c.55.06,54.94,6.23,74.67,41.6,10.35,18.56,9.59,42.66-2.24,71.76-117.9-62.41-167.86-89.4-188.48-100.71Z"/>
      </g>
      <g>
        <g>
          <path class="cls-6" d="M1122.68,101.35l-44.14,145.15-20.95-5.52c4.18-38.72-16.97-77.04-52.89-93.68l-.39-.18-6.01-2.19,89.1-136.55-58.64-41.69-32.11,56.34,27.27-91.88-78.93-7.72-18.57,92.72-.94-65.33-72.8,17.58,31.85,206.71-11.71,37.41-.11.95c-5.22,44.52,20.26,88.91,58.49,103.14l-18.6,71.55c-22.78-12.83-73.18-33.9-121.7-4.57-22.7,13.72-41.9,37-57.09,69.19l-5.1,10.8,226.11,65.09,58.43-216.3,116.97,35.51,33.73-106.46c22.46,12.79,73.36,34.54,122.34,4.93h0c22.69-13.72,41.9-37,57.08-69.19l5.1-10.8-225.8-65ZM947.05,223.08c7.53,15.79.84,34.7-14.96,42.23-11.4,5.44-24.4,3.43-33.59-4.03,3.11.46,6.38.03,9.43-1.42,8.16-3.89,11.61-13.66,7.72-21.81-3.89-8.16-13.66-11.61-21.81-7.72-3.05,1.45-5.44,3.73-7.04,6.43,0-11.84,6.61-23.2,18.01-28.64,15.79-7.53,34.7-.84,42.23,14.96ZM1018.48,189.01c7.53,15.79.84,34.7-14.96,42.23-11.04,5.27-23.59,3.56-32.73-3.33,2.49.06,5.04-.43,7.44-1.58,8.16-3.89,11.61-13.66,7.72-21.81-3.89-8.16-13.66-11.61-21.81-7.72-2.41,1.15-4.39,2.81-5.91,4.79.39-11.44,6.96-22.27,18.01-27.53,15.79-7.53,34.7-.84,42.23,14.95Z"/>
          <path d="M1190.97,69.2l-27.32-4.84c-36.57-6.47-73.88,1.04-105.19,21.04-6.43,4.12-12.47,8.71-18.11,13.69l50.23-76.98,10.68-16.37-15.93-11.32-41.52-29.51-15.94-11.33,2.29-7.72,7.01-23.63-24.53-2.4-57.52-5.63-18.31-1.79-3.61,18.04-1.69,8.45-20.79,5.02-51.34,12.39-18.18,4.39,2.85,18.48,30.07,195.14-10.72,34.25-.57,1.82-.22,1.89c-1.71,14.56-.44,29.48,3.56,43.71l-2.58,1.51c-51.15,29.97-117.83,15.39-151.81-33.2l-7.88-11.27-.11-2.86,60.92-35.37-16.44-28.32-45.9,26.65-2.91-75.7-32.73,1.26,2.18,56.76-37.59-49.31-26.05,19.85,42.74,56.07c-32.96-7.39-66.19-14.9-69.61-15.82l-4.45,15.76-4.59,15.72c4.45,1.3,71.01,16.21,99.67,22.61l15.9,22.74c21.28,30.43,52.98,51.56,89.26,59.5,36.05,7.88,73.41,2.03,105.32-16.46,10.11,16.03,23.81,28.56,39.64,36.37l-13.22,50.88c-27.8-12.99-74.66-26.07-120.3,1.52-24.44,14.77-44.97,39.52-61.02,73.56l-10.19,21.61,22.96,6.61,204.69,58.93,19.87,5.72,5.39-19.96,53-196.2,97.33,29.55,19.23,5.84,6.07-19.15,27.05-85.38c27.64,13.17,75.22,27.08,121.55-.93,24.44-14.77,44.97-39.52,61.02-73.56l10.19-21.61-22.96-6.61-89.28-25.7-13.59-12.59,61.45,8.29,4.38-32.46-69.88-9.43c28.53-18.09,57.32-36.3,60.42-38.03l-8-14.29-7.87-14.36c-4.06,2.24-61.67,38.75-86.46,54.49ZM1113.15,97.71l-3.12,10.27-38.37,126.2-3.39-.89c.35-16.23-3.17-32.51-10.35-47.25-5.39-11.05-12.74-20.99-21.59-29.38,15.72-30.07,44.21-51.56,76.83-58.95ZM1281.03,237.65c-58.89,35.6-122.79-11.89-122.79-11.89l-34.68,109.47-114.23-34.68c-.35.22-.7.43-1.05.64-1,.6-2.01,1.19-3.03,1.74l-57.56,213.1c-8.72-2.51-48.78-14.04-204.69-58.93,15.66-33.19,34.14-53.34,53.15-64.83,58.9-35.6,122.79,11.89,122.79,11.89l24.52-94.34c-.61-.17-1.23-.34-1.84-.53l-3.43-1.07c-37.74-11.71-59.99-54.35-55.39-93.6l12.13-38.75-30.79-199.8,51.34-12.39,2.13,148.16,35.53-177.41,57.52,5.63-48.86,164.66,70.23-123.25,41.52,29.51-90.76,139.09,17.64,6.43c35.64,16.52,53.7,55.28,45.65,91.94l39.34,10.37,44.07-144.94c8.72,2.51,48.78,14.04,204.69,58.93-15.66,33.19-34.14,53.34-53.15,64.83Z"/>
        </g>
        <g>
          <path class="cls-8" d="M2117.22,322.1l-119.94,93.65c-10.93-23.28-31.89-41.64-58.89-48.27l-30.36-7.46-47.52-219.93-54.18,10.58,43.89,178.92-95.14-166.28-60.2,34.78,118.05,159.15-115.3-123.13-50.93,37.78,175.64,147.46,3.08,40.22c1.86,24.29,13.5,45.83,31.03,60.68l-125.49,88.35s-42.86-149.47-191.96-72.26c120.3,162.18,144.38,194.65,148.36,200.02l276.79-208.24c3.85-2.41,7.5-5.12,10.94-8.09l277.04-202.59c-3.98-5.37-28.06-37.83-148.36-200.02-117.15,120.28,13.45,204.67,13.45,204.67ZM1896.09,489.44c-13.81,10.24-33.3,7.35-43.55-6.46-8.62-11.63-7.9-27.26.77-38.04-2.3,5.13-1.84,11.32,1.75,16.16,5.29,7.13,15.36,8.63,22.49,3.34s8.62-15.36,3.33-22.49c-3.59-4.84-9.38-7.07-14.96-6.36,12.83-5.17,28-1.33,36.62,10.3,10.24,13.81,7.35,33.3-6.46,43.55ZM1958.54,443.12c-13.81,10.24-33.3,7.35-43.55-6.46-8.62-11.63-7.9-27.26.77-38.04-2.3,5.13-1.84,11.32,1.75,16.16,5.29,7.13,15.36,8.62,22.49,3.34,7.13-5.29,8.62-15.36,3.33-22.49-3.59-4.84-9.38-7.07-14.96-6.36,12.83-5.17,28-1.33,36.62,10.3,10.24,13.81,7.35,33.3-6.46,43.55Z"/>
          <path d="M2096.89,110.73c-38.21,39.23-55.32,79.26-50.83,118.97,5.2,46.03,38,78.44,55.33,92.57l-101.11,78.94c-3.73-5.97-8.08-11.45-12.92-16.41,21.66-20.46,37.5-46.49,45.65-75.69,11.21-40.16,6.92-82.72-12.07-119.83l-13.95-27.25c8.73-31.82,28.69-104.76,29.74-109.84l-37.62-7.94c-.86,3.76-10.5,39.25-20.11,74.39l-31.87-69.13-34.91,16.1,27.74,60.16-52.27-30.34-19.3,33.25,71.79,41.67-48.96,30.51,20.33,32.63,66.26-41.29,2.04,1.19,6.87,13.42c27.28,53.3,12.82,118.53-32.3,155.81-4.43-1.8-9.01-3.3-13.74-4.46l-24.53-6.03-48.24-223.27-73.32,14.32,29.99,122.26-65.95-115.27-77.89,45,24.45,32.96-6.4-6.83-67.59,50.14,181.87,152.69,1.67,21.83c-47.51,25.32-108.07,18.31-148.21-20.41l-10.85-10.46-.54-2.3,58.74-51.42-25.32-28.93-43.4,38-19.05-80.78-37.42,8.82,13.87,58.83-49.52-44-25.54,28.74,56.9,50.56c-36.42-1.01-73.19-2.08-77.03-2.34l-1.57,19.16-1.74,19.14c5.16.47,80.76,2.53,113.74,3.41l22.03,21.26c30.01,28.95,69.49,45.4,111.17,46.33,24.4.54,48.29-4.28,70.17-13.9,4.37,12.36,11.2,23.72,20.2,33.48l-105.66,74.39c-8.5-20.68-29.99-61.48-72.53-79.81-36.7-15.81-79.97-11.06-128.6,14.12l-10.03,5.19,160.85,216.86,284.2-213.82c3.97-2.51,7.82-5.36,11.46-8.48l284.55-208.07-160.85-216.86-7.88,8.09ZM2238.65,315.41l-269.23,196.87-.32.23-.3.26c-3.09,2.67-6.37,5.1-9.75,7.21l-.35.22-269.39,202.67-135.72-182.97c38.97-18,73.2-20.9,101.85-8.6,48.64,20.87,66.1,79.39,66.27,79.96l3.72,12.99,146.7-103.29-9.49-8.04c-16.22-13.73-26.04-32.93-27.66-54.07l-3.39-44.25-169.41-142.23,34.27-25.42,109.44,116.88,14.74-12.3-111.63-150.5,42.51-24.56,90.35,157.9,17.68-7.06-41.49-169.13,35.04-6.85,46.8,216.59,36.19,8.89c23.19,5.69,42.32,21.38,52.48,43.02l5.12,10.9,140.09-109.38-11.35-7.33c-.51-.33-51.32-33.73-57.28-86.49-3.51-31.04,9.2-63,37.77-95.11l135.72,182.97Z"/>
        </g>
      </g>
    </g>
    <g class="cls-10">
      <path d="M1190.97,69.2l-27.32-4.84c-36.57-6.47-73.88,1.04-105.19,21.04-6.43,4.12-12.47,8.71-18.11,13.69l50.23-76.98,10.68-16.37-15.93-11.32-41.52-29.51-15.94-11.33,2.29-7.72,7.01-23.63-24.53-2.4-57.52-5.63-18.31-1.79-3.61,18.04-1.69,8.45-20.79,5.02-51.34,12.39-18.18,4.39,2.85,18.48,30.07,195.14-10.72,34.25-.57,1.82-.22,1.89c-1.71,14.56-.44,29.48,3.56,43.71l-2.58,1.51c-51.15,29.97-117.83,15.39-151.81-33.2l-7.88-11.27-.11-2.86,60.92-35.37-16.44-28.32-45.9,26.65-2.91-75.7-32.73,1.26,2.18,56.76-37.59-49.31-26.05,19.85,42.74,56.07c-32.96-7.39-66.19-14.9-69.61-15.82l-4.45,15.76-4.59,15.72c4.45,1.3,71.01,16.21,99.67,22.61l15.9,22.74c21.28,30.43,52.98,51.56,89.26,59.5,36.05,7.88,73.41,2.03,105.32-16.46,10.11,16.03,23.81,28.56,39.64,36.37l-13.22,50.88c-27.8-12.99-74.66-26.07-120.3,1.52-24.44,14.77-44.97,39.52-61.02,73.56l-10.19,21.61,22.96,6.61,204.69,58.93,19.87,5.72,5.39-19.96,53-196.2,97.33,29.55,19.23,5.84,6.07-19.15,27.05-85.38c27.64,13.17,75.22,27.08,121.55-.93,24.44-14.77,44.97-39.52,61.02-73.56l10.19-21.61-22.96-6.61-89.28-25.7-13.59-12.59,61.45,8.29,4.38-32.46-69.88-9.43c28.53-18.09,57.32-36.3,60.42-38.03l-8-14.29-7.87-14.36c-4.06,2.24-61.67,38.75-86.46,54.49ZM1113.15,97.71l-3.12,10.27-38.37,126.2-3.39-.89c.35-16.23-3.17-32.51-10.35-47.25-5.39-11.05-12.74-20.99-21.59-29.38,15.72-30.07,44.21-51.56,76.83-58.95ZM1281.03,237.65c-58.89,35.6-122.79-11.89-122.79-11.89l-34.68,109.47-114.23-34.68c-.35.22-.7.43-1.05.64-1,.6-2.01,1.19-3.03,1.74l-57.56,213.1c-8.72-2.51-48.78-14.04-204.69-58.93,15.66-33.19,34.14-53.34,53.15-64.83,58.9-35.6,122.79,11.89,122.79,11.89l24.52-94.34c-.61-.17-1.23-.34-1.84-.53l-3.43-1.07c-37.74-11.71-59.99-54.35-55.39-93.6l12.13-38.75-30.79-199.8,51.34-12.39,2.13,148.16,35.53-177.41,57.52,5.63-48.86,164.66,70.23-123.25,41.52,29.51-90.76,139.09,17.64,6.43c35.64,16.52,53.7,55.28,45.65,91.94l39.34,10.37,44.07-144.94c8.72,2.51,48.78,14.04,204.69,58.93-15.66,33.19-34.14,53.34-53.15,64.83Z"/>
      <g>
        <path class="cls-8" d="M117.22,322.1L-2.72,415.76c-10.93-23.28-31.89-41.64-58.89-48.27l-30.36-7.46-47.52-219.93-54.18,10.58,43.89,178.92-95.14-166.28-60.2,34.78,118.05,159.15-115.3-123.13-50.93,37.78,175.64,147.46,3.08,40.22c1.86,24.29,13.5,45.83,31.03,60.68l-125.49,88.35s-42.86-149.47-191.96-72.26c120.3,162.18,144.38,194.65,148.36,200.02L-35.85,528.13c3.85-2.41,7.5-5.12,10.94-8.09l277.04-202.59c-3.98-5.37-28.06-37.83-148.36-200.02-117.15,120.28,13.45,204.67,13.45,204.67ZM-103.91,489.44c-13.81,10.24-33.3,7.35-43.55-6.46-8.62-11.63-7.9-27.26.77-38.04-2.3,5.13-1.84,11.32,1.75,16.16,5.29,7.13,15.36,8.63,22.49,3.34s8.62-15.36,3.33-22.49c-3.59-4.84-9.38-7.07-14.96-6.36,12.83-5.17,28-1.33,36.62,10.3,10.24,13.81,7.35,33.3-6.46,43.55ZM-41.46,443.12c-13.81,10.24-33.3,7.35-43.55-6.46-8.62-11.63-7.9-27.26.77-38.04-2.3,5.13-1.84,11.32,1.75,16.16,5.29,7.13,15.36,8.62,22.49,3.34s8.62-15.36,3.33-22.49c-3.59-4.84-9.38-7.07-14.96-6.36,12.83-5.17,28-1.33,36.62,10.3,10.24,13.81,7.35,33.3-6.46,43.55Z"/>
        <path d="M96.89,110.73c-38.21,39.23-55.32,79.26-50.83,118.97,5.2,46.03,38,78.44,55.33,92.57L.28,401.22c-3.73-5.97-8.08-11.45-12.92-16.41,21.66-20.46,37.5-46.49,45.65-75.69,11.21-40.16,6.92-82.72-12.07-119.83l-13.95-27.25c8.73-31.82,28.69-104.76,29.74-109.84L-.89,44.25c-.86,3.76-10.5,39.25-20.11,74.39l-31.87-69.13-34.91,16.1,27.74,60.16-52.27-30.34-19.3,33.25,71.79,41.67-48.96,30.51,20.33,32.63,66.26-41.29,2.04,1.19,6.87,13.42c27.28,53.3,12.82,118.53-32.3,155.81-4.43-1.8-9.01-3.3-13.74-4.46l-24.53-6.03-48.24-223.27-73.32,14.32,29.99,122.26-65.95-115.27-77.89,45,24.45,32.96-6.4-6.83-67.59,50.14,181.87,152.69,1.67,21.83c-47.51,25.32-108.07,18.31-148.21-20.41l-10.85-10.46-.54-2.3,58.74-51.42-25.32-28.93-43.4,38-19.05-80.78-37.42,8.82,13.87,58.83-49.52-44-25.54,28.74,56.9,50.56c-36.42-1.01-73.19-2.08-77.03-2.34l-1.57,19.16-1.74,19.14c5.16.47,80.76,2.53,113.74,3.41l22.03,21.26c30.01,28.95,69.49,45.4,111.17,46.33,24.4.54,48.29-4.28,70.17-13.9,4.37,12.36,11.2,23.72,20.2,33.48l-105.66,74.39c-8.5-20.68-29.99-61.48-72.53-79.81-36.7-15.81-79.97-11.06-128.6,14.12l-10.03,5.19,160.85,216.86L-30.4,536.05c3.97-2.51,7.82-5.36,11.46-8.48l284.55-208.07L104.77,102.64l-7.88,8.09ZM238.65,315.41L-30.58,512.28l-.32.23-.3.26c-3.09,2.67-6.37,5.1-9.75,7.21l-.35.22-269.39,202.67-135.72-182.97c38.97-18,73.2-20.9,101.85-8.6,48.64,20.87,66.1,79.39,66.27,79.96l3.72,12.99,146.7-103.29-9.49-8.04c-16.22-13.73-26.04-32.93-27.66-54.07l-3.39-44.25-169.41-142.23,34.27-25.42,109.44,116.88,14.74-12.3-111.63-150.5,42.51-24.56,90.35,157.9,17.68-7.06-41.49-169.13,35.04-6.85,46.8,216.59,36.19,8.89c23.19,5.69,42.32,21.38,52.48,43.02l5.12,10.9,140.09-109.38-11.35-7.33c-.51-.33-51.32-33.73-57.28-86.49-3.51-31.04,9.2-63,37.77-95.11l135.72,182.97Z"/>
      </g>
    </g>
    <g class="cls-3">
      <path d="M1190.97,2069.2l-27.32-4.84c-36.57-6.47-73.88,1.04-105.19,21.04-6.43,4.12-12.47,8.71-18.11,13.69l50.23-76.98,10.68-16.37-15.93-11.32-41.52-29.51-15.94-11.33,2.29-7.72,7.01-23.63-24.53-2.4-57.52-5.63-18.31-1.79-3.61,18.04-1.69,8.45-20.79,5.02-51.34,12.39-18.18,4.39,2.85,18.48,30.07,195.14-10.72,34.25-.57,1.82-.22,1.89c-1.71,14.56-.44,29.48,3.56,43.71l-2.58,1.51c-51.15,29.97-117.83,15.39-151.81-33.2l-7.88-11.27-.11-2.86,60.92-35.37-16.44-28.32-45.9,26.65-2.91-75.7-32.73,1.26,2.18,56.76-37.59-49.31-26.05,19.85,42.74,56.07c-32.96-7.39-66.19-14.9-69.61-15.82l-4.45,15.76-4.59,15.72c4.45,1.3,71.01,16.21,99.67,22.61l15.9,22.74c21.28,30.43,52.98,51.56,89.26,59.5,36.05,7.88,73.41,2.03,105.32-16.46,10.11,16.03,23.81,28.56,39.64,36.37l-13.22,50.88c-27.8-12.99-74.66-26.07-120.3,1.52-24.44,14.77-44.97,39.52-61.02,73.56l-10.19,21.61,22.96,6.61,204.69,58.93,19.87,5.72,5.39-19.96,53-196.2,97.33,29.55,19.23,5.84,6.07-19.15,27.05-85.38c27.64,13.17,75.22,27.08,121.55-.93,24.44-14.77,44.97-39.52,61.02-73.56l10.19-21.61-22.96-6.61-89.28-25.7-13.59-12.59,61.45,8.29,4.38-32.46-69.88-9.43c28.53-18.09,57.32-36.3,60.42-38.03l-8-14.29-7.87-14.36c-4.06,2.24-61.67,38.75-86.46,54.49ZM1113.15,2097.71l-3.12,10.27-38.37,126.2-3.39-.89c.35-16.23-3.17-32.51-10.35-47.25-5.39-11.05-12.74-20.99-21.59-29.38,15.72-30.07,44.21-51.56,76.83-58.95ZM1281.03,2237.65c-58.89,35.6-122.79-11.89-122.79-11.89l-34.68,109.47-114.23-34.68c-.35.22-.7.43-1.05.64-1,.6-2.01,1.19-3.03,1.74l-57.56,213.1c-8.72-2.51-48.78-14.04-204.69-58.93,15.66-33.19,34.14-53.34,53.15-64.83,58.9-35.6,122.79,11.89,122.79,11.89l24.52-94.34c-.61-.17-1.23-.34-1.84-.53l-3.43-1.07c-37.74-11.71-59.99-54.35-55.39-93.6l12.13-38.75-30.79-199.8,51.34-12.39,2.13,148.16,35.53-177.41,57.52,5.63-48.86,164.66,70.23-123.25,41.52,29.51-90.76,139.09,17.64,6.43c35.64,16.52,53.7,55.28,45.65,91.94l39.34,10.37,44.07-144.94c8.72,2.51,48.78,14.04,204.69,58.93-15.66,33.19-34.14,53.34-53.15,64.83Z"/>
      <g>
        <g>
          <path class="cls-6" d="M-.17,1324.93l11.92-.78c35.52-2.31,64.22-11.63,85.31-27.71h0c45.52-34.7,43.96-90.03,40.31-115.62l111.41,7.69,9.9-121.84,222.65,25.03,22.43-234.22-11.92.78c-35.52,2.31-64.22,11.63-85.31,27.71-45.09,34.37-43.99,88.99-40.41,114.89l-73.38-8.96c.8-40.79-31.14-80.78-74.47-92.26l-.92-.24-39.1-2.84L-2.35,791.08l-43.07,61.27,60.43,24.85-93.07-16.76-21.78,76.26,95.47,8.36-64.2,9.19,17.26,69.85,159.72-32.77-.17,6.4.02.43c2.3,39.52,30.19,73.26,67.73,83.58l-2.55,21.51-151.22-12.21L-.17,1324.93ZM201.5,927.57c9.24-8.61,22.24-10.6,33.25-6.24-3.1.49-6.1,1.88-8.57,4.18-6.61,6.16-6.98,16.51-.82,23.12,6.16,6.61,16.51,6.98,23.12.82,2.47-2.3,4.07-5.19,4.78-8.25,3.56,11.29.66,24.12-8.58,32.72-12.8,11.93-32.85,11.21-44.77-1.59-11.93-12.8-11.21-32.85,1.59-44.77ZM143.6,981.51c8.95-8.34,21.44-10.48,32.22-6.65-2.4.69-4.68,1.92-6.63,3.74-6.61,6.16-6.98,16.51-.82,23.12,6.16,6.61,16.51,6.98,23.12.82,1.95-1.82,3.34-4,4.2-6.34,3.06,11.03.04,23.33-8.91,31.67-12.8,11.93-32.85,11.21-44.77-1.59-11.93-12.8-11.21-32.85,1.59-44.77Z"/>
          <path class="cls-6" d="M118.48,1052.25s0,.08-.01.12h0s0-.04.01-.12Z"/>
          <path d="M-115.16,1203.19l10.47,12.59,10.36,12.68c2.75-2.24,30.26-22.35,57.55-42.25l-16.87,68.47,31.8,7.84,14.84-60.2,6.72,17.27-8.86,92.48-2.28,23.78,23.84-1.55c37.55-2.44,68.11-12.46,90.82-29.77,43.06-32.82,47.59-82.18,45.48-112.72l89.35,6.17,20.05,1.38,1.63-20.03,8.23-101.38,201.96,22.71,20.55,2.31,1.97-20.58,20.31-212.03,2.28-23.78-23.84,1.55c-37.55,2.44-68.11,12.46-90.82,29.77-42.42,32.34-47.44,80.72-45.57,111.35l-52.18-6.37c-1.46-17.6-8.09-34.94-19.29-50.23,28.91-22.9,48.07-55.51,53.97-91.93,5.93-36.66-2.09-73.9-22.59-104.86l-15.32-23.14c4.56-29.01,15.12-96.4,15.55-101.01l-16.31-1.5-16.29-1.64c-.4,3.51-5.61,37.18-10.83,70.56l-36.48-60.33-28.03,16.94,32.08,53.06-52-22.86-13.18,29.98,69.35,30.49-41.63,32.92,20.31,25.69,55.26-43.69,2.62,1.15,7.59,11.47c32.73,49.43,21.82,116.81-24.83,153.4l-2.35,1.84c-11.77-8.95-25.18-15.6-39.35-19.36l-1.84-.49-1.9-.14-35.79-2.59L10.85,787.01l-16.14-9.43-10.75,15.3-30.37,43.21-12.3,17.5-8.49-1.53-18.11-3.26-5.05,17.69-15.87,55.57-6.77,23.7,24.55,2.15,8.02.7,4.69,18.99,12.22,49.45,4.69,18.97,19.14-3.93,90.04-18.47c-6.71,3.42-13.19,7.35-19.38,11.82-30.1,21.78-50.78,53.73-58.18,90.13l-5.53,27.19c-23.74,17.29-78.84,57.48-82.42,60.43ZM105.37,1031.01c4.55,11.31,11.1,21.79,19.4,30.86,11.07,12.09,24.92,21.34,40.15,26.97l-.41,3.48-131.48-10.62-10.7-.86c18.85-27.63,49.29-46.24,83.03-49.83ZM11.09,1314.01c15.47-161.5,19.44-203,20.31-212.03l151,12.2,4.79-40.4c-37.06-5.98-66.48-37-68.77-76.21l.5-18.77-162.7,33.38-12.22-49.45,140.42-20.1-171.11-14.98,15.87-55.57,178.07,32.06-137.04-56.36L.6,804.57l174.56,101.97,40.5,2.94c38.2,10.12,69.7,46.47,66.74,85.87l-.27,3.59c-.05.64-.12,1.27-.19,1.91l96.75,11.82s-20.72-76.86,34-118.58c17.67-13.47,43.19-23.27,79.81-25.65-15.47,161.5-19.44,203-20.31,212.03l-219.35-24.66c-.89.75-1.81,1.47-2.73,2.18-.33.25-.65.49-.98.74l-9.67,118.98-114.56-7.91s20.73,76.86-34,118.58c-17.67,13.47-43.19,23.27-79.81,25.65Z"/>
          <path class="cls-6" d="M118.66,1050.32c.02-.22.03-.27,0,0h0Z"/>
          <path class="cls-6" d="M118.48,1052.25c.07-.7.11-1.2.15-1.53-.05.53-.12,1.25-.15,1.53Z"/>
          <path class="cls-6" d="M118.63,1050.72c.01-.11.02-.22.03-.3,0,.08-.02.18-.03.3Z"/>
          <path class="cls-6" d="M118.65,1050.41s0-.07,0-.1c0,.03,0,.06,0,.1Z"/>
        </g>
        <g>
          <path class="cls-8" d="M593.66,1976.75c60.54-126.28-76.69-140.44-76.69-140.44l80.73-76.34c8.22-5.69,15.46-12.57,21.52-20.35l.08-.1c17.03-21.91,24.77-50.86,18.65-80.24l-7.08-34,197.67-153.03-36.57-49.24-158.3,129.74,121.07-175.05-63.71-43.67-102.95,194.6,68.16-174.58-62.27-32.94-63.63,246.71-38.84,22.36c-38.67,22.27-57.15,67.58-45.89,110.1l-77.83,51.96s-80.44-124.15-186.79-2.04c177.2,99.35,179.02,100.4,179.03,100.41l118.27-96.61c4.26,4.65,9.83,8.56,13.28,10.44l-111.45,97.94s20.61,12.3,213.55,114.37ZM519.57,1679.92c2.56,1.35,5.29,2,8,2.05-10.22,7.06-23.9,8.35-35.64,2.14-16.78-8.88-23.19-29.68-14.31-46.47,8.88-16.78,29.68-23.19,46.47-14.31,11.74,6.21,18.37,18.25,18.28,30.67-1.56-2.21-3.63-4.11-6.19-5.46-8.67-4.59-19.41-1.28-24,7.39-4.59,8.67-1.28,19.41,7.39,24ZM600,1663.49c12.11,6.41,18.78,19.03,18.24,31.87-1.61-3-4.1-5.58-7.34-7.29-8.67-4.59-19.41-1.28-24,7.39-4.59,8.67-1.28,19.41,7.39,24,3.24,1.71,6.77,2.32,10.16,1.96-10.31,7.67-24.49,9.26-36.61,2.85-16.78-8.88-23.19-29.68-14.31-46.47,8.88-16.78,29.68-23.19,46.47-14.31Z"/>
          <path d="M603.92,1981.67c19.7-41.1,21.84-75.97,6.35-103.63-16.25-29.02-47.95-42.46-69.59-48.48l64.23-60.73c8.81-6.2,16.64-13.67,23.37-22.31,19.78-25.43,27.36-58.07,20.81-89.55l-5.63-27.04,200.87-155.51-50.35-67.77-104.88,85.95,81.5-117.83-83.67-57.34-16.53,31.24-83.86-44.36-66.04,256.04-34.7,19.97c-17.74,10.22-31.74,24.88-41.16,41.95l-5.7-2.42c-47.14-20.03-71.42-73.81-55.23-122.42l2.24-6.74c10.22,5.31,18.85,2.96,22.16,1.66,12.91-5.08,20.12-19.94,19.22-38.28l38.03-30.6-17.75-22.06-38.25,30.78,14.83-51.49-27.2-7.83-14.85,51.57c-18.28,4-28.33,22.76-27.5,39.42.31,6.25,2.15,11.67,5.1,15.92l-2.9,8.71c-10.14,30.45-8.46,63.34,4.74,92.59,11.7,25.93,31.51,46.96,56.43,60.15,3.2,1.69,6.48,3.25,9.84,4.68l6.39,2.71c-3.76,14.97-4.41,30.81-1.49,46.54l-62.34,41.61c-13.13-16.28-44.3-48.36-87.95-51.46-37.56-2.66-74.6,16.65-110.1,57.42l-9.19,10.55,12.21,6.85c169.89,95.25,178.53,100.12,178.96,100.37l6.49,3.65,13.41,8.01c.85.51,23.06,13.62,214.06,114.66l10.47,5.54,5.12-10.68ZM399.73,1860.28l111.61-98.08-14.35-7.78c-2.75-1.49-7.14-4.67-10.31-8.12l-7.26-7.92-120.59,98.5-15.97-8.96c-21.41-12.01-62.99-35.33-143.75-80.61,27.35-27.95,54.78-41.17,81.65-39.32,46.1,3.19,77.16,49.97,77.46,50.42l6.27,9.68,94.19-62.88-2.08-7.86c-10.01-37.79,6.67-77.81,40.57-97.32l42.99-24.75,61.23-237.39,40.56,21.46-64.47,165.13,20.66,9.46,96.99-183.32,43.76,30-114.57,165.65,16.57,15.27,149.07-122.17,22.81,30.7-194.47,150.56,8.52,40.97c5.19,24.93-.82,50.78-16.56,71.02-5.41,6.95-11.82,13-19.02,17.99l-.71.49-99.29,93.9,24.56,2.61c.55.06,54.94,6.23,74.67,41.6,10.35,18.56,9.59,42.66-2.24,71.76-117.9-62.41-167.86-89.4-188.48-100.71Z"/>
        </g>
      </g>
      <path d="M1190.97,69.2l-27.32-4.84c-36.57-6.47-73.88,1.04-105.19,21.04-6.43,4.12-12.47,8.71-18.11,13.69l50.23-76.98,10.68-16.37-15.93-11.32-41.52-29.51-15.94-11.33,2.29-7.72,7.01-23.63-24.53-2.4-57.52-5.63-18.31-1.79-3.61,18.04-1.69,8.45-20.79,5.02-51.34,12.39-18.18,4.39,2.85,18.48,30.07,195.14-10.72,34.25-.57,1.82-.22,1.89c-1.71,14.56-.44,29.48,3.56,43.71l-2.58,1.51c-51.15,29.97-117.83,15.39-151.81-33.2l-7.88-11.27-.11-2.86,60.92-35.37-16.44-28.32-45.9,26.65-2.91-75.7-32.73,1.26,2.18,56.76-37.59-49.31-26.05,19.85,42.74,56.07c-32.96-7.39-66.19-14.9-69.61-15.82l-4.45,15.76-4.59,15.72c4.45,1.3,71.01,16.21,99.67,22.61l15.9,22.74c21.28,30.43,52.98,51.56,89.26,59.5,36.05,7.88,73.41,2.03,105.32-16.46,10.11,16.03,23.81,28.56,39.64,36.37l-13.22,50.88c-27.8-12.99-74.66-26.07-120.3,1.52-24.44,14.77-44.97,39.52-61.02,73.56l-10.19,21.61,22.96,6.61,204.69,58.93,19.87,5.72,5.39-19.96,53-196.2,97.33,29.55,19.23,5.84,6.07-19.15,27.05-85.38c27.64,13.17,75.22,27.08,121.55-.93,24.44-14.77,44.97-39.52,61.02-73.56l10.19-21.61-22.96-6.61-89.28-25.7-13.59-12.59,61.45,8.29,4.38-32.46-69.88-9.43c28.53-18.09,57.32-36.3,60.42-38.03l-8-14.29-7.87-14.36c-4.06,2.24-61.67,38.75-86.46,54.49ZM1113.15,97.71l-3.12,10.27-38.37,126.2-3.39-.89c.35-16.23-3.17-32.51-10.35-47.25-5.39-11.05-12.74-20.99-21.59-29.38,15.72-30.07,44.21-51.56,76.83-58.95ZM1281.03,237.65c-58.89,35.6-122.79-11.89-122.79-11.89l-34.68,109.47-114.23-34.68c-.35.22-.7.43-1.05.64-1,.6-2.01,1.19-3.03,1.74l-57.56,213.1c-8.72-2.51-48.78-14.04-204.69-58.93,15.66-33.19,34.14-53.34,53.15-64.83,58.9-35.6,122.79,11.89,122.79,11.89l24.52-94.34c-.61-.17-1.23-.34-1.84-.53l-3.43-1.07c-37.74-11.71-59.99-54.35-55.39-93.6l12.13-38.75-30.79-199.8,51.34-12.39,2.13,148.16,35.53-177.41,57.52,5.63-48.86,164.66,70.23-123.25,41.52,29.51-90.76,139.09,17.64,6.43c35.64,16.52,53.7,55.28,45.65,91.94l39.34,10.37,44.07-144.94c8.72,2.51,48.78,14.04,204.69,58.93-15.66,33.19-34.14,53.34-53.15,64.83Z"/>
      <g>
        <path class="cls-8" d="M117.22,322.1L-2.72,415.76c-10.93-23.28-31.89-41.64-58.89-48.27l-30.36-7.46-47.52-219.93-54.18,10.58,43.89,178.92-95.14-166.28-60.2,34.78,118.05,159.15-115.3-123.13-50.93,37.78,175.64,147.46,3.08,40.22c1.86,24.29,13.5,45.83,31.03,60.68l-125.49,88.35s-42.86-149.47-191.96-72.26c120.3,162.18,144.38,194.65,148.36,200.02L-35.85,528.13c3.85-2.41,7.5-5.12,10.94-8.09l277.04-202.59c-3.98-5.37-28.06-37.83-148.36-200.02-117.15,120.28,13.45,204.67,13.45,204.67ZM-103.91,489.44c-13.81,10.24-33.3,7.35-43.55-6.46-8.62-11.63-7.9-27.26.77-38.04-2.3,5.13-1.84,11.32,1.75,16.16,5.29,7.13,15.36,8.63,22.49,3.34s8.62-15.36,3.33-22.49c-3.59-4.84-9.38-7.07-14.96-6.36,12.83-5.17,28-1.33,36.62,10.3,10.24,13.81,7.35,33.3-6.46,43.55ZM-41.46,443.12c-13.81,10.24-33.3,7.35-43.55-6.46-8.62-11.63-7.9-27.26.77-38.04-2.3,5.13-1.84,11.32,1.75,16.16,5.29,7.13,15.36,8.62,22.49,3.34,7.13-5.29,8.62-15.36,3.33-22.49-3.59-4.84-9.38-7.07-14.96-6.36,12.83-5.17,28-1.33,36.62,10.3,10.24,13.81,7.35,33.3-6.46,43.55Z"/>
        <path d="M96.89,110.73c-38.21,39.23-55.32,79.26-50.83,118.97,5.2,46.03,38,78.44,55.33,92.57L.28,401.22c-3.73-5.97-8.08-11.45-12.92-16.41,21.66-20.46,37.5-46.49,45.65-75.69,11.21-40.16,6.92-82.72-12.07-119.83l-13.95-27.25c8.73-31.82,28.69-104.76,29.74-109.84L-.89,44.25c-.86,3.76-10.5,39.25-20.11,74.39l-31.87-69.13-34.91,16.1,27.74,60.16-52.27-30.34-19.3,33.25,71.79,41.67-48.96,30.51,20.33,32.63,66.26-41.29,2.04,1.19,6.87,13.42c27.28,53.3,12.82,118.53-32.3,155.81-4.43-1.8-9.01-3.3-13.74-4.46l-24.53-6.03-48.24-223.27-73.32,14.32,29.99,122.26-65.95-115.27-77.89,45,24.45,32.96-6.4-6.83-67.59,50.14,181.87,152.69,1.67,21.83c-47.51,25.32-108.07,18.31-148.21-20.41l-10.85-10.46-.54-2.3,58.74-51.42-25.32-28.93-43.4,38-19.05-80.78-37.42,8.82,13.87,58.83-49.52-44-25.54,28.74,56.9,50.56c-36.42-1.01-73.19-2.08-77.03-2.34l-1.57,19.16-1.74,19.14c5.16.47,80.76,2.53,113.74,3.41l22.03,21.26c30.01,28.95,69.49,45.4,111.17,46.33,24.4.54,48.29-4.28,70.17-13.9,4.37,12.36,11.2,23.72,20.2,33.48l-105.66,74.39c-8.5-20.68-29.99-61.48-72.53-79.81-36.7-15.81-79.97-11.06-128.6,14.12l-10.03,5.19,160.85,216.86L-30.4,536.05c3.97-2.51,7.82-5.36,11.46-8.48l284.55-208.07L104.77,102.64l-7.88,8.09ZM238.65,315.41L-30.58,512.28l-.32.23-.3.26c-3.09,2.67-6.37,5.1-9.75,7.21l-.35.22-269.39,202.67-135.72-182.97c38.97-18,73.2-20.9,101.85-8.6,48.64,20.87,66.1,79.39,66.27,79.96l3.72,12.99,146.7-103.29-9.49-8.04c-16.22-13.73-26.04-32.93-27.66-54.07l-3.39-44.25-169.41-142.23,34.27-25.42,109.44,116.88,14.74-12.3-111.63-150.5,42.51-24.56,90.35,157.9,17.68-7.06-41.49-169.13,35.04-6.85,46.8,216.59,36.19,8.89c23.19,5.69,42.32,21.38,52.48,43.02l5.12,10.9,140.09-109.38-11.35-7.33c-.51-.33-51.32-33.73-57.28-86.49-3.51-31.04,9.2-63,37.77-95.11l135.72,182.97Z"/>
      </g>
    </g>
  </g>
  <g class="cls-9">
    <g class="cls-1">
      <g>
        <path class="cls-4" d="M1706.88,195.54l3.21,30.11s-37.49,36.91-45.44,35.3c-7.95-1.61-57.01,13.34-57.01,13.34l-25.21-10.92-14.14-31.12s1.59-20.37,8.69-28.24c8.73-9.68,26.9-10.96,28.29-11.11,2.52-.27,75.12-30.37,75.12-30.37l25.06,19.68,1.42,13.32Z"/>
        <g>
          <path class="cls-6" d="M1805.51,101.35l-44.14,145.15-20.95-5.52c4.18-38.72-16.97-77.04-52.89-93.68l-.39-.18-6.01-2.19,89.1-136.55-58.64-41.69-32.11,56.34,27.27-91.88-78.93-7.72-18.57,92.72-.94-65.33-72.8,17.58,31.85,206.71-11.71,37.41-.11.95c-5.22,44.52,20.26,88.91,58.49,103.14l-18.6,71.55c-22.78-12.83-73.18-33.9-121.7-4.57-22.7,13.72-41.9,37-57.09,69.19l-5.1,10.8,226.11,65.09,58.43-216.3,116.97,35.51,33.73-106.46c22.46,12.79,73.36,34.54,122.34,4.93h0c22.69-13.72,41.9-37,57.08-69.19l5.1-10.8-225.8-65ZM1629.88,223.08c7.53,15.79.84,34.7-14.96,42.23-11.4,5.44-24.4,3.43-33.59-4.03,3.11.46,6.38.03,9.43-1.42,8.16-3.89,11.61-13.66,7.72-21.81-3.89-8.16-13.66-11.61-21.81-7.72-3.05,1.45-5.44,3.73-7.04,6.43,0-11.84,6.61-23.2,18.01-28.64,15.79-7.53,34.7-.84,42.23,14.96ZM1701.31,189.01c7.53,15.79.84,34.7-14.96,42.23-11.04,5.27-23.59,3.56-32.73-3.33,2.49.06,5.04-.43,7.44-1.58,8.16-3.89,11.61-13.66,7.72-21.81-3.89-8.16-13.66-11.61-21.81-7.72-2.41,1.15-4.39,2.81-5.91,4.79.39-11.44,6.96-22.27,18.01-27.53,15.79-7.53,34.7-.84,42.23,14.95Z"/>
          <path class="cls-6" d="M1734.1,176.65s.07.02.11.03h0s-.04-.01-.11-.03Z"/>
          <path class="cls-4" d="M1873.8,69.2l-27.32-4.84c-36.57-6.47-73.88,1.04-105.19,21.04-6.43,4.12-12.47,8.71-18.11,13.69l50.23-76.98,10.68-16.37-15.93-11.32-41.52-29.51-15.94-11.33,2.29-7.72,7.01-23.63-24.53-2.4-57.52-5.63-18.31-1.79-3.61,18.04-1.69,8.45-20.79,5.02-51.34,12.39-18.18,4.39,2.85,18.48,30.07,195.14-10.72,34.25-.57,1.82-.22,1.89c-1.71,14.56-.44,29.48,3.56,43.71l-2.58,1.51c-51.15,29.97-117.83,15.39-151.81-33.2l-7.88-11.27-.11-2.86,60.92-35.37-16.44-28.32-45.9,26.65-2.91-75.7-32.73,1.26,2.18,56.76-37.59-49.31-26.05,19.85,42.74,56.07c-32.96-7.39-66.19-14.9-69.61-15.82l-4.45,15.76-4.59,15.72c4.45,1.3,71.01,16.21,99.67,22.61l15.9,22.74c21.28,30.43,52.98,51.56,89.26,59.5,36.05,7.88,73.41,2.03,105.32-16.46,10.11,16.03,23.81,28.56,39.64,36.37l-13.22,50.88c-27.8-12.99-74.66-26.07-120.3,1.52-24.44,14.77-44.97,39.52-61.02,73.56l-10.19,21.61,22.96,6.61,204.69,58.93,19.87,5.72,5.39-19.96,53-196.2,97.33,29.55,19.23,5.84,6.07-19.15,27.05-85.38c27.64,13.17,75.22,27.08,121.55-.93,24.44-14.77,44.97-39.52,61.02-73.56l10.19-21.61-22.96-6.61-89.28-25.7-13.59-12.59,61.45,8.29,4.38-32.46-69.88-9.43c28.53-18.09,57.32-36.3,60.42-38.03l-8-14.29-7.87-14.36c-4.06,2.24-61.67,38.75-86.46,54.49ZM1795.98,97.71l-3.12,10.27-38.37,126.2-3.39-.89c.35-16.23-3.17-32.51-10.35-47.25-5.39-11.05-12.74-20.99-21.59-29.38,15.72-30.07,44.21-51.56,76.83-58.95ZM1963.86,237.65c-58.89,35.6-122.79-11.89-122.79-11.89l-34.68,109.47-114.23-34.68c-.35.22-.7.43-1.05.64-1,.6-2.01,1.19-3.03,1.74l-57.56,213.1c-8.72-2.51-48.78-14.04-204.69-58.93,15.66-33.19,34.14-53.34,53.15-64.83,58.9-35.6,122.79,11.89,122.79,11.89l24.52-94.34c-.61-.17-1.23-.34-1.84-.53l-3.43-1.07c-37.74-11.71-59.99-54.35-55.39-93.6l12.13-38.75-30.79-199.8,51.34-12.39,2.13,148.16,35.53-177.41,57.52,5.63-48.86,164.66,70.23-123.25,41.52,29.51-90.76,139.09,17.64,6.43c35.64,16.52,53.7,55.28,45.65,91.94l39.34,10.37,44.07-144.94c8.72,2.51,48.78,14.04,204.69,58.93-15.66,33.19-34.14,53.34-53.15,64.83Z"/>
          <path class="cls-6" d="M1732.24,176.11c-.21-.06-.26-.07,0,0h0Z"/>
          <path class="cls-6" d="M1734.1,176.65c-.68-.2-1.16-.33-1.48-.43.51.15,1.21.35,1.48.43Z"/>
          <path class="cls-6" d="M1732.62,176.22c-.11-.03-.21-.06-.29-.08.08.02.18.05.29.08Z"/>
          <path class="cls-6" d="M1732.33,176.14s-.06-.02-.09-.03c.03,0,.06.02.09.03Z"/>
        </g>
      </g>
    </g>
    <g class="cls-2">
      <g>
        <path class="cls-4" d="M1653.19,1041.85v-34.39s46.78-37.16,55.56-34.39c8.78,2.77,65.97-8.2,65.97-8.2l27.15,15.36,7.84,40.6s-39.24,36.21-42.12,36.21-88.47,25.24-88.47,25.24l-25.93-25.24v-15.21Z"/>
        <g>
          <path class="cls-6" d="M1805.51,2101.35l-44.14,145.15-20.95-5.52c4.18-38.72-16.97-77.04-52.89-93.68l-.39-.18-6.01-2.19,89.1-136.55-58.64-41.69-32.11,56.34,27.27-91.88-78.93-7.72-18.57,92.72-.94-65.33-72.8,17.58,31.85,206.71-11.71,37.41-.11.95c-5.22,44.52,20.26,88.91,58.49,103.14l-18.6,71.55c-22.78-12.83-73.18-33.9-121.7-4.57-22.7,13.72-41.9,37-57.09,69.19l-5.1,10.8,226.11,65.09,58.43-216.3,116.97,35.51,33.73-106.46c22.46,12.79,73.36,34.54,122.34,4.93h0c22.69-13.72,41.9-37,57.08-69.19l5.1-10.8-225.8-65ZM1629.88,2223.08c7.53,15.79.84,34.7-14.96,42.23-11.4,5.44-24.4,3.43-33.59-4.03,3.11.46,6.38.03,9.43-1.42,8.16-3.89,11.61-13.66,7.72-21.81-3.89-8.16-13.66-11.61-21.81-7.72-3.05,1.45-5.44,3.73-7.04,6.43,0-11.84,6.61-23.2,18.01-28.64,15.79-7.53,34.7-.84,42.23,14.96ZM1701.31,2189.01c7.53,15.79.84,34.7-14.96,42.23-11.04,5.27-23.59,3.56-32.73-3.33,2.49.06,5.04-.43,7.44-1.58,8.16-3.89,11.61-13.66,7.72-21.81-3.89-8.16-13.66-11.61-21.81-7.72-2.41,1.15-4.39,2.81-5.91,4.79.39-11.44,6.96-22.27,18.01-27.53,15.79-7.53,34.7-.84,42.23,14.95Z"/>
          <path class="cls-4" d="M1873.8,2069.2l-27.32-4.84c-36.57-6.47-73.88,1.04-105.19,21.04-6.43,4.12-12.47,8.71-18.11,13.69l50.23-76.98,10.68-16.37-15.93-11.32-41.52-29.51-15.94-11.33,2.29-7.72,7.01-23.63-24.53-2.4-57.52-5.63-18.31-1.79-3.61,18.04-1.69,8.45-20.79,5.02-51.34,12.39-18.18,4.39,2.85,18.48,30.07,195.14-10.72,34.25-.57,1.82-.22,1.89c-1.71,14.56-.44,29.48,3.56,43.71l-2.58,1.51c-51.15,29.97-117.83,15.39-151.81-33.2l-7.88-11.27-.11-2.86,60.92-35.37-16.44-28.32-45.9,26.65-2.91-75.7-32.73,1.26,2.18,56.76-37.59-49.31-26.05,19.85,42.74,56.07c-32.96-7.39-66.19-14.9-69.61-15.82l-4.45,15.76-4.59,15.72c4.45,1.3,71.01,16.21,99.67,22.61l15.9,22.74c21.28,30.43,52.98,51.56,89.26,59.5,36.05,7.88,73.41,2.03,105.32-16.46,10.11,16.03,23.81,28.56,39.64,36.37l-13.22,50.88c-27.8-12.99-74.66-26.07-120.3,1.52-24.44,14.77-44.97,39.52-61.02,73.56l-10.19,21.61,22.96,6.61,204.69,58.93,19.87,5.72,5.39-19.96,53-196.2,97.33,29.55,19.23,5.84,6.07-19.15,27.05-85.38c27.64,13.17,75.22,27.08,121.55-.93,24.44-14.77,44.97-39.52,61.02-73.56l10.19-21.61-22.96-6.61-89.28-25.7-13.59-12.59,61.45,8.29,4.38-32.46-69.88-9.43c28.53-18.09,57.32-36.3,60.42-38.03l-8-14.29-7.87-14.36c-4.06,2.24-61.67,38.75-86.46,54.49ZM1795.98,2097.71l-3.12,10.27-38.37,126.2-3.39-.89c.35-16.23-3.17-32.51-10.35-47.25-5.39-11.05-12.74-20.99-21.59-29.38,15.72-30.07,44.21-51.56,76.83-58.95ZM1963.86,2237.65c-58.89,35.6-122.79-11.89-122.79-11.89l-34.68,109.47-114.23-34.68c-.35.22-.7.43-1.05.64-1,.6-2.01,1.19-3.03,1.74l-57.56,213.1c-8.72-2.51-48.78-14.04-204.69-58.93,15.66-33.19,34.14-53.34,53.15-64.83,58.9-35.6,122.79,11.89,122.79,11.89l24.52-94.34c-.61-.17-1.23-.34-1.84-.53l-3.43-1.07c-37.74-11.71-59.99-54.35-55.39-93.6l12.13-38.75-30.79-199.8,51.34-12.39,2.13,148.16,35.53-177.41,57.52,5.63-48.86,164.66,70.23-123.25,41.52,29.51-90.76,139.09,17.64,6.43c35.64,16.52,53.7,55.28,45.65,91.94l39.34,10.37,44.07-144.94c8.72,2.51,48.78,14.04,204.69,58.93-15.66,33.19-34.14,53.34-53.15,64.83Z"/>
        </g>
        <g>
          <path class="cls-8" d="M2415.2,1857.18l-130.55-78.19c17.78-18.58,27.37-44.74,23.84-72.32l-3.97-31.01,188.08-123.51-29.38-46.74-151.12,105.36,120.88-148.62-54.12-43.64-105.99,167.43,73.37-151.89-53.58-33.92-74.35,216.94-36.41,17.35c-21.99,10.48-37.9,29.09-45.44,50.79l-127.6-85.27s124.02-93.79-1.69-205.1c-108.01,170.62-129.63,204.77-133.2,210.42l293.92,183.27c3.63,2.72,7.47,5.16,11.48,7.3l288.73,185.54c3.57-5.65,25.19-39.8,133.2-210.42-154.39-66-186.11,86.22-186.11,86.22ZM2179.48,1711.11c-14.53-9.2-18.85-28.43-9.65-42.95,7.74-12.23,22.59-17.19,35.76-12.97-5.62-.3-11.23,2.36-14.45,7.45-4.75,7.5-2.52,17.43,4.98,22.18,7.5,4.75,17.43,2.52,22.18-4.99,3.22-5.09,3.22-11.3.55-16.25,9.44,10.1,11.32,25.64,3.57,37.87-9.2,14.53-28.43,18.85-42.95,9.65ZM2245.18,1752.7c-14.53-9.2-18.85-28.43-9.65-42.95,7.74-12.23,22.59-17.19,35.76-12.97-5.62-.3-11.23,2.36-14.45,7.45-4.75,7.5-2.52,17.43,4.98,22.18,7.5,4.75,17.43,2.52,22.18-4.99,3.22-5.09,3.22-11.3.55-16.25,9.44,10.1,11.32,25.65,3.57,37.88-9.2,14.53-28.43,18.85-42.95,9.65Z"/>
          <path class="cls-4" d="M2605.08,1762.12c-50.36-21.53-93.86-23.08-129.29-4.6-41.08,21.42-59.5,63.69-66.45,84.94l-110.05-65.91c4.22-5.63,7.77-11.66,10.66-17.97,26.89,12.84,56.87,18.25,87.04,15.34,41.5-4,79.66-23.32,107.45-54.4l20.4-22.82c32.83-3.31,108.06-10.94,113.18-11.8l-6.13-37.95c-3.82.55-40.4,4.33-76.64,8.02l53.02-54.62-27.59-26.78-46.14,47.53,9.49-59.69-37.97-6.04-13.04,81.97-46.09-34.69-23.12,30.71,62.38,46.95-.37,2.33-10.05,11.24c-39.91,44.64-105.97,54.63-156.99,25.96.09-4.78-.17-9.6-.78-14.42l-3.21-25.05,190.93-125.38-39.76-63.25-103.26,71.99,83.8-103.03-70.03-56.47-21.95,34.67,4.07-8.43-71.11-45.01-76.98,224.64-19.76,9.42c-40.73-35.21-55.98-94.23-34.31-145.62l5.86-13.89,1.95-1.33,69.12,36.29,17.87-34.04-51.07-26.82,68.51-46.85-21.7-31.74-49.89,34.12,23.22-62.04-36.01-13.48-26.68,71.29c-12.17-34.34-24.41-69.03-25.54-72.71l-18.44,5.44-18.49,5.27c1.42,4.98,26.71,76.25,37.76,107.34l-11.9,28.21c-16.21,38.42-17.34,81.18-3.2,120.4,8.28,22.96,21.38,43.51,38.23,60.46-9.96,8.53-18.1,18.99-23.96,30.9l-107.44-71.8c16.24-15.38,46.56-50.11,48.35-96.4,1.54-39.93-18.47-78.59-59.47-114.9l-8.45-7.49-144.41,228.13,301.79,188.18c3.77,2.8,7.82,5.37,12.04,7.64l296.55,190.57,144.41-228.13-10.38-4.44ZM2465.16,1968.06l-280.6-180.31-.33-.21-.34-.18c-3.61-1.92-7.05-4.11-10.24-6.5l-.33-.25-286.06-178.37,121.85-192.49c30.82,29.88,45.85,60.76,44.69,91.93-1.96,52.89-50.27,90.25-50.75,90.61l-10.78,8.15,149.18,99.68,4.08-11.75c6.97-20.07,21.35-36.15,40.49-45.27l40.06-19.09,71.71-209.25,36.05,22.82-69.64,144.18,16.78,9.32,100.22-158.32,38.22,30.82-114.8,141.13,12.95,13.95,142.85-99.59,19,30.23-185.22,121.63,4.74,36.97c3.03,23.68-4.71,47.17-21.25,64.45l-8.33,8.7,152.48,91.32,2.76-13.23c.12-.6,12.99-60.02,60.07-84.57,27.7-14.44,62.08-14.1,102.34,1l-121.85,192.49Z"/>
        </g>
        <g>
          <path class="cls-8" d="M1870.52,1229.45l-99.45-110.11c3.65-1.46,9.62-4.71,14.39-8.84l106.37,109.57s1.94-.84,189.39-79.15c-91.6-133.54-185.78-19.46-185.78-19.46l-71.34-60.56c16.08-40.94,2.93-88.08-32.93-114.64l-36.01-26.68-34.83-252.4-65.65,25.56,47.63,181.26-79.89-205.15-68.31,36.05,100.14,187.81-142.33-147.08-41.99,44.7,178.75,174.75-10.94,32.96c-9.45,28.48-5.1,58.13,9.3,81.85l.07.11c5.13,8.42,11.53,16.09,19.04,22.69l71.42,85.11s-137.95-1.72-92.34,130.68c203.39-79.2,225.28-89.05,225.28-89.05ZM1763.08,1009.18c-3.56-9.14-13.85-13.66-22.99-10.1-2.69,1.05-4.97,2.7-6.78,4.71,1.34-12.35,9.32-23.54,21.69-28.36,17.69-6.89,37.62,1.87,44.51,19.56,6.89,17.69-1.87,37.62-19.56,44.51-12.37,4.82-25.82,1.97-35.16-6.22,2.69.27,5.49-.06,8.18-1.11,9.14-3.56,13.66-13.85,10.1-22.99ZM1719.48,1026.16c6.89,17.69-1.87,37.62-19.56,44.51-12.77,4.97-26.68,1.76-36.04-7.04,3.33.75,6.9.55,10.32-.78,9.14-3.56,13.66-13.85,10.1-22.99-3.56-9.14-13.85-13.66-22.99-10.1-3.42,1.33-6.18,3.6-8.13,6.4.94-12.81,9.01-24.58,21.78-29.56,17.69-6.89,37.62,1.87,44.51,19.56Z"/>
          <path class="cls-4" d="M1638.34,1333.4l11.03-4.3c201.35-78.41,224.92-88.87,225.82-89.28l14.25-6.41,6.87-2.88c.45-.19,9.6-4.04,189.31-79.12l12.92-5.4-7.92-11.54c-30.58-44.57-65.15-68.02-102.77-69.7-43.71-1.94-78.37,26.34-93.28,41l-57.14-48.51c4.71-15.28,5.89-31.1,3.87-46.4l6.66-1.96c3.5-1.03,6.94-2.21,10.31-3.52,26.27-10.23,48.38-28.84,62.98-53.26,16.48-27.54,21.93-60.02,15.36-91.43l-1.88-8.98c3.42-3.89,5.87-9.06,6.9-15.23,2.74-16.46-5.09-36.25-22.78-42.32l-8.82-52.93-27.92,4.65,8.81,52.86-34.46-34.97-20.16,19.87,34.26,34.77c-3,18.12,2.45,33.71,14.69,40.23,3.14,1.67,11.44,5,22.2.9l1.45,6.95c10.49,50.16-19.81,100.78-68.94,115.26l-5.94,1.75c-7.39-18.04-19.61-34.22-36.06-46.4l-32.17-23.83-36.15-261.94-88.4,34.42-12.83-32.94-89.71,47.34,67.4,126.42-94.3-97.45-57.81,61.53,181.65,177.58-8.7,26.22c-10.13,30.52-6.35,63.81,10.37,91.34,5.7,9.35,12.62,17.67,20.65,24.85l56.82,67.72c-22.19,3.49-55.22,13.19-74.7,40.15-18.57,25.7-20.46,60.58-5.62,103.68l3.86,11.19ZM1652.47,1303.47c-8.41-30.26-6.4-54.29,6.02-71.54,23.67-32.87,78.41-32.74,78.96-32.74l24.7.23-87.83-104.7-.65-.57c-6.58-5.79-12.25-12.54-16.83-20.06-13.31-21.91-16.31-48.29-8.29-72.46l13.18-39.71-175.86-171.93,26.19-27.87,134.03,138.51,18.22-13.27-94.76-177.73,46.92-24.76,75.26,193.26,21.61-7.02-45.05-171.45,42.76-16.65,33.52,242.86,39.85,29.53c31.42,23.29,43.39,64.96,29.11,101.35l-2.97,7.57,86.33,73.29,7.34-8.9c.35-.41,36.59-43.31,82.75-41.18,26.91,1.25,52.63,17.53,76.59,48.45-85.42,35.69-129.41,54.07-152.06,63.54l-16.9,7.07-108.46-111.72-8.12,7.04c-3.54,3.07-8.28,5.72-11.18,6.88l-15.15,6.07,99.59,110.27c-21.78,8.86-74.51,29.92-198.81,78.36Z"/>
        </g>
      </g>
      <g>
        <path class="cls-8" d="M1276.49,1976.75c60.54-126.28-76.69-140.44-76.69-140.44l80.73-76.34c8.22-5.69,15.46-12.57,21.52-20.35l.08-.1c17.03-21.91,24.77-50.86,18.65-80.24l-7.08-34,197.67-153.03-36.57-49.24-158.3,129.74,121.07-175.05-63.71-43.67-102.95,194.6,68.16-174.58-62.27-32.94-63.63,246.71-38.84,22.36c-38.67,22.27-57.15,67.58-45.89,110.1l-77.83,51.96s-80.44-124.15-186.79-2.04c177.2,99.35,179.02,100.4,179.03,100.41l118.27-96.61c4.26,4.65,9.83,8.56,13.28,10.44l-111.45,97.94s20.61,12.3,213.55,114.37ZM1202.4,1679.92c2.56,1.35,5.29,2,8,2.05-10.22,7.06-23.9,8.35-35.64,2.14-16.78-8.88-23.19-29.68-14.31-46.47,8.88-16.78,29.68-23.19,46.47-14.31,11.74,6.21,18.37,18.25,18.28,30.67-1.56-2.21-3.63-4.11-6.19-5.46-8.67-4.59-19.41-1.28-24,7.39-4.59,8.67-1.28,19.41,7.39,24ZM1282.83,1663.49c12.11,6.41,18.78,19.03,18.24,31.87-1.61-3-4.1-5.58-7.34-7.29-8.67-4.59-19.41-1.28-24,7.39-4.59,8.67-1.28,19.41,7.39,24,3.24,1.71,6.77,2.32,10.16,1.96-10.31,7.67-24.49,9.26-36.61,2.85-16.78-8.88-23.19-29.68-14.31-46.47,8.88-16.78,29.68-23.19,46.47-14.31Z"/>
        <path class="cls-4" d="M1286.75,1981.67c19.7-41.1,21.84-75.97,6.35-103.63-16.25-29.02-47.95-42.46-69.59-48.48l64.23-60.73c8.81-6.2,16.64-13.67,23.37-22.31,19.78-25.43,27.36-58.07,20.81-89.55l-5.63-27.04,200.87-155.51-50.35-67.77-104.88,85.95,81.5-117.83-83.67-57.34-16.53,31.24-83.86-44.36-66.04,256.04-34.7,19.97c-17.74,10.22-31.74,24.88-41.16,41.95l-5.7-2.42c-47.14-20.03-71.42-73.81-55.23-122.42l2.24-6.74c10.22,5.31,18.85,2.96,22.16,1.66,12.91-5.08,20.12-19.94,19.22-38.28l38.03-30.6-17.75-22.06-38.25,30.78,14.83-51.49-27.2-7.83-14.85,51.57c-18.28,4-28.33,22.76-27.5,39.42.31,6.25,2.15,11.67,5.1,15.92l-2.9,8.71c-10.14,30.45-8.46,63.34,4.74,92.59,11.7,25.93,31.51,46.96,56.43,60.15,3.2,1.69,6.48,3.25,9.84,4.68l6.39,2.71c-3.76,14.97-4.41,30.81-1.49,46.54l-62.34,41.61c-13.13-16.28-44.3-48.36-87.95-51.46-37.56-2.66-74.6,16.65-110.1,57.42l-9.19,10.55,12.21,6.85c169.89,95.25,178.53,100.12,178.96,100.37l6.49,3.65,13.41,8.01c.85.51,23.06,13.62,214.06,114.66l10.47,5.54,5.12-10.68ZM1082.56,1860.28l111.61-98.08-14.35-7.78c-2.75-1.49-7.14-4.67-10.31-8.12l-7.26-7.92-120.59,98.5-15.97-8.96c-21.41-12.01-62.99-35.33-143.75-80.61,27.35-27.95,54.78-41.17,81.65-39.32,46.1,3.19,77.16,49.97,77.46,50.42l6.27,9.68,94.19-62.88-2.08-7.86c-10.01-37.79,6.67-77.81,40.57-97.32l42.99-24.75,61.23-237.39,40.56,21.46-64.47,165.13,20.66,9.46,96.99-183.32,43.76,30-114.57,165.65,16.57,15.27,149.07-122.17,22.81,30.7-194.47,150.56,8.52,40.97c5.19,24.93-.82,50.78-16.56,71.02-5.41,6.95-11.82,13-19.02,17.99l-.71.49-99.29,93.9,24.56,2.61c.55.06,54.94,6.23,74.67,41.6,10.35,18.56,9.59,42.66-2.24,71.76-117.9-62.41-167.86-89.4-188.48-100.71Z"/>
      </g>
      <g>
        <path class="cls-6" d="M1805.51,101.35l-44.14,145.15-20.95-5.52c4.18-38.72-16.97-77.04-52.89-93.68l-.39-.18-6.01-2.19,89.1-136.55-58.64-41.69-32.11,56.34,27.27-91.88-78.93-7.72-18.57,92.72-.94-65.33-72.8,17.58,31.85,206.71-11.71,37.41-.11.95c-5.22,44.52,20.26,88.91,58.49,103.14l-18.6,71.55c-22.78-12.83-73.18-33.9-121.7-4.57-22.7,13.72-41.9,37-57.09,69.19l-5.1,10.8,226.11,65.09,58.43-216.3,116.97,35.51,33.73-106.46c22.46,12.79,73.36,34.54,122.34,4.93h0c22.69-13.72,41.9-37,57.08-69.19l5.1-10.8-225.8-65ZM1629.88,223.08c7.53,15.79.84,34.7-14.96,42.23-11.4,5.44-24.4,3.43-33.59-4.03,3.11.46,6.38.03,9.43-1.42,8.16-3.89,11.61-13.66,7.72-21.81-3.89-8.16-13.66-11.61-21.81-7.72-3.05,1.45-5.44,3.73-7.04,6.43,0-11.84,6.61-23.2,18.01-28.64,15.79-7.53,34.7-.84,42.23,14.96ZM1701.31,189.01c7.53,15.79.84,34.7-14.96,42.23-11.04,5.27-23.59,3.56-32.73-3.33,2.49.06,5.04-.43,7.44-1.58,8.16-3.89,11.61-13.66,7.72-21.81-3.89-8.16-13.66-11.61-21.81-7.72-2.41,1.15-4.39,2.81-5.91,4.79.39-11.44,6.96-22.27,18.01-27.53,15.79-7.53,34.7-.84,42.23,14.95Z"/>
        <path class="cls-4" d="M1873.8,69.2l-27.32-4.84c-36.57-6.47-73.88,1.04-105.19,21.04-6.43,4.12-12.47,8.71-18.11,13.69l50.23-76.98,10.68-16.37-15.93-11.32-41.52-29.51-15.94-11.33,2.29-7.72,7.01-23.63-24.53-2.4-57.52-5.63-18.31-1.79-3.61,18.04-1.69,8.45-20.79,5.02-51.34,12.39-18.18,4.39,2.85,18.48,30.07,195.14-10.72,34.25-.57,1.82-.22,1.89c-1.71,14.56-.44,29.48,3.56,43.71l-2.58,1.51c-51.15,29.97-117.83,15.39-151.81-33.2l-7.88-11.27-.11-2.86,60.92-35.37-16.44-28.32-45.9,26.65-2.91-75.7-32.73,1.26,2.18,56.76-37.59-49.31-26.05,19.85,42.74,56.07c-32.96-7.39-66.19-14.9-69.61-15.82l-4.45,15.76-4.59,15.72c4.45,1.3,71.01,16.21,99.67,22.61l15.9,22.74c21.28,30.43,52.98,51.56,89.26,59.5,36.05,7.88,73.41,2.03,105.32-16.46,10.11,16.03,23.81,28.56,39.64,36.37l-13.22,50.88c-27.8-12.99-74.66-26.07-120.3,1.52-24.44,14.77-44.97,39.52-61.02,73.56l-10.19,21.61,22.96,6.61,204.69,58.93,19.87,5.72,5.39-19.96,53-196.2,97.33,29.55,19.23,5.84,6.07-19.15,27.05-85.38c27.64,13.17,75.22,27.08,121.55-.93,24.44-14.77,44.97-39.52,61.02-73.56l10.19-21.61-22.96-6.61-89.28-25.7-13.59-12.59,61.45,8.29,4.38-32.46-69.88-9.43c28.53-18.09,57.32-36.3,60.42-38.03l-8-14.29-7.87-14.36c-4.06,2.24-61.67,38.75-86.46,54.49ZM1795.98,97.71l-3.12,10.27-38.37,126.2-3.39-.89c.35-16.23-3.17-32.51-10.35-47.25-5.39-11.05-12.74-20.99-21.59-29.38,15.72-30.07,44.21-51.56,76.83-58.95ZM1963.86,237.65c-58.89,35.6-122.79-11.89-122.79-11.89l-34.68,109.47-114.23-34.68c-.35.22-.7.43-1.05.64-1,.6-2.01,1.19-3.03,1.74l-57.56,213.1c-8.72-2.51-48.78-14.04-204.69-58.93,15.66-33.19,34.14-53.34,53.15-64.83,58.9-35.6,122.79,11.89,122.79,11.89l24.52-94.34c-.61-.17-1.23-.34-1.84-.53l-3.43-1.07c-37.74-11.71-59.99-54.35-55.39-93.6l12.13-38.75-30.79-199.8,51.34-12.39,2.13,148.16,35.53-177.41,57.52,5.63-48.86,164.66,70.23-123.25,41.52,29.51-90.76,139.09,17.64,6.43c35.64,16.52,53.7,55.28,45.65,91.94l39.34,10.37,44.07-144.94c8.72,2.51,48.78,14.04,204.69,58.93-15.66,33.19-34.14,53.34-53.15,64.83Z"/>
      </g>
    </g>
  </g>
</svg>