<?xml version="1.0" encoding="UTF-8"?>
<svg id="Layer_1" data-name="Layer 1" xmlns="http://www.w3.org/2000/svg" viewBox="0 0 2000 2000">
  <defs>
    <style>
      .cls-1 {
        fill: #fff;
      }

      .cls-2 {
        fill: #059948;
      }
    </style>
  </defs>
  <path class="cls-2" d="M1481.89,1276.23l-304.87,7.54c10.19-50.52-1.61-105.1-37.16-148.01l-39.96-48.25,186.08-410.73-99.85-47.65-142.96,340.39,45.38-381.23-138.42-15.88v397.12l-38.58-335.85h-127.08l106.65,447.04-43.06,68.41c-26.01,41.32-32.99,89.88-22.49,134.71l-307.47-7.61s109.46-291.75-222.71-345.49v499.07l694.14-4.72c9.07.72,18.18.72,27.27.04l687.79,4.68v-499.07c-332.17,53.73-222.71,345.49-222.71,345.49Z"/>
  <path class="cls-1" d="M1701.52,911.73c-108.35,17.53-183.67,61.53-223.86,130.81-46.59,80.3-32.47,171.62-21.46,215.06l-256.99,6.36c1.12-14.05.66-28.05-1.2-41.8,59.3-7.07,115.85-30.1,163.83-67.37,65.99-51.25,109.9-124.88,123.64-207.29l10.09-60.52c52.03-40.8,171.24-134.36,178.99-141.28l-51.05-57.71c-5.87,5.02-63.77,50.64-121.19,95.74l31.23-149.31-75.42-15.77-27.18,129.94-47.91-111.24-70.76,30.48,65.79,152.77-115.22-9.34-6.23,76.79,155.95,12.65,1.87,4.35-4.97,29.8c-19.73,118.36-120.92,206.02-238.02,212.21-4.97-8.18-10.56-16.05-16.77-23.55l-32.29-38.98,188.9-416.96-135.12-64.49-97.7,232.6,31.47-264.29-179.1-20.56v82.24l-2.14-18.63h-168.65l110.44,462.89-23.38,37.15c-106.7-15.94-195.8-99.57-214.17-209.82l-4.97-29.79,1.87-4.35,155.95-12.65-6.23-76.79-115.23,9.34,65.79-152.77-70.76-30.48-47.91,111.24-27.18-129.94-75.42,15.77,31.23,149.31c-57.42-45.1-115.32-90.72-121.19-95.74l-25.39,28.97-25.65,28.74c7.75,6.92,126.97,100.48,179,141.28l10.09,60.51c13.74,82.42,57.64,156.05,123.64,207.3,38.64,30.01,82.84,50.75,129.54,61.4-7.72,25.12-10.3,51.55-7.45,78l-258.89-6.4c11.01-43.44,25.13-134.76-21.47-215.05-40.19-69.28-115.51-113.29-223.86-130.81l-22.34-3.61v541.08l712.73-4.84c9.42.7,19.03.72,28.57.04l706.42,4.8v-541.08l-22.34,3.61ZM1685.33,1410.42l-668.4-4.54h-.79s-.78.05-.78.05c-8.13.61-16.33.6-24.32-.03l-.82-.07-675.58,4.6v-456.54c84.22,17.56,142.77,53.75,174.22,107.76,53.37,91.67,11.62,206.7,11.2,207.82l-9.51,25.35,359.46,8.89-5.69-24.27c-9.72-41.46-2.61-84.09,20.03-120.06l47.38-75.27-102.87-431.18h85.5l36.62,318.78,38.4-2.2v-375.52l97.75,11.21-43.1,362.03,36.88,9.73,135.14-321.76,64.57,30.82-183.26,404.5,47.64,57.51c30.52,36.85,42.59,84.93,33.11,131.91l-4.78,23.66,329.01-8.14,26.98-.69-9.41-25.3c-.43-1.15-42.19-116.18,11.18-207.85,31.45-54.01,90-90.21,174.21-107.76v456.54Z"/>
  <path class="cls-1" d="M941.9,1158.88c9.83,5.52,16.49,16.03,16.49,28.1,0,17.79-14.42,32.22-32.22,32.22s-32.22-14.43-32.22-32.22c0-12.08,6.65-22.59,16.49-28.1-26.82,6.98-46.65,31.29-46.65,60.3,0,34.45,27.93,62.38,62.38,62.38s62.38-27.93,62.38-62.38c0-29.01-19.83-53.32-46.65-60.3Z"/>
  <path class="cls-1" d="M1097.73,1158.88c9.83,5.52,16.49,16.03,16.49,28.1,0,17.79-14.43,32.22-32.22,32.22s-32.22-14.43-32.22-32.22c0-12.08,6.65-22.59,16.49-28.1-26.82,6.98-46.65,31.29-46.65,60.3,0,34.45,27.93,62.38,62.38,62.38s62.38-27.93,62.38-62.38c0-29.01-19.83-53.32-46.65-60.3Z"/>
</svg>