<?xml version="1.0" encoding="UTF-8"?>
<svg id="Layer_1" data-name="Layer 1" xmlns="http://www.w3.org/2000/svg" viewBox="0 0 2000 2000">
  <defs>
    <style>
      .cls-1 {
        fill: #fff;
      }

      .cls-2 {
        fill: #059948;
      }

      .cls-3 {
        fill: #231f20;
      }
    </style>
  </defs>
  <path class="cls-1" d="M622.65,961.22c-16.82,0-33.1-10.01-43.88-28.15-17.41-29.29-16.57-73.4,14.96-96.51l32.86,44.83c-.86.63-3.46,2.53-3.65,8.97-.24,7.81,3.41,15.04,5.43,16.72-1.5-1.24-6.28-2.47-10.48-.48l23.68,50.28c-6.2,2.92-12.6,4.34-18.91,4.34Z"/>
  <path class="cls-3" d="M1165.03,1096.56c-38.72,0-70.22-31.5-70.22-70.22s31.5-70.22,70.22-70.22,70.22,31.5,70.22,70.22-31.5,70.22-70.22,70.22ZM1165.03,958.9c-37.19,0-67.44,30.26-67.44,67.45s30.25,67.44,67.44,67.44,67.44-30.25,67.44-67.44-30.25-67.45-67.44-67.45Z"/>
  <path class="cls-3" d="M1165.03,1124.35c-38.72,0-70.22-31.5-70.22-70.22s31.5-70.22,70.22-70.22,70.22,31.5,70.22,70.22-31.5,70.22-70.22,70.22ZM1165.03,986.7c-37.19,0-67.44,30.25-67.44,67.44s30.25,67.44,67.44,67.44,67.44-30.25,67.44-67.44-30.25-67.44-67.44-67.44Z"/>
  <polygon class="cls-1" points="626.23 1011.21 568.72 736.25 623.12 724.88 644.67 827.87 682.79 739.33 733.85 761.32 626.23 1011.21"/>
  <path class="cls-1" d="M851.64,1182.72c-55.37,0-109.08-18.31-153.19-52.57-49.77-38.66-82.89-94.19-93.25-156.35l-19.05-114.32,50.57,28.43c8.78,4.94,14.65,6.64,18.03,7.2-.51-4.84-3.12-13.97-12.25-25.64l43.78-34.24c27.31,34.92,31.91,74.39,11.44,98.22-4.55,5.3-17.38,17.29-39.99,17.46l2.3,13.76c16.53,99.24,107.94,170.3,208.28,161.77l85.3-7.26,4.71,55.38-85.3,7.26c-7.13.61-14.27.91-21.37.91Z"/>
  <path class="cls-2" d="M1464.54,1603.83c-10.89-274.77-262.07-173.33-262.07-173.33l70.03-206.63c9.04-17.42,15.28-36.01,18.67-55.08l.04-.24c9.45-53.66-3.72-111.02-41.31-156.4l-43.51-52.52,202.56-447.12-108.69-51.88-155.63,370.54,49.41-415.01-150.69-17.29v432.3l-41.99-365.6h-138.34l116.1,486.65-46.88,74.48c-46.68,74.16-37.15,169.78,21.44,233.24l-87.38,161.65s-253.62-141.63-326.08,167.98c405.13,9.88,402.95,9.88,402.95,9.88l116.56-276.29c11.66,4.15,24.92,5.84,32.63,5.92l-103.51,272.34s47.08,2.43,475.67,2.43Z"/>
  <path class="cls-1" d="M1487.79,1626.18h-23.25c-424.29,0-474.88-2.36-476.83-2.46l-30.63-1.58-14.61-.37c-.96-.03-20.43-.55-402.78-9.88l-27.48-.67,6.26-26.76c24.19-103.35,70.75-170.89,138.38-200.76,78.59-34.71,162.17-7.63,199.9,8.56l69.99-129.48c-56.13-70.82-62.16-170.53-13.41-247.99l41.88-66.53-120.49-505.04h186.28v-69.4l197.88,22.7-33.26,279.35,103.11-245.5,149.62,71.4-205.85,454.35,34.6,41.77c40.27,48.62,57.08,112.23,46.11,174.53-3.76,21.16-10.5,41.32-20.08,60.18l-55.71,164.4c43.09-9.43,110.43-15.21,165.3,20.24,52.29,33.8,80.61,96.27,84.15,185.7l.92,23.23ZM1021,1579.76c46.16.68,157.66,1.66,419.61,1.72-6.18-61.37-26.98-103.9-62-126.61-66.72-43.27-166.8-4.05-167.81-3.64l-45.03,18.02,86.11-254.16.78-1.51c7.93-15.29,13.48-31.68,16.5-48.7,8.74-49.58-4.57-99.98-36.47-138.48l-52.41-63.28,199.29-439.89-67.78-32.34-146.55,348.93-42.79-11.29,46.75-392.73-103.5-11.87v407.24l-44.54,2.55-39.72-345.8h-90.11l111.72,468.26-51.89,82.43c-40.91,65-33.11,149.78,18.95,206.17l10.83,11.73-105.74,195.63-19.78-11.05c-.93-.51-97.81-53.18-180.75-16.39-48.35,21.46-83.81,69.58-105.62,143.21,181.73,4.44,275.32,6.73,323.52,7.92l35.95.89,118.85-281.71,19.88,7.08c8.67,3.09,19.23,4.56,25.37,4.63l32.03.34-103.64,272.7Z"/>
  <circle class="cls-1" cx="1019.25" cy="1121.8" r="67.51"/>
  <circle class="cls-1" cx="1187.89" cy="1121.8" r="67.51"/>
  <circle class="cls-2" cx="1229.37" cy="1121.8" r="34.87"/>
  <circle class="cls-2" cx="1063.39" cy="1121.8" r="34.87"/>
</svg>