<?xml version="1.0" encoding="UTF-8"?>
<svg id="Layer_1" data-name="Layer 1" xmlns="http://www.w3.org/2000/svg" viewBox="0 0 2000 2000">
  <defs>
    <style>
      .cls-1 {
        fill: #059948;
      }
    </style>
  </defs>
  <path class="cls-1" d="M1481.89,1276.23l-304.87,7.54c10.19-50.52-1.61-105.1-37.16-148.01l-39.96-48.25,186.08-410.73-99.85-47.65-142.96,340.39,45.38-381.23-138.42-15.88v397.12l-38.58-335.85h-127.08l106.65,447.04-43.06,68.41c-26.01,41.32-32.99,89.88-22.49,134.71l-307.47-7.61s109.46-291.75-222.71-345.49v499.07l694.14-4.72c9.07.72,18.18.72,27.27.04l687.79,4.68v-499.07c-332.17,53.73-222.71,345.49-222.71,345.49ZM926.17,1281.56c-34.45,0-62.38-27.93-62.38-62.38,0-29.01,19.83-53.32,46.65-60.3-9.83,5.52-16.49,16.03-16.49,28.1,0,17.79,14.42,32.22,32.22,32.22s32.22-14.43,32.22-32.22c0-12.08-6.65-22.59-16.49-28.1,26.82,6.98,46.65,31.29,46.65,60.3,0,34.45-27.93,62.38-62.38,62.38ZM1082,1281.56c-34.45,0-62.38-27.93-62.38-62.38,0-29.01,19.83-53.32,46.65-60.3-9.83,5.52-16.49,16.03-16.49,28.1,0,17.79,14.43,32.22,32.22,32.22s32.22-14.43,32.22-32.22c0-12.08-6.65-22.59-16.49-28.1,26.82,6.98,46.65,31.29,46.65,60.3,0,34.45-27.93,62.38-62.38,62.38Z"/>
  <path d="M1701.53,911.73c-108.35,17.53-183.67,61.53-223.86,130.81-46.59,80.3-32.48,171.62-21.47,215.06l-256.99,6.36c1.12-14.06.66-28.08-1.2-41.85,59.29-7.07,115.86-30.06,163.84-67.32,65.99-51.25,109.9-124.88,123.64-207.29l10.09-60.52c52.03-40.8,171.25-134.37,179.01-141.29l-51.07-57.69c-5.87,5.03-63.77,50.64-121.18,95.74l31.23-149.32-75.42-15.77-27.18,129.95-47.91-111.25-70.76,30.48,65.79,152.78-115.23-9.34-6.23,76.79,155.95,12.65,1.87,4.34-4.97,29.8c-19.73,118.36-120.88,206.09-238,212.23-4.97-8.19-10.57-16.07-16.78-23.57l-32.29-38.98,188.9-416.96-135.12-64.49-97.69,232.59,31.46-264.28-179.1-20.56v82.24l-2.14-18.63h-168.65l110.44,462.9-23.37,37.13c-106.71-15.96-195.81-99.56-214.18-209.8l-4.97-29.79,1.87-4.34,155.94-12.64-6.22-76.8-115.23,9.34,65.79-152.77-70.76-30.48-47.91,111.25-27.18-129.95-75.42,15.77,31.23,149.31c-57.42-45.1-115.32-90.72-121.19-95.74l-25.39,28.97-25.65,28.74c7.75,6.92,126.97,100.48,179,141.28l10.09,60.52c13.74,82.42,57.64,156.05,123.64,207.3,38.64,30.01,82.84,50.75,129.54,61.4-7.72,25.12-10.3,51.55-7.45,78l-258.89-6.4c11.01-43.44,25.13-134.76-21.46-215.06-40.2-69.27-115.51-113.28-223.86-130.81l-22.34-3.61v541.09l712.73-4.85c9.39.7,18.99.72,28.57.04l706.42,4.81v-541.09l-22.34,3.61ZM1685.34,1410.42l-668.41-4.55h-.79s-.78.05-.78.05c-8.16.62-16.35.59-24.31-.03l-.82-.07-675.58,4.6v-456.54c84.21,17.56,142.77,53.75,174.21,107.76,53.37,91.67,11.61,206.7,11.19,207.83l-9.51,25.35,359.45,8.89-5.68-24.27c-9.71-41.46-2.6-84.1,20.03-120.06l47.38-75.27-102.87-431.19h85.5l36.62,318.78,38.4-2.2v-375.52l97.75,11.21-43.1,362.03,36.88,9.73,135.14-321.76,64.58,30.82-183.26,404.5,47.64,57.52c30.52,36.85,42.59,84.93,33.11,131.91l-4.78,23.66,356.08-8.8-9.51-25.35c-.43-1.15-42.34-115.56,11.06-207.59,31.42-54.15,90.01-90.42,174.36-108v456.54Z"/>
</svg>