<?xml version="1.0" encoding="UTF-8"?>
<svg id="Layer_1" data-name="Layer 1" xmlns="http://www.w3.org/2000/svg" viewBox="0 0 2000 2000">
  <defs>
    <style>
      .cls-1 {
        fill: #fff;
      }
    </style>
  </defs>
  <path class="cls-1" d="M1486.86,1602.95c-3.54-89.43-31.86-151.91-84.15-185.7-54.86-35.45-122.21-29.67-165.3-20.24l55.71-164.4c9.59-18.86,16.33-39.01,20.09-60.19,10.97-62.3-5.84-125.91-46.11-174.53l-34.59-41.76,205.84-454.36-149.61-71.4-103.11,245.5,33.26-279.35-197.88-22.7v69.4h-186.29l120.49,505.05-41.87,66.52c-21.42,34.02-32.25,72.33-32.93,110.61l-12.11,1.03c-100.35,8.52-191.75-62.53-208.28-161.77l-2.3-13.76c22.61-.17,35.44-12.16,39.99-17.46,17.75-20.66,16.62-53.08-1.78-84.09l37.91-88.03-51.05-21.99-38.13,88.54-21.54-103-54.4,11.38,21.57,103.14c-28.05,23.72-28.26,65.52-11.53,93.68,6.28,10.56,14.45,18.27,23.47,22.95l2.96,17.77c10.36,62.17,43.48,117.7,93.25,156.35,44.12,34.26,97.83,52.57,153.2,52.57,7.1,0,14.23-.3,21.37-.91l13.58-1.16c7.21,29.43,20.65,57.53,40.15,82.13l-69.99,129.48c-37.74-16.19-121.32-43.26-199.9-8.56-67.64,29.86-114.19,97.41-138.38,200.76l-6.26,26.76,27.48.67c382.33,9.33,401.81,9.85,402.77,9.88l14.62.37,30.63,1.58c1.95.1,52.53,2.46,476.82,2.46h23.25l-.92-23.23ZM1021,1579.76l103.64-272.7-32.03-.34c-6.14-.07-16.7-1.54-25.37-4.63l-19.88-7.08-118.84,281.7-35.95-.89c-48.2-1.19-141.78-3.48-323.51-7.92,21.81-73.64,57.27-121.76,105.62-143.21,82.95-36.79,179.81,15.88,180.75,16.39l19.78,11.05,105.74-195.63-10.83-11.73c-52.07-56.39-59.86-141.17-18.95-206.17l51.88-82.43-111.72-468.25h90.11l39.72,345.8,44.54-2.55v-407.24l103.5,11.87-46.75,392.73,42.79,11.29,146.55-348.93,67.77,32.34-199.28,439.89,52.41,63.28c31.89,38.5,45.2,88.9,36.47,138.48-3.02,17.03-8.57,33.41-16.5,48.69l-.78,1.51-86.11,254.16,45.03-18.02c1-.4,101.08-39.63,167.81,3.64,35.02,22.71,55.82,65.24,62,126.61-261.95-.06-373.45-1.04-419.61-1.72Z"/>
  <path class="cls-1" d="M1229.37,1156.67c-19.26,0-34.87-15.61-34.87-34.87s15.61-34.87,34.87-34.87c7.2,0,13.88,2.18,19.44,5.92-10.85-22.78-34.01-38.56-60.92-38.56-37.29,0-67.51,30.22-67.51,67.51s30.23,67.51,67.51,67.51c26.91,0,50.07-15.78,60.92-38.56-5.55,3.74-12.24,5.92-19.44,5.92Z"/>
  <path class="cls-1" d="M1063.39,1156.67c-19.26,0-34.87-15.61-34.87-34.87s15.61-34.87,34.87-34.87c5.68,0,11.02,1.39,15.76,3.79-11.25-21.64-33.82-36.44-59.89-36.44-37.29,0-67.51,30.22-67.51,67.51s30.23,67.51,67.51,67.51c26.07,0,48.65-14.8,59.89-36.44-4.74,2.41-10.08,3.79-15.76,3.79Z"/>
</svg>