<?xml version="1.0" encoding="UTF-8"?>
<svg id="Layer_1" data-name="Layer 1" xmlns="http://www.w3.org/2000/svg" viewBox="0 0 2000 2000">
  <defs>
    <style>
      .cls-1 {
        fill: #fff;
      }

      .cls-2 {
        fill: #3fad3c;
      }
    </style>
  </defs>
  <g>
    <path class="cls-1" d="M982.84,1039.35c-5.75-.57-11.03-2.51-15.59-5.43,9.23,23.05,30.61,40.31,57.02,42.92,37.77,3.74,71.42-23.85,75.16-61.62,3.74-37.77-23.85-71.42-61.62-75.16-26.41-2.62-50.77,10.12-64.33,30.91,5.04-1.97,10.59-2.83,16.35-2.26,19.51,1.93,33.76,19.31,31.83,38.82-1.93,19.51-19.31,33.76-38.82,31.83Z"/>
    <path class="cls-1" d="M928.6,998.31c3.74-37.77-23.85-71.42-61.62-75.16-27.26-2.7-52.31,10.97-65.58,32.96,6-3.23,12.99-4.77,20.29-4.05,19.51,1.93,33.76,19.31,31.83,38.82-1.93,19.51-19.31,33.76-38.82,31.83-6.28-.62-11.95-2.92-16.78-6.29l2,7.91c10.5,19.31,30,33.28,53.53,35.61,37.77,3.74,71.42-23.85,75.16-61.62Z"/>
  </g>
  <path class="cls-2" d="M1176.53,1029.97c.06.07.11.12.17.19h0s-.07-.07-.17-.19Z"/>
  <path class="cls-1" d="M1556.48,987.25l-45.3-39.65c-60.63-53.06-138.34-81-218.91-78.99-16.56.44-32.92,2.18-48.99,5.1l179.65-86.55,38.2-18.4-16.87-38.9-43.96-101.39-16.88-38.94,12.92-11.76,39.53-36-42.85-31.98-100.47-75-31.98-23.88-26.95,29.44-12.63,13.8-44.24-14.02-109.23-34.61-38.67-12.25-15.45,37.51-163.18,396.04-58.35,51.55-3.1,2.74-2.54,3.26c-19.51,25.11-33.9,54.23-42.44,85.15l-6.48-.09c-128.61-1.77-236.04-103.69-244.58-232.02l-1.98-29.77,3.01-5.44,152.8,2.71,1.26-71.04-115.13-2.05,79.56-143.8-62.17-34.39-59.66,107.83-14.43-133.74-70.64,7.62,16.41,152.07c-52.9-50.72-106.18-101.96-111.48-107.5l-25.95,24.25-26.16,24.04c6.81,7.41,113.64,109.78,159.67,153.84l4,60.07c5.35,80.39,40.49,155.19,98.94,210.64,58.08,55.09,134.03,86.16,214.02,87.65.79,41.1,12.15,79.75,32.78,112.03l-81.65,79.62c-37.05-55.32-109.35-132.19-225.06-132.2-61.96,0-127.85,22.9-195.86,68.08l-43.17,28.68,35.21,38.04,313.9,339.14,30.47,32.92,32.41-31.01,318.59-304.79,147.54,164.09,29.15,32.41,32.77-28.75,146.06-128.17c36.53,55.47,109.26,134.68,226.72,134.68,61.96,0,127.86-22.9,195.85-68.08l43.17-28.68-35.21-38.04-136.91-147.92-11.11-38.63,104.77,84.36,44.56-55.34-119.15-95.94c73.26-1.57,147.16-3.05,154.86-2.8l1.19-35.5,1.49-35.5c-10.06-.4-157.99,2.73-221.68,4.12ZM1380.02,952.86l-17.32,15.56-212.88,191.23-5.29-5.46c18.86-29.75,30.61-63.91,33.81-99.35,2.4-26.57-.09-53.28-7.11-78.77,62.94-38.18,139.94-46.11,208.79-23.22ZM1534.64,1401.09c-149.3,0-214.62-159.88-214.62-159.88l-187.25,164.32-173.16-192.58c-.89.01-1.78.02-2.67.02-2.53,0-5.06-.05-7.58-.16l-346.04,331.04c-13.37-14.45-74.81-80.82-313.9-339.14,66.32-44.06,123.24-60.71,171.44-60.71,149.3.01,214.62,159.88,214.62,159.88l151.4-147.63c-.94-1.01-1.9-2-2.83-3.04l-5.18-5.83c-56.93-64.1-50.38-168.24,2.22-235.94l66.02-58.33,167.08-405.52,109.23,34.61-162.34,277.47,265.08-289.51,100.47,75-275.53,250.88,268.72-150,43.96,101.39-324.61,156.38,25.54,31.74c47.63,70.67,37.65,162.89-18.42,221.94l61.4,63.4,244.5-219.63c13.37,14.45,74.81,80.82,313.9,339.14-66.32,44.06-123.25,60.71-171.44,60.71Z"/>
  <path class="cls-2" d="M1173.67,1026.88c-.32-.35-.4-.43,0,0h0Z"/>
  <path class="cls-2" d="M1176.53,1029.97c-1.04-1.13-1.78-1.92-2.27-2.45.78.84,1.86,2.01,2.27,2.45Z"/>
  <path class="cls-2" d="M1174.26,1027.52c-.17-.18-.32-.34-.45-.48.12.13.27.29.45.48Z"/>
  <path class="cls-2" d="M1173.81,1027.03c-.05-.06-.1-.11-.14-.15.04.05.09.1.14.15Z"/>
</svg>