<?xml version="1.0" encoding="UTF-8"?>
<svg id="Layer_1" data-name="Layer 1" xmlns="http://www.w3.org/2000/svg" viewBox="0 0 2000 2000">
  <path d="M1696.76,889.7c-75.35,12.18-136.27,36.63-182.14,72.98.16-.89,8.63-51.68,8.63-51.68,115.58-90.68,165.42-130.06,171.37-135.4l22.16-19.9-70.79-80-19.59-22.11-22.43,19.23c-1.56,1.33-10.54,8.61-55.37,43.94l20.48-97.96-134.13-28.1-13.92,66.52-22.26-51.7-86.05,37.05-152-72.54-27.14,64.62,9.77-82.06-242.49-27.83v67.26h-178.79l4.54,19.03-82.9-35.74-22.27,51.72-13.91-66.47-134.14,28.03,20.48,97.97c-27.28-21.5-51.24-40.44-55.38-43.91l-22.29-18.67-90.72,101.59,22.49,19.98c8.81,7.83,129.5,102.53,171.26,135.27l8.17,49.01c14.97,89.88,62.84,170.17,134.81,226.11,42.46,32.94,70.53,49.34,112.71,55.96-1.69,9.56-2.74,19.22-3.16,28.94l-191.42-4.74c8.36-53.93,8.83-130.6-32.02-201-44.94-77.43-127.38-126.34-245.05-145.37l-57.14-9.21v576.3l.04,18.47h1507.71v-594.78l-57.12,9.22ZM930.87,558.39l179.12,20.56-31.47,264.31,97.68-232.61,135.12,64.48-188.87,416.98,32.26,38.97c6.23,7.5,11.82,15.38,16.77,23.56,117.11-6.19,218.32-93.85,238.01-212.24l4.99-29.78-1.88-4.35-155.94-12.64,6.23-76.79,115.24,9.34-65.8-152.79,70.75-30.46,47.9,111.26,27.2-129.98,75.4,15.79-31.21,149.3c57.39-45.09,115.31-90.7,121.16-95.73l51.05,57.69c-7.73,6.94-126.98,100.49-179.01,141.31l-10.09,60.51c-13.73,82.41-57.62,156.05-123.6,207.29-48.02,37.29-104.55,60.28-163.85,67.33,1.88,13.77,2.33,27.8,1.2,41.86l256.99-6.38c-11.03-43.44-25.13-134.74,21.46-215.06,40.21-69.28,115.5-113.29,223.87-130.8l22.32-3.6v523.36H276.17v17.71h1447.69H276.13v-541.07l22.36,3.6c108.33,17.52,183.66,61.52,223.87,130.8,46.59,80.31,32.45,171.62,21.46,215.06l258.87,6.41c-3.15-29.41.38-58.82,10.24-86.39-55.4-2.06-80.84-13.05-132.34-53-65.98-51.28-109.87-124.88-123.6-207.33l-10.09-60.51c-52.03-40.78-171.24-134.37-179.01-141.27l51.32-57.47c7.17,6,64.3,50.98,120.9,95.51l-31.21-149.33,75.4-15.75,27.2,129.94,47.9-111.26,70.75,30.5-65.8,152.75,115.24-9.34,6.23,76.82-155.94,12.64-1.88,4.31,4.99,29.82c20.11,120.71,100.23,203.54,216.78,205.68l20.74-33.01-110.43-462.9h168.65M744.76,687.14l17.37,72.8-50.49,4.09,33.12-76.89ZM794.32,894.87l44.07,184.73-4.63,7.36c-90.26-8.67-153.7-74.7-171.18-179.69l-.29-1.71,132.02-10.7ZM1330.83,794.23l-39.09-3.17,19.34-42.69,19.75,45.86ZM1231.66,923.7l148.5,12.04-.29,1.73c-16.21,97.43-96.18,173.17-193.34,185.69-2.8-3.84-5.71-7.58-8.72-11.22l-20.31-24.53,74.15-163.71ZM1419.68,1236.07l-135.16,3.35c34.26-12.74,66.57-30.69,95.76-53.36,12.69-9.85,24.62-20.46,35.77-31.75-2.21,30.01-.05,58.08,3.63,81.76Z"/>
  <path d="M1511.13,1069.22c-53.38,91.68-11.63,206.69-11.18,207.85l9.42,25.32-27.01.68-328.98,8.14,4.76-23.67c3.75-18.53,4.09-37.25,1.28-55.4-.23,0-.45-.04-.67-.08h.67c-4.28-27.76-15.94-54.13-34.4-76.41l-47.64-57.54,183.24-404.49-64.56-30.8-135.16,321.74-36.87-9.72,43.1-362.03-97.75-11.22v375.49l-38.37,2.21-36.61-318.77h-85.53l102.86,431.16-47.34,75.29c-22.66,35.97-29.78,78.59-20.07,120.04l5.7,24.27-359.44-8.89,9.49-25.36c.41-1.13,42.16-116.14-11.18-207.82-31.47-54.02-90.03-90.22-174.24-107.77v456.56l675.59-4.58.83.04c7.99.64,16.17.64,24.31.04l.79-.04,669.17,4.54v-456.56c-84.21,17.56-142.77,53.75-174.2,107.77ZM926.18,1289.15c-34.45,0-62.38-27.93-62.38-62.38,0-26.94,17.1-49.81,41.02-58.55-8.28,5.83-13.71,15.45-13.71,26.35,0,17.79,14.43,32.22,32.22,32.22s32.22-14.42,32.22-32.22c0-12.95-7.66-24.08-18.67-29.2,29.35,5.08,51.69,30.6,51.69,61.4,0,34.45-27.93,62.38-62.38,62.38ZM1082.01,1289.15c-34.45,0-62.38-27.93-62.38-62.38,0-24.95,14.68-46.41,35.84-56.39-6.72,5.9-10.99,14.54-10.99,24.19,0,17.79,14.43,32.22,32.22,32.22s32.22-14.42,32.22-32.22c0-13.42-8.21-24.92-19.88-29.76,31.14,3.5,55.35,29.89,55.35,61.96,0,34.45-27.93,62.38-62.38,62.38Z"/>
</svg>