<?xml version="1.0" encoding="UTF-8"?>
<svg id="Layer_1" data-name="Layer 1" xmlns="http://www.w3.org/2000/svg" viewBox="0 0 2000 2000">
  <defs>
    <style>
      .cls-1 {
        fill: #059948;
      }
    </style>
  </defs>
  <path class="cls-1" d="M1464.54,1603.83c-10.89-274.77-262.07-173.33-262.07-173.33l70.03-206.63c9.04-17.42,15.28-36.01,18.67-55.08l.04-.24c9.45-53.66-3.72-111.02-41.31-156.4l-43.5-52.52,202.56-447.12-108.69-51.88-155.63,370.54,49.41-415.01-150.69-17.29v432.3l-41.99-365.6h-138.34l116.1,486.65-46.88,74.48c-46.68,74.16-37.15,169.78,21.44,233.24l-87.38,161.65s-253.62-141.63-326.08,167.98c398.8,9.73,402.91,9.88,402.95,9.88l116.56-276.29c11.66,4.15,24.92,5.84,32.63,5.92l-103.51,272.34s47.08,2.43,475.67,2.43ZM1063.39,1156.67c5.68,0,11.02-1.39,15.76-3.8-11.25,21.64-33.83,36.44-59.9,36.44-37.29,0-67.51-30.23-67.51-67.51s30.22-67.51,67.51-67.51c26.07,0,48.65,14.8,59.9,36.44-4.74-2.41-10.08-3.8-15.76-3.8-19.26,0-34.87,15.61-34.87,34.87s15.61,34.87,34.87,34.87ZM1187.89,1054.3c26.91,0,50.07,15.78,60.92,38.56-5.55-3.74-12.24-5.92-19.44-5.92-19.26,0-34.87,15.61-34.87,34.87s15.61,34.87,34.87,34.87c7.2,0,13.88-2.18,19.44-5.92-10.85,22.78-34.01,38.56-60.92,38.56-37.29,0-67.51-30.23-67.51-67.51s30.23-67.51,67.51-67.51Z"/>
  <path d="M1486.87,1602.95c-3.54-89.43-31.86-151.91-84.15-185.7-54.86-35.45-122.21-29.67-165.3-20.24l55.71-164.4c9.59-18.85,16.32-39.01,20.08-60.18,10.97-62.3-5.83-125.91-46.11-174.53l-34.6-41.77,205.85-454.36-149.62-71.4-103.11,245.5,33.26-279.35-197.88-22.7v69.4h-186.28l120.49,505.04-41.88,66.53c-21.41,34.02-32.25,72.33-32.92,110.61l-12.11,1.03c-100.21,8.52-191.74-62.52-208.27-161.77l-2.3-13.76c22.61-.17,35.43-12.16,39.99-17.46,17.75-20.67,16.62-53.08-1.78-84.09l37.91-88.03-51.05-21.99-38.13,88.54-21.54-103-54.4,11.38,21.57,103.14c-28.06,23.72-28.27,65.52-11.53,93.68,6.28,10.56,14.45,18.27,23.48,22.95l2.96,17.77c10.36,62.17,43.48,117.7,93.25,156.35,44.11,34.26,97.82,52.57,153.18,52.57,7.1,0,14.24-.3,21.38-.91l13.59-1.16c7.21,29.44,20.65,57.53,40.15,82.14l-69.99,129.47c-37.74-16.19-121.3-43.25-199.9-8.56-67.64,29.87-114.19,97.41-138.38,200.76l-6.26,26.76,27.48.67c382.34,9.33,401.81,9.85,402.78,9.87l14.61.37,30.63,1.58c1.95.1,52.53,2.46,476.83,2.46h23.25l-.92-23.23ZM1021,1579.76l103.65-272.72-32.05-.32c-6.13-.06-16.68-1.54-25.35-4.63l-19.88-7.08-118.85,281.7-35.95-.89c-48.2-1.19-141.78-3.48-323.52-7.91,21.81-73.64,57.27-121.76,105.62-143.22,82.94-36.79,179.82,15.88,180.75,16.39l19.78,11.05,105.74-195.62-10.83-11.73c-52.07-56.39-59.86-141.18-18.95-206.18l51.89-82.42-111.72-468.26h90.11l39.72,345.81,44.54-2.55v-407.25l103.5,11.88-46.75,392.73,42.79,11.29,146.55-348.94,67.78,32.34-199.29,439.9,52.41,63.28c31.89,38.51,45.2,88.9,36.47,138.48-3.02,17.03-8.57,33.41-16.5,48.69l-.78,1.51-86.11,254.16,45.03-18.02c1.01-.4,101.09-39.63,167.81,3.64,35.02,22.71,55.82,65.24,62,126.61-261.95-.06-373.45-1.04-419.61-1.72Z"/>
</svg>