<?xml version="1.0" encoding="UTF-8"?>
<svg id="Layer_1" data-name="Layer 1" xmlns="http://www.w3.org/2000/svg" viewBox="0 0 2000 2000">
  <path d="M1381.9,1456.48c-66.71-43.28-166.8-4.05-167.79-3.63l-45.04,18.01,86.1-254.16.8-1.49c7.91-15.29,13.46-31.69,16.52-48.71l.04-.38c8.68-49.2-4.63-99.59-36.51-138.09l-52.41-63.31,199.26-439.88-67.74-32.34-146.58,348.93-42.78-11.28,46.76-392.74-103.49-11.89v407.27l-44.58,2.56-39.72-345.83h-90.11l111.75,468.25-51.88,82.42c-40.95,65.03-33.15,149.79,18.92,206.18l10.86,11.74-105.75,195.63-19.8-11.05c-.92-.5-97.79-53.18-180.75-16.36-48.32,21.45-83.8,69.58-105.59,143.21,181.71,4.43,275.3,6.73,323.51,7.91l35.94.88,118.86-281.68,19.88,7.07c8.68,3.1,19.23,4.55,25.35,4.63l32.04.31-103.64,272.74c46.18.69,157.66,1.64,419.62,1.72-6.19-61.4-26.99-103.91-62.01-126.62ZM1066.68,1158.26c5.7,0,11.09-1.38,15.83-3.78-11.24,21.68-33.87,36.43-59.95,36.43-37.27,0-67.52-30.2-67.52-67.51s30.24-67.52,67.52-67.52c26.07,0,48.71,14.8,59.95,36.43-4.74-2.41-10.13-3.78-15.83-3.78-19.23,0-34.87,15.64-34.87,34.87s15.64,34.87,34.87,34.87ZM1123.68,1123.39c0-37.27,30.24-67.52,67.52-67.52,26.95,0,50.2,15.79,61.05,38.65-5.58-3.78-12.31-6-19.57-6-19.27,0-34.87,15.64-34.87,34.87s15.6,34.87,34.87,34.87c7.26,0,13.99-2.22,19.57-6-10.82,22.86-34.1,38.65-61.05,38.65-37.27,0-67.52-30.2-67.52-67.51Z"/>
  <path d="M1520.73,1603.33c-3.97-99.95-36.98-170.66-98.11-210.16-33.2-21.44-73.14-32.32-118.72-32.32-6.03,0-12.13.19-18.3.57l39.09-115.38c10.39-20.88,17.74-43.15,21.84-66.13l.11-.58c12.52-71.12-6.67-143.77-52.67-199.33l-22.41-27.07,210.32-464.23-205.6-98.15-31.26,74.43,11.15-93.72-262.42-30.12v73.1h-194.45l126.51,530.23-35.05,55.65c-18.75,29.79-30.81,63.25-35.46,98.01-74.33-.03-140.14-51.81-158.75-122.64,14.2-6.47,23.33-15.49,27.69-20.53,23.44-27.33,26.44-66.6,8.85-105.25l44.24-102.77-107.22-46.18-11.98,27.84-8.03-38.35-114.27,23.92,24.55,117.42c-27.82,35.63-24.38,85.44-4.61,118.64,5.94,10.03,13.33,18.65,21.78,25.49l.78,4.71c11.63,69.77,48.79,132.07,104.66,175.45,49,38.04,110.07,58.99,171.98,58.99,4.19,0,8.47-.1,12.8-.29,6.63,18.44,15.4,35.88,26.23,52.17l-48.08,88.92c-27.89-9.49-63.48-17.83-102.47-17.83-34.22,0-66.39,6.54-95.62,19.45-76.89,33.97-129.31,108.59-155.81,221.78l-14.93,63.74,1045.85,16.03-2.2-55.54ZM515.52,1612.84l6.27-26.76c24.2-103.38,70.73-170.89,138.39-200.79,78.56-34.67,162.14-7.61,199.87,8.56l70-129.45c-19.73-24.89-33.22-53.37-40.37-83.15l-13.34,2.18c-7.15.57-14.3.88-21.37.88-55.4,0-109.11-18.31-153.23-52.57-49.78-38.65-82.88-94.16-93.24-156.33l-2.94-17.7c-9.02-4.66-17.2-12.46-23.47-23.05-16.75-28.14-16.55-69.96,11.51-93.66l-21.56-103.15,54.4-11.39,21.56,103.03,38.12-88.54,51.04,21.98-37.89,88.01c18.39,31,19.5,63.42,1.76,84.11-4.55,5.28-17.36,17.28-39.99,17.47l2.29,13.73c16.48,98.9,107.39,169.78,207.25,161.87l13.19-2.14c.84-37.92,11.66-75.85,32.88-109.57l41.9-66.52-120.5-505.06h186.3v-69.39l197.84,22.71-33.22,279.35,103.11-245.52,149.6,71.41-205.83,454.33,34.6,41.79c40.26,48.63,57.08,112.21,46.11,174.52l-.08.42c-3.71,20.76-10.44,40.91-20.03,59.75l-55.7,164.39c43.12-9.44,110.45-15.18,165.31,20.26,52.3,33.8,80.59,96.26,84.15,185.69l.92,23.24-975.57-14.95Z"/>
</svg>