<?xml version="1.0" encoding="UTF-8"?>
<svg id="Layer_1" data-name="Layer 1" xmlns="http://www.w3.org/2000/svg" viewBox="0 0 2000 2000">
  <defs>
    <style>
      .cls-1 {
        fill: #3fad3c;
      }
    </style>
  </defs>
  <g>
    <path d="M1173.47,972.27c7.02,25.49,9.51,52.2,7.11,78.77-3.2,35.43-14.95,69.59-33.81,99.35l5.29,5.46,212.88-191.23,17.32-15.56c-68.85-22.89-145.85-14.96-208.79,23.22ZM1220.48,1041.65c.66-16.19-.2-32.36-2.57-48.39,23.85-10.48,49.62-16.46,76.01-17.58l-73.44,65.97Z"/>
    <path d="M1725.37,1232.28l71.79-89.17-65.78-52.97c22.74-.42,37.27-.63,43.42-.63h1.61s39.2,1.32,39.2,1.32l2.5-74.37,3.15-74.76-39.27-1.57c-.89-.04-2.51-.07-4.78-.07-23.84,0-147.68,2.61-204.1,3.83l-33.84-29.63c-40.46-35.41-88.04-60.98-139.08-75.34l114.17-55-81.54-188.08,66.86-60.89-241.81-180.5-46.64,50.93-202.64-64.22-188.9,458.47-57.37,50.69-4.79,6.17c-16.19,20.84-29.29,43.78-39.11,68.47-96.08-11.47-173.73-89.27-183.67-186.66l152.59,2.7,2.66-149.46-89.16-1.58,66.99-121.08-130.81-72.36-18.63,33.69-5.34-49.49-148.63,16.03,9.05,83.89c-20.76-20.02-30.67-29.67-32.57-31.64l-26.8-28.03-54.04,50.51-55.04,50.58,26.53,28.88c2.02,2.19,8.05,8.76,150.44,145.11l2.99,44.88c6,90.25,45.45,174.24,111.08,236.49,56.51,53.61,128.23,87.01,204.89,96.02,3.66,23.78,10.49,46.62,20.29,67.84l-28.58,27.86c-61.82-72.76-141.93-112.28-229.52-112.29-69.82,0-143.02,25.11-217.56,74.63l-81.55,54.18,437.96,473.18,350.59-335.4,175.55,195.24,175.96-154.41c44.82,53.97,120.86,116.36,232.84,116.36,69.82,0,143.02-25.11,217.55-74.63l81.55-54.17-110.63-119.53ZM1732.74,1373.32c-68,45.17-133.89,68.08-195.85,68.08-117.46,0-190.19-79.22-226.72-134.68l-146.06,128.17-32.77,28.75-29.15-32.41-147.54-164.09-318.59,304.79-32.41,31.01-30.47-32.92-313.9-339.14-35.21-38.04,43.17-28.68c68.01-45.18,133.9-68.08,195.86-68.08,115.71,0,188.01,76.88,225.06,132.2l81.65-79.62c-20.63-32.28-31.99-70.92-32.78-112.03-79.99-1.49-155.94-32.56-214.02-87.65-58.45-55.45-93.59-130.26-98.94-210.64l-4-60.07c-46.03-44.06-152.86-146.44-159.67-153.84l26.16-24.04,25.95-24.25c5.3,5.54,58.58,56.78,111.48,107.5l-16.41-152.07,70.64-7.62,14.43,133.74,59.66-107.83,62.17,34.39-79.56,143.8,115.13,2.05-1.26,71.04-152.8-2.71-3.01,5.44,1.98,29.77c8.54,128.34,115.98,230.25,244.58,232.02l6.48.09c8.55-30.92,22.93-60.04,42.44-85.15l2.54-3.26,3.1-2.74,58.35-51.55,163.18-396.04,15.45-37.51,38.67,12.25,109.23,34.61,44.24,14.02,12.63-13.8,26.95-29.44,31.98,23.88,100.47,75,42.85,31.98-39.53,36-12.92,11.76,16.88,38.94,43.96,101.39,16.87,38.9-38.2,18.4-179.65,86.55c16.07-2.92,32.43-4.66,48.99-5.1,80.57-2.01,158.29,25.93,218.91,78.99l45.3,39.65c63.7-1.39,211.62-4.51,221.68-4.12l-1.49,35.5-1.19,35.5c-7.7-.25-81.6,1.23-154.86,2.8l119.15,95.94-44.56,55.34-104.77-84.36,11.11,38.63,136.91,147.92,35.21,38.04-43.17,28.68Z"/>
  </g>
  <path d="M1395.86,966.49l-244.86,219.96-32.69-33.76c51.21-67.19,54.95-162.08,6.95-233.29l-.52-.77-8.7-10.82,318.68-153.52-62.09-143.22-122.85,68.57,153.74-139.98-137.88-102.93-138.54,151.31,71.58-122.34-154.89-49.07-172.85,419.53-63.73,56.31-1.27,1.63c-59.66,76.81-62.18,187.8-7.15,257.14l-114.83,111.98c-27.89-49.38-97.82-145.08-220.83-145.08-57.54,0-119.33,21.66-183.64,64.39l-21.59,14.34,346.74,374.62,351.24-336.02,177.32,197.22,182.11-159.8c27.36,48.95,97.43,146.45,221.6,146.46h.01c57.53,0,119.32-21.66,183.63-64.39l21.59-14.34-346.27-374.11ZM933.17,995.38c-3.74,37.77-37.39,65.36-75.16,61.62-27.26-2.7-49.14-21.01-57.85-45.17,5.25,4.34,11.81,7.22,19.1,7.95,19.51,1.93,36.89-12.32,38.82-31.83,1.93-19.51-12.32-36.89-31.83-38.82-7.29-.72-14.28.82-20.28,4.05,13.27-21.99,38.32-35.66,65.58-32.96,37.77,3.74,65.36,37.39,61.62,75.16ZM1104.01,1012.3c-3.74,37.77-37.39,65.36-75.16,61.62-26.41-2.61-47.8-19.87-57.02-42.92,4.56,2.92,9.83,4.86,15.59,5.43,19.51,1.93,36.89-12.32,38.82-31.83,1.93-19.51-12.32-36.89-31.83-38.82-5.75-.57-11.31.3-16.35,2.26,13.57-20.79,37.92-33.52,64.33-30.91,37.77,3.74,65.36,37.39,61.62,75.16Z"/>
  <path class="cls-1" d="M999.91,1026.16c.06.07.11.12.17.19h0s-.07-.07-.17-.19Z"/>
  <path class="cls-1" d="M1000.14,1023.07c-.32-.35-.4-.43,0,0h0Z"/>
  <path class="cls-1" d="M1001.14,1026.16c-1.04-1.13-1.78-1.92-2.27-2.45.78.84,1.86,2.01,2.27,2.45Z"/>
  <path class="cls-1" d="M1000.22,1023.7c-.17-.18-.32-.34-.45-.48.12.13.27.29.45.48Z"/>
  <path class="cls-1" d="M1000.07,1023.22c-.05-.06-.1-.11-.14-.15.04.05.09.1.14.15Z"/>
</svg>