<?xml version="1.0" encoding="UTF-8"?>
<svg id="Layer_1" data-name="Layer 1" xmlns="http://www.w3.org/2000/svg" viewBox="0 0 2000 2000">
  <defs>
    <style>
      .cls-1 {
        fill: #fff;
      }
    </style>
  </defs>
  <path class="cls-1" d="M1701.53,911.73c-108.35,17.53-183.67,61.53-223.86,130.81-46.59,80.29-32.48,171.61-21.47,215.05l-256.99,6.36c1.12-14.06.66-28.08-1.2-41.85,59.29-7.07,115.86-30.06,163.84-67.32,65.99-51.25,109.9-124.88,123.64-207.29l10.09-60.52c52.03-40.8,171.24-134.36,178.99-141.28l-51.05-57.71c-5.87,5.02-63.77,50.64-121.19,95.74l31.23-149.31-75.42-15.77-27.18,129.94-47.91-111.24-70.76,30.48,65.79,152.77-115.22-9.34-6.23,76.79,155.95,12.65,1.87,4.35-4.97,29.8c-19.72,118.37-120.9,206-238.03,212.18-4.96-8.17-10.55-16.03-16.76-23.53l-32.29-38.98,188.9-416.96-135.12-64.49-97.69,232.59,31.46-264.29-179.1-20.56v82.24l-2.14-18.63h-168.65l110.44,462.89-23.38,37.15c-106.68-15.94-195.8-99.58-214.17-209.82l-4.97-29.79,1.87-4.35,155.95-12.65-6.23-76.79-115.22,9.34,65.79-152.77-70.76-30.48-47.91,111.24-27.18-129.94-75.42,15.77,31.23,149.31c-57.42-45.1-115.32-90.72-121.19-95.74l-25.39,28.97-25.65,28.74c7.75,6.92,126.97,100.48,179,141.28l10.09,60.51c13.74,82.42,57.64,156.05,123.64,207.3,38.64,30.01,82.86,50.67,129.57,61.31-7.74,25.15-10.33,51.61-7.48,78.09l-258.89-6.4c11.01-43.44,25.13-134.76-21.46-215.06-40.19-69.27-115.51-113.28-223.86-130.81l-22.34-3.61v541.08l712.73-4.84c9.41.7,19.02.72,28.57.04l706.42,4.8v-541.08l-22.34,3.61ZM1685.34,1410.42l-668.41-4.54h-.79s-.78.05-.78.05c-8.13.6-16.32.59-24.32-.03l-.82-.07-675.57,4.6v-456.54c84.22,17.56,142.77,53.75,174.21,107.76,53.37,91.67,11.61,206.7,11.19,207.82l-9.51,25.35,359.45,8.89-5.68-24.27c-9.71-41.46-2.6-84.1,20.03-120.06l47.38-75.27-102.87-431.18h85.5l36.62,318.78,38.4-2.2v-375.52l97.75,11.21-43.1,362.03,36.88,9.73,135.14-321.76,64.58,30.82-183.26,404.5,47.64,57.51c30.52,36.85,42.59,84.93,33.11,131.91l-4.78,23.66,329.01-8.14,26.98-.69-9.41-25.3c-.43-1.15-42.18-116.18,11.19-207.85,31.45-54.01,90-90.21,174.22-107.76v456.54Z"/>
  <path class="cls-1" d="M941.9,1158.88c9.83,5.52,16.49,16.03,16.49,28.1,0,17.79-14.42,32.22-32.22,32.22s-32.22-14.43-32.22-32.22c0-12.08,6.65-22.59,16.49-28.1-26.82,6.98-46.65,31.3-46.65,60.3,0,34.45,27.93,62.38,62.38,62.38s62.38-27.93,62.38-62.38c0-29.01-19.83-53.32-46.65-60.3Z"/>
  <path class="cls-1" d="M1097.73,1158.88c9.83,5.52,16.49,16.03,16.49,28.1,0,17.79-14.42,32.22-32.22,32.22s-32.22-14.43-32.22-32.22c0-12.08,6.65-22.59,16.49-28.1-26.82,6.98-46.65,31.29-46.65,60.3,0,34.45,27.93,62.38,62.38,62.38s62.38-27.93,62.38-62.38c0-29.01-19.83-53.32-46.65-60.3Z"/>
</svg>